Literata-M7Italic.ufo
<glyph name="exclam" format="2">
	<unicode hex="0021"/>
	<advance width="405"/>
	<outline>
		<contour>
			<point x="125" y="515" type="curve" smooth="yes"/>
			<point x="152" y="194" type="line"/>
			<point x="242" y="194" type="line"/>
			<point x="260" y="330"/>
			<point x="294" y="498"/>
			<point x="359" y="656" type="curve"/>
			<point x="321" y="701"/>
			<point x="259" y="717"/>
			<point x="220" y="717" type="curve" smooth="yes"/>
			<point x="157" y="717"/>
			<point x="119" y="681"/>
			<point x="119" y="625" type="curve" smooth="yes"/>
			<point x="119" y="596"/>
			<point x="120" y="569"/>
		</contour>
		<contour>
			<point x="88" y="72" type="curve" smooth="yes"/>
			<point x="88" y="16"/>
			<point x="123" y="-17"/>
			<point x="190" y="-17" type="curve" smooth="yes"/>
			<point x="254" y="-17"/>
			<point x="302" y="16"/>
			<point x="302" y="73" type="curve" smooth="yes"/>
			<point x="302" y="129"/>
			<point x="259" y="163"/>
			<point x="195" y="163" type="curve" smooth="yes"/>
			<point x="132" y="163"/>
			<point x="88" y="126"/>
		</contour>
	</outline>
</glyph>
<glyph name="dollar" format="2">
	<unicode hex="0024"/>
	<advance width="668"/>
	<outline>
		<contour>
			<point x="271" y="-90" type="line"/>
			<point x="356" y="-90" type="line"/>
			<point x="361" y="-9" type="line"/>
			<point x="521" y="16"/>
			<point x="633" y="118"/>
			<point x="633" y="247" type="curve" smooth="yes"/>
			<point x="633" y="365"/>
			<point x="560" y="402"/>
			<point x="414" y="455" type="curve" smooth="yes"/>
			<point x="406" y="458"/>
			<point x="399" y="460"/>
			<point x="391" y="463" type="curve"/>
			<point x="401" y="623" type="line"/>
			<point x="474" y="618"/>
			<point x="463" y="592"/>
			<point x="449" y="563" type="curve" smooth="yes"/>
			<point x="426" y="517" type="line"/>
			<point x="444" y="498"/>
			<point x="484" y="483"/>
			<point x="514" y="483" type="curve" smooth="yes"/>
			<point x="574" y="483"/>
			<point x="615" y="521"/>
			<point x="615" y="572" type="curve" smooth="yes"/>
			<point x="615" y="655"/>
			<point x="539" y="707"/>
			<point x="407" y="714" type="curve"/>
			<point x="413" y="806" type="line"/>
			<point x="327" y="806" type="line"/>
			<point x="321" y="712" type="line"/>
			<point x="179" y="696"/>
			<point x="70" y="620"/>
			<point x="70" y="494" type="curve" smooth="yes"/>
			<point x="70" y="381"/>
			<point x="125" y="332"/>
			<point x="294" y="280" type="curve"/>
			<point x="282" y="90" type="line"/>
			<point x="219" y="94"/>
			<point x="215" y="121"/>
			<point x="233" y="151" type="curve" smooth="yes"/>
			<point x="249" y="177" type="line"/>
			<point x="230" y="207"/>
			<point x="190" y="227"/>
			<point x="149" y="227" type="curve" smooth="yes"/>
			<point x="82" y="227"/>
			<point x="39" y="179"/>
			<point x="39" y="125" type="curve" smooth="yes"/>
			<point x="39" y="39"/>
			<point x="135" y="-11"/>
			<point x="276" y="-14" type="curve"/>
		</contour>
		<contour>
			<point x="368" y="101" type="curve"/>
			<point x="378" y="248" type="line"/>
			<point x="414" y="230"/>
			<point x="430" y="211"/>
			<point x="430" y="180" type="curve" smooth="yes"/>
			<point x="430" y="144"/>
			<point x="405" y="116"/>
		</contour>
		<contour>
			<point x="308" y="498" type="line"/>
			<point x="271" y="517"/>
			<point x="259" y="533"/>
			<point x="259" y="553" type="curve" smooth="yes"/>
			<point x="259" y="583"/>
			<point x="280" y="605"/>
			<point x="315" y="616" type="curve"/>
		</contour>
	</outline>
</glyph>
<glyph name="quotesingle" format="2">
	<unicode hex="0027"/>
	<advance width="322"/>
	<outline>
		<contour>
			<point x="224" y="497" type="line"/>
			<point x="264" y="710" type="line" smooth="yes"/>
			<point x="266" y="720"/>
			<point x="268" y="728"/>
			<point x="268" y="736" type="curve" smooth="yes"/>
			<point x="268" y="758"/>
			<point x="253" y="780"/>
			<point x="205" y="780" type="curve" smooth="yes"/>
			<point x="150" y="780"/>
			<point x="131" y="756"/>
			<point x="131" y="724" type="curve" smooth="yes"/>
			<point x="131" y="722"/>
			<point x="130" y="714"/>
			<point x="131" y="705" type="curve" smooth="yes"/>
			<point x="152" y="497" type="line"/>
		</contour>
	</outline>
</glyph>
<glyph name="parenleft" format="2">
	<unicode hex="0028"/>
	<advance width="476"/>
	<outline>
		<contour>
			<point x="84" y="284" type="curve" smooth="yes"/>
			<point x="84" y="90"/>
			<point x="176" y="-52"/>
			<point x="339" y="-225" type="curve"/>
			<point x="429" y="-173" type="line"/>
			<point x="360" y="-76"/>
			<point x="312" y="71"/>
			<point x="312" y="249" type="curve" smooth="yes"/>
			<point x="312" y="435"/>
			<point x="366" y="652"/>
			<point x="473" y="786" type="curve"/>
			<point x="397" y="839" type="line"/>
			<point x="233" y="716"/>
			<point x="84" y="487"/>
		</contour>
	</outline>
</glyph>
<glyph name="parenright" format="2">
	<unicode hex="0029"/>
	<advance width="469"/>
	<outline>
		<contour>
			<point x="393" y="333" type="curve"/>
			<point x="393" y="540"/>
			<point x="302" y="665"/>
			<point x="137" y="841" type="curve"/>
			<point x="52" y="790" type="line"/>
			<point x="116" y="693"/>
			<point x="165" y="547"/>
			<point x="165" y="370" type="curve" smooth="yes"/>
			<point x="165" y="186"/>
			<point x="129" y="26"/>
			<point x="3" y="-168" type="curve"/>
			<point x="77" y="-225" type="line"/>
			<point x="272" y="-77"/>
			<point x="394" y="130"/>
		</contour>
	</outline>
</glyph>
<glyph name="asterisk" format="2">
	<unicode hex="002A"/>
	<advance width="527"/>
	<outline>
		<contour>
			<point x="261" y="649" type="line"/>
			<point x="161" y="733" type="line"/>
			<point x="116" y="727"/>
			<point x="81" y="699"/>
			<point x="81" y="678" type="curve" smooth="yes"/>
			<point x="81" y="660"/>
			<point x="89" y="646"/>
			<point x="120" y="636" type="curve" smooth="yes"/>
			<point x="228" y="600" type="line"/>
			<point x="79" y="572" type="line"/>
			<point x="75" y="562"/>
			<point x="69" y="528"/>
			<point x="69" y="518" type="curve" smooth="yes"/>
			<point x="69" y="468"/>
			<point x="126" y="473"/>
			<point x="152" y="488" type="curve" smooth="yes"/>
			<point x="256" y="550" type="line"/>
			<point x="210" y="427" type="line"/>
			<point x="223" y="405"/>
			<point x="254" y="392"/>
			<point x="280" y="391" type="curve" smooth="yes"/>
			<point x="308" y="390"/>
			<point x="325" y="415"/>
			<point x="322" y="443" type="curve" smooth="yes"/>
			<point x="310" y="545" type="line"/>
			<point x="399" y="454" type="line"/>
			<point x="437" y="458"/>
			<point x="477" y="476"/>
			<point x="477" y="506" type="curve" smooth="yes"/>
			<point x="477" y="529"/>
			<point x="466" y="540"/>
			<point x="443" y="550" type="curve" smooth="yes"/>
			<point x="340" y="594" type="line"/>
			<point x="478" y="624" type="line"/>
			<point x="482" y="637"/>
			<point x="484" y="668"/>
			<point x="484" y="679" type="curve" smooth="yes"/>
			<point x="484" y="723"/>
			<point x="451" y="731"/>
			<point x="415" y="709" type="curve" smooth="yes"/>
			<point x="317" y="649" type="line"/>
			<point x="362" y="784" type="line"/>
			<point x="351" y="795"/>
			<point x="312" y="809"/>
			<point x="293" y="809" type="curve" smooth="yes"/>
			<point x="256" y="809"/>
			<point x="244" y="784"/>
			<point x="249" y="746" type="curve" smooth="yes"/>
		</contour>
	</outline>
</glyph>
<glyph name="plus" format="2">
	<unicode hex="002B"/>
	<advance width="582"/>
	<outline>
		<contour>
			<point x="212" y="95" type="line"/>
			<point x="371" y="95" type="line"/>
			<point x="376" y="230" type="line"/>
			<point x="516" y="230" type="line"/>
			<point x="522" y="385" type="line"/>
			<point x="381" y="385" type="line"/>
			<point x="386" y="517" type="line"/>
			<point x="227" y="517" type="line"/>
			<point x="222" y="385" type="line"/>
			<point x="82" y="385" type="line"/>
			<point x="76" y="230" type="line"/>
			<point x="217" y="230" type="line"/>
		</contour>
	</outline>
</glyph>
<glyph name="comma" format="2">
	<unicode hex="002C"/>
	<advance width="389"/>
	<outline>
		<contour>
			<point x="107" y="-182" type="line"/>
			<point x="266" y="-110"/>
			<point x="340" y="-31"/>
			<point x="340" y="68" type="curve" smooth="yes"/>
			<point x="340" y="136"/>
			<point x="300" y="185"/>
			<point x="218" y="185" type="curve" smooth="yes"/>
			<point x="118" y="185"/>
			<point x="86" y="111"/>
			<point x="101" y="39" type="curve"/>
			<point x="140" y="27" type="line" smooth="yes"/>
			<point x="166" y="19"/>
			<point x="180" y="10"/>
			<point x="180" y="-10" type="curve" smooth="yes"/>
			<point x="180" y="-39"/>
			<point x="144" y="-62"/>
			<point x="57" y="-103" type="curve"/>
		</contour>
	</outline>
</glyph>
<glyph name="period" format="2">
	<unicode hex="002E"/>
	<advance width="399"/>
	<outline>
		<contour>
			<point x="84" y="77" type="curve" smooth="yes"/>
			<point x="84" y="18"/>
			<point x="133" y="-17"/>
			<point x="204" y="-17" type="curve" smooth="yes"/>
			<point x="278" y="-17"/>
			<point x="333" y="24"/>
			<point x="333" y="90" type="curve" smooth="yes"/>
			<point x="333" y="146"/>
			<point x="286" y="187"/>
			<point x="211" y="187" type="curve" smooth="yes"/>
			<point x="135" y="187"/>
			<point x="84" y="139"/>
		</contour>
	</outline>
</glyph>
<glyph name="zero" format="2">
	<unicode hex="0030"/>
	<advance width="782"/>
	<outline>
		<contour>
			<point x="46" y="307" type="curve" smooth="yes"/>
			<point x="46" y="102"/>
			<point x="171" y="-16"/>
			<point x="368" y="-16" type="curve" smooth="yes"/>
			<point x="607" y="-16"/>
			<point x="749" y="148"/>
			<point x="749" y="397" type="curve" smooth="yes"/>
			<point x="749" y="609"/>
			<point x="640" y="717"/>
			<point x="425" y="717" type="curve" smooth="yes"/>
			<point x="186" y="717"/>
			<point x="46" y="564"/>
		</contour>
		<contour>
			<point x="414" y="600" type="curve" smooth="yes"/>
			<point x="489" y="600"/>
			<point x="516" y="545"/>
			<point x="516" y="393" type="curve" smooth="yes"/>
			<point x="516" y="185"/>
			<point x="476" y="101"/>
			<point x="382" y="101" type="curve" smooth="yes"/>
			<point x="301" y="101"/>
			<point x="278" y="156"/>
			<point x="278" y="290" type="curve" smooth="yes"/>
			<point x="278" y="505"/>
			<point x="318" y="600"/>
		</contour>
	</outline>
</glyph>
<glyph name="three" format="2">
	<unicode hex="0033"/>
	<advance width="663"/>
	<outline>
		<contour>
			<point x="591" y="561" type="curve" smooth="yes"/>
			<point x="591" y="657"/>
			<point x="493" y="715"/>
			<point x="324" y="715" type="curve" smooth="yes"/>
			<point x="164" y="715"/>
			<point x="55" y="653"/>
			<point x="55" y="561" type="curve" smooth="yes"/>
			<point x="55" y="516"/>
			<point x="86" y="483"/>
			<point x="143" y="483" type="curve" smooth="yes"/>
			<point x="178" y="483"/>
			<point x="213" y="504"/>
			<point x="242" y="552" type="curve"/>
			<point x="217" y="576" type="line" smooth="yes"/>
			<point x="191" y="601"/>
			<point x="202" y="632"/>
			<point x="260" y="632" type="curve" smooth="yes"/>
			<point x="324" y="632"/>
			<point x="361" y="593"/>
			<point x="361" y="538" type="curve" smooth="yes"/>
			<point x="361" y="445"/>
			<point x="294" y="414"/>
			<point x="186" y="400" type="curve"/>
			<point x="200" y="307" type="line"/>
			<point x="233" y="311"/>
			<point x="250" y="313"/>
			<point x="267" y="313" type="curve" smooth="yes"/>
			<point x="338" y="313"/>
			<point x="375" y="284"/>
			<point x="375" y="224" type="curve" smooth="yes"/>
			<point x="375" y="128"/>
			<point x="311" y="77"/>
			<point x="229" y="77" type="curve" smooth="yes"/>
			<point x="181" y="77"/>
			<point x="172" y="97"/>
			<point x="188" y="126" type="curve" smooth="yes"/>
			<point x="206" y="158" type="line"/>
			<point x="178" y="186"/>
			<point x="148" y="204"/>
			<point x="111" y="204" type="curve" smooth="yes"/>
			<point x="59" y="204"/>
			<point x="21" y="164"/>
			<point x="21" y="106" type="curve" smooth="yes"/>
			<point x="21" y="36"/>
			<point x="100" y="-14"/>
			<point x="240" y="-14" type="curve" smooth="yes"/>
			<point x="457" y="-14"/>
			<point x="620" y="90"/>
			<point x="620" y="220" type="curve" smooth="yes"/>
			<point x="620" y="330"/>
			<point x="544" y="370"/>
			<point x="392" y="380" type="curve"/>
			<point x="392" y="388" type="line"/>
			<point x="523" y="417"/>
			<point x="591" y="485"/>
		</contour>
	</outline>
</glyph>
<glyph name="four" format="2">
	<unicode hex="0034"/>
	<advance width="722"/>
	<outline>
		<contour>
			<point x="573" y="282" type="line"/>
			<point x="596" y="708" type="line"/>
			<point x="584" y="717" type="line"/>
			<point x="388" y="705" type="line"/>
			<point x="22" y="264" type="line"/>
			<point x="31" y="164" type="line"/>
			<point x="354" y="164" type="line"/>
			<point x="350" y="110" type="line"/>
			<point x="197" y="92" type="line"/>
			<point x="191" y="0" type="line"/>
			<point x="660" y="0" type="line"/>
			<point x="666" y="94" type="line"/>
			<point x="567" y="108" type="line"/>
			<point x="570" y="164" type="line"/>
			<point x="691" y="164" type="line"/>
			<point x="697" y="282" type="line"/>
		</contour>
		<contour>
			<point x="358" y="282" type="line"/>
			<point x="151" y="282" type="line"/>
			<point x="375" y="541" type="line"/>
		</contour>
	</outline>
</glyph>
<glyph name="five" format="2">
	<unicode hex="0035"/>
	<advance width="661"/>
	<outline>
		<contour>
			<point x="382" y="233" type="curve" smooth="yes"/>
			<point x="382" y="139"/>
			<point x="321" y="75"/>
			<point x="244" y="75" type="curve" smooth="yes"/>
			<point x="186" y="75"/>
			<point x="181" y="99"/>
			<point x="196" y="130" type="curve" smooth="yes"/>
			<point x="211" y="161" type="line"/>
			<point x="191" y="186"/>
			<point x="158" y="203"/>
			<point x="121" y="203" type="curve" smooth="yes"/>
			<point x="58" y="203"/>
			<point x="27" y="153"/>
			<point x="27" y="112" type="curve" smooth="yes"/>
			<point x="27" y="31"/>
			<point x="118" y="-14"/>
			<point x="245" y="-14" type="curve" smooth="yes"/>
			<point x="462" y="-14"/>
			<point x="612" y="99"/>
			<point x="612" y="260" type="curve" smooth="yes"/>
			<point x="612" y="381"/>
			<point x="519" y="446"/>
			<point x="390" y="446" type="curve" smooth="yes"/>
			<point x="304" y="446"/>
			<point x="258" y="433"/>
			<point x="200" y="409" type="curve"/>
			<point x="221" y="548" type="line"/>
			<point x="567" y="548" type="line"/>
			<point x="584" y="700" type="line"/>
			<point x="152" y="700" type="line"/>
			<point x="134" y="686" type="line"/>
			<point x="101" y="359" type="line"/>
			<point x="145" y="304" type="line"/>
			<point x="199" y="325"/>
			<point x="237" y="333"/>
			<point x="278" y="333" type="curve" smooth="yes"/>
			<point x="347" y="333"/>
			<point x="382" y="300"/>
		</contour>
	</outline>
</glyph>
<glyph name="equal" format="2">
	<unicode hex="003D"/>
	<advance width="629"/>
	<outline>
		<contour>
			<point x="90" y="123" type="line"/>
			<point x="531" y="123" type="line"/>
			<point x="541" y="278" type="line"/>
			<point x="99" y="278" type="line"/>
		</contour>
		<contour>
			<point x="103" y="328" type="line"/>
			<point x="543" y="328" type="line"/>
			<point x="553" y="483" type="line"/>
			<point x="112" y="483" type="line"/>
		</contour>
	</outline>
</glyph>
<glyph name="greater" format="2">
	<unicode hex="003E"/>
	<advance width="629"/>
	<outline>
		<contour>
			<point x="164" y="38" type="line"/>
			<point x="546" y="243" type="line"/>
			<point x="548" y="325" type="line"/>
			<point x="178" y="532" type="line"/>
			<point x="102" y="412" type="line"/>
			<point x="346" y="286" type="line"/>
			<point x="95" y="163" type="line"/>
		</contour>
	</outline>
</glyph>
<glyph name="question" format="2">
	<unicode hex="003F"/>
	<advance width="582"/>
	<outline>
		<contour>
			<point x="194" y="403" type="curve"/>
			<point x="240" y="194" type="line"/>
			<point x="355" y="194" type="line"/>
			<point x="334" y="287" type="line"/>
			<point x="533" y="345"/>
			<point x="576" y="438"/>
			<point x="576" y="529" type="curve" smooth="yes"/>
			<point x="576" y="648"/>
			<point x="477" y="715"/>
			<point x="324" y="715" type="curve" smooth="yes"/>
			<point x="153" y="715"/>
			<point x="50" y="644"/>
			<point x="50" y="553" type="curve" smooth="yes"/>
			<point x="50" y="509"/>
			<point x="78" y="470"/>
			<point x="138" y="470" type="curve" smooth="yes"/>
			<point x="183" y="470"/>
			<point x="209" y="497"/>
			<point x="223" y="533" type="curve"/>
			<point x="201" y="557" type="line" smooth="yes"/>
			<point x="170" y="591"/>
			<point x="183" y="625"/>
			<point x="265" y="625" type="curve" smooth="yes"/>
			<point x="325" y="625"/>
			<point x="357" y="597"/>
			<point x="357" y="539" type="curve" smooth="yes"/>
			<point x="357" y="468"/>
			<point x="300" y="437"/>
		</contour>
		<contour>
			<point x="188" y="72" type="curve" smooth="yes"/>
			<point x="188" y="16"/>
			<point x="223" y="-17"/>
			<point x="290" y="-17" type="curve" smooth="yes"/>
			<point x="354" y="-17"/>
			<point x="402" y="16"/>
			<point x="402" y="73" type="curve" smooth="yes"/>
			<point x="402" y="129"/>
			<point x="359" y="163"/>
			<point x="295" y="163" type="curve" smooth="yes"/>
			<point x="232" y="163"/>
			<point x="188" y="126"/>
		</contour>
	</outline>
</glyph>
<glyph name="A" format="2">
	<unicode hex="0041"/>
	<advance width="833"/>
	<outline>
		<contour>
			<point x="561" y="714" type="line"/>
			<point x="334" y="693" type="line"/>
			<point x="93" y="102" type="line"/>
			<point x="22" y="93" type="line"/>
			<point x="12" y="0" type="line"/>
			<point x="304" y="0" type="line"/>
			<point x="311" y="92" type="line"/>
			<point x="226" y="104" type="line"/>
			<point x="262" y="204" type="line"/>
			<point x="487" y="204" type="line"/>
			<point x="512" y="104" type="line"/>
			<point x="436" y="93" type="line"/>
			<point x="427" y="0" type="line"/>
			<point x="823" y="0" type="line"/>
			<point x="829" y="94" type="line"/>
			<point x="754" y="103" type="line"/>
		</contour>
		<contour>
			<point x="291" y="304" type="line"/>
			<point x="396" y="579" type="line"/>
			<point x="400" y="579" type="line"/>
			<point x="463" y="304" type="line"/>
		</contour>
	</outline>
	<anchor name="bottom" x="366" y="-30"/>
	<anchor name="top" x="448" y="730"/>
</glyph>
<glyph name="E" format="2">
	<unicode hex="0045"/>
	<advance width="719"/>
	<outline>
		<contour>
			<point x="146" y="596" type="line"/>
			<point x="123" y="106" type="line"/>
			<point x="37" y="93" type="line"/>
			<point x="28" y="0" type="line"/>
			<point x="655" y="0" type="line"/>
			<point x="680" y="218" type="line"/>
			<point x="569" y="218" type="line"/>
			<point x="556" y="177" type="line" smooth="yes"/>
			<point x="536" y="114"/>
			<point x="512" y="105"/>
			<point x="448" y="105" type="curve" smooth="yes"/>
			<point x="351" y="105" type="line"/>
			<point x="363" y="302" type="line"/>
			<point x="574" y="302" type="line"/>
			<point x="579" y="416" type="line"/>
			<point x="366" y="416" type="line"/>
			<point x="375" y="596" type="line"/>
			<point x="457" y="596" type="line" smooth="yes"/>
			<point x="519" y="596"/>
			<point x="538" y="581"/>
			<point x="557" y="524" type="curve" smooth="yes"/>
			<point x="569" y="488" type="line"/>
			<point x="674" y="497" type="line"/>
			<point x="657" y="700" type="line"/>
			<point x="61" y="700" type="line"/>
			<point x="55" y="613" type="line"/>
		</contour>
	</outline>
	<anchor name="bottom" x="369" y="-30"/>
	<anchor name="top" x="381" y="730"/>
</glyph>
<glyph name="F" format="2">
	<unicode hex="0046"/>
	<advance width="695"/>
	<outline>
		<contour>
			<point x="33" y="92" type="line"/>
			<point x="28" y="0" type="line"/>
			<point x="487" y="0" type="line"/>
			<point x="494" y="94" type="line"/>
			<point x="357" y="107" type="line"/>
			<point x="366" y="296" type="line"/>
			<point x="571" y="296" type="line"/>
			<point x="575" y="403" type="line"/>
			<point x="369" y="403" type="line"/>
			<point x="379" y="596" type="line"/>
			<point x="455" y="596" type="line" smooth="yes"/>
			<point x="517" y="596"/>
			<point x="542" y="586"/>
			<point x="558" y="532" type="curve" smooth="yes"/>
			<point x="572" y="484" type="line"/>
			<point x="679" y="494" type="line"/>
			<point x="662" y="700" type="line"/>
			<point x="60" y="700" type="line"/>
			<point x="53" y="613" type="line"/>
			<point x="150" y="596" type="line"/>
			<point x="126" y="105" type="line"/>
		</contour>
	</outline>
</glyph>
<glyph name="I" format="2">
	<unicode hex="0049"/>
	<advance width="478"/>
	<outline>
		<contour>
			<point x="147" y="594" type="line"/>
			<point x="123" y="105" type="line"/>
			<point x="32" y="95" type="line"/>
			<point x="28" y="0" type="line"/>
			<point x="453" y="0" type="line"/>
			<point x="457" y="95" type="line"/>
			<point x="352" y="108" type="line"/>
			<point x="375" y="597" type="line"/>
			<point x="468" y="611" type="line"/>
			<point x="476" y="700" type="line"/>
			<point x="59" y="700" type="line"/>
			<point x="52" y="611" type="line"/>
		</contour>
	</outline>
	<anchor name="bottom" x="236" y="-30"/>
	<anchor name="top" x="261" y="730"/>
</glyph>
<glyph name="J" format="2">
	<unicode hex="004A"/>
	<advance width="490"/>
	<outline>
		<contour>
			<point x="156" y="593" type="line"/>
			<point x="135" y="114" type="line" smooth="yes"/>
			<point x="130" y="-10"/>
			<point x="117" y="-65"/>
			<point x="29" y="-158" type="curve"/>
			<point x="97" y="-244" type="line"/>
			<point x="308" y="-104"/>
			<point x="357" y="-35"/>
			<point x="363" y="99" type="curve" smooth="yes"/>
			<point x="385" y="596" type="line"/>
			<point x="478" y="611" type="line"/>
			<point x="485" y="700" type="line"/>
			<point x="49" y="700" type="line"/>
			<point x="43" y="611" type="line"/>
		</contour>
	</outline>
	<anchor name="top" x="272" y="730"/>
</glyph>
<glyph name="M" format="2">
	<unicode hex="004D"/>
	<advance width="1162"/>
	<outline>
		<contour>
			<point x="827" y="596" type="line"/>
			<point x="849" y="104" type="line"/>
			<point x="759" y="91" type="line"/>
			<point x="751" y="0" type="line"/>
			<point x="1133" y="0" type="line"/>
			<point x="1141" y="91" type="line"/>
			<point x="1051" y="104" type="line"/>
			<point x="1024" y="599" type="line"/>
			<point x="1095" y="611" type="line"/>
			<point x="1103" y="700" type="line"/>
			<point x="740" y="700" type="line"/>
			<point x="592" y="241" type="line"/>
			<point x="457" y="700" type="line"/>
			<point x="87" y="700" type="line"/>
			<point x="79" y="613" type="line"/>
			<point x="172" y="596" type="line"/>
			<point x="133" y="105" type="line"/>
			<point x="43" y="91" type="line"/>
			<point x="35" y="0" type="line"/>
			<point x="335" y="0" type="line"/>
			<point x="343" y="91" type="line"/>
			<point x="245" y="105" type="line"/>
			<point x="283" y="581" type="line"/>
			<point x="453" y="-11" type="line"/>
			<point x="644" y="6" type="line"/>
		</contour>
	</outline>
	<anchor name="bottom" x="540" y="-30"/>
</glyph>
<glyph name="N" format="2">
	<unicode hex="004E"/>
	<advance width="862"/>
	<outline>
		<contour>
			<point x="649" y="199" type="line"/>
			<point x="406" y="700" type="line"/>
			<point x="61" y="700" type="line"/>
			<point x="54" y="607" type="line"/>
			<point x="140" y="596" type="line"/>
			<point x="115" y="104" type="line"/>
			<point x="34" y="91" type="line"/>
			<point x="28" y="0" type="line"/>
			<point x="318" y="0" type="line"/>
			<point x="324" y="91" type="line"/>
			<point x="231" y="104" type="line"/>
			<point x="246" y="567" type="line"/>
			<point x="541" y="-19" type="line"/>
			<point x="751" y="0" type="line"/>
			<point x="773" y="592" type="line"/>
			<point x="860" y="609" type="line"/>
			<point x="867" y="700" type="line"/>
			<point x="579" y="700" type="line"/>
			<point x="573" y="609" type="line"/>
			<point x="664" y="592" type="line"/>
		</contour>
	</outline>
	<anchor name="bottom" x="421" y="-30"/>
	<anchor name="top" x="465" y="730"/>
</glyph>
<glyph name="S" format="2">
	<unicode hex="0053"/>
	<advance width="668"/>
	<outline>
		<contour>
			<point x="633" y="247" type="curve" smooth="yes"/>
			<point x="633" y="365"/>
			<point x="560" y="402"/>
			<point x="414" y="455" type="curve" smooth="yes"/>
			<point x="292" y="499"/>
			<point x="259" y="520"/>
			<point x="259" y="553" type="curve" smooth="yes"/>
			<point x="259" y="597"/>
			<point x="304" y="624"/>
			<point x="372" y="624" type="curve" smooth="yes"/>
			<point x="476" y="624"/>
			<point x="465" y="595"/>
			<point x="449" y="563" type="curve" smooth="yes"/>
			<point x="426" y="517" type="line"/>
			<point x="444" y="498"/>
			<point x="484" y="483"/>
			<point x="514" y="483" type="curve" smooth="yes"/>
			<point x="574" y="483"/>
			<point x="615" y="521"/>
			<point x="615" y="572" type="curve" smooth="yes"/>
			<point x="615" y="661"/>
			<point x="527" y="715"/>
			<point x="377" y="715" type="curve" smooth="yes"/>
			<point x="208" y="715"/>
			<point x="70" y="636"/>
			<point x="70" y="494" type="curve" smooth="yes"/>
			<point x="70" y="383"/>
			<point x="126" y="333"/>
			<point x="277" y="285" type="curve" smooth="yes"/>
			<point x="387" y="250"/>
			<point x="430" y="232"/>
			<point x="430" y="180" type="curve" smooth="yes"/>
			<point x="430" y="125"/>
			<point x="371" y="89"/>
			<point x="301" y="89" type="curve" smooth="yes"/>
			<point x="220" y="89"/>
			<point x="213" y="118"/>
			<point x="233" y="151" type="curve" smooth="yes"/>
			<point x="249" y="177" type="line"/>
			<point x="230" y="207"/>
			<point x="190" y="227"/>
			<point x="149" y="227" type="curve" smooth="yes"/>
			<point x="82" y="227"/>
			<point x="39" y="179"/>
			<point x="39" y="125" type="curve" smooth="yes"/>
			<point x="39" y="37"/>
			<point x="141" y="-14"/>
			<point x="288" y="-14" type="curve" smooth="yes"/>
			<point x="485" y="-14"/>
			<point x="633" y="99"/>
		</contour>
	</outline>
	<anchor name="bottom" x="321" y="-27"/>
	<anchor name="top" x="356" y="730"/>
</glyph>
<glyph name="W" format="2">
	<unicode hex="0057"/>
	<advance width="1181"/>
	<outline>
		<contour>
			<point x="864" y="176" type="line"/>
			<point x="720" y="701" type="line"/>
			<point x="501" y="685" type="line"/>
			<point x="554" y="458" type="line"/>
			<point x="448" y="165" type="line"/>
			<point x="444" y="165" type="line"/>
			<point x="316" y="597" type="line"/>
			<point x="420" y="610" type="line"/>
			<point x="428" y="700" type="line"/>
			<point x="30" y="700" type="line"/>
			<point x="22" y="610" type="line"/>
			<point x="91" y="595" type="line"/>
			<point x="276" y="-10" type="line"/>
			<point x="500" y="-5" type="line"/>
			<point x="606" y="303" type="line"/>
			<point x="703" y="-10" type="line"/>
			<point x="932" y="0" type="line"/>
			<point x="1121" y="592" type="line"/>
			<point x="1201" y="609" type="line"/>
			<point x="1210" y="700" type="line"/>
			<point x="926" y="700" type="line"/>
			<point x="918" y="613" type="line"/>
			<point x="1007" y="595" type="line"/>
			<point x="868" y="176" type="line"/>
		</contour>
	</outline>
	<anchor name="top" x="630" y="730"/>
</glyph>
<glyph name="X" format="2">
	<unicode hex="0058"/>
	<advance width="869"/>
	<outline>
		<contour>
			<point x="18" y="0" type="line"/>
			<point x="324" y="0" type="line"/>
			<point x="330" y="87" type="line"/>
			<point x="246" y="104" type="line"/>
			<point x="386" y="253" type="line"/>
			<point x="505" y="102" type="line"/>
			<point x="420" y="90" type="line"/>
			<point x="414" y="0" type="line"/>
			<point x="845" y="0" type="line"/>
			<point x="853" y="90" type="line"/>
			<point x="760" y="105" type="line"/>
			<point x="539" y="384" type="line"/>
			<point x="748" y="592" type="line"/>
			<point x="835" y="609" type="line"/>
			<point x="843" y="700" type="line"/>
			<point x="545" y="700" type="line"/>
			<point x="539" y="613" type="line"/>
			<point x="621" y="595" type="line"/>
			<point x="480" y="458" type="line"/>
			<point x="366" y="598" type="line"/>
			<point x="453" y="610" type="line"/>
			<point x="459" y="700" type="line"/>
			<point x="42" y="700" type="line"/>
			<point x="34" y="610" type="line"/>
			<point x="113" y="596" type="line"/>
			<point x="324" y="337" type="line"/>
			<point x="111" y="107" type="line"/>
			<point x="25" y="91" type="line"/>
		</contour>
	</outline>
</glyph>
<glyph name="Z" format="2">
	<unicode hex="005A"/>
	<advance width="762"/>
	<outline>
		<contour>
			<point x="717" y="616" type="line"/>
			<point x="710" y="700" type="line"/>
			<point x="105" y="700" type="line"/>
			<point x="70" y="469" type="line"/>
			<point x="177" y="459" type="line"/>
			<point x="200" y="519" type="line" smooth="yes"/>
			<point x="228" y="592"/>
			<point x="246" y="592"/>
			<point x="320" y="592" type="curve" smooth="yes"/>
			<point x="459" y="592" type="line"/>
			<point x="54" y="84" type="line"/>
			<point x="54" y="0" type="line"/>
			<point x="687" y="0" type="line"/>
			<point x="717" y="248" type="line"/>
			<point x="604" y="248" type="line"/>
			<point x="589" y="202" type="line" smooth="yes"/>
			<point x="560" y="114"/>
			<point x="514" y="114"/>
			<point x="444" y="114" type="curve" smooth="yes"/>
			<point x="321" y="114" type="line"/>
		</contour>
	</outline>
	<anchor name="bottom" x="372" y="-30"/>
	<anchor name="top" x="396" y="730"/>
</glyph>
<glyph name="grave" format="2">
	<unicode hex="0060"/>
	<advance width="500"/>
	<outline>
		<contour>
			<point x="388" y="618" type="line"/>
			<point x="213" y="818" type="line"/>
			<point x="132" y="805"/>
			<point x="108" y="772"/>
			<point x="108" y="732" type="curve" smooth="yes"/>
			<point x="108" y="702"/>
			<point x="126" y="681"/>
			<point x="148" y="670" type="curve" smooth="yes"/>
			<point x="342" y="571" type="line"/>
		</contour>
	</outline>
	<anchor name="_top" x="268" y="550"/>
</glyph>
<glyph name="b" format="2">
	<unicode hex="0062"/>
	<advance width="730"/>
	<outline>
		<contour>
			<point x="354" y="-14" type="curve" smooth="yes"/>
			<point x="546" y="-14"/>
			<point x="690" y="101"/>
			<point x="690" y="311" type="curve" smooth="yes"/>
			<point x="690" y="449"/>
			<point x="628" y="546"/>
			<point x="501" y="546" type="curve" smooth="yes"/>
			<point x="377" y="546"/>
			<point x="324" y="472"/>
			<point x="286" y="335" type="curve" smooth="yes"/>
			<point x="246" y="192" type="line"/>
			<point x="237" y="194" type="line"/>
			<point x="273" y="434" type="line"/>
			<point x="285" y="756" type="line"/>
			<point x="267" y="767" type="line"/>
			<point x="13" y="767" type="line"/>
			<point x="7" y="679" type="line"/>
			<point x="95" y="663" type="line"/>
			<point x="68" y="36" type="line"/>
			<point x="113" y="11"/>
			<point x="271" y="-14"/>
		</contour>
		<contour>
			<point x="435" y="438" type="curve" smooth="yes"/>
			<point x="471" y="438"/>
			<point x="475" y="404"/>
			<point x="475" y="340" type="curve" smooth="yes"/>
			<point x="475" y="241"/>
			<point x="447" y="77"/>
			<point x="353" y="77" type="curve" smooth="yes"/>
			<point x="329" y="77"/>
			<point x="309" y="83"/>
			<point x="296" y="87" type="curve"/>
			<point x="347" y="261" type="line" smooth="yes"/>
			<point x="392" y="416"/>
			<point x="400" y="438"/>
		</contour>
	</outline>
</glyph>
<glyph name="c" format="2">
	<unicode hex="0063"/>
	<advance width="618"/>
	<outline>
		<contour>
			<point x="370" y="541" type="curve" smooth="yes"/>
			<point x="145" y="541"/>
			<point x="44" y="403"/>
			<point x="44" y="231" type="curve" smooth="yes"/>
			<point x="44" y="69"/>
			<point x="164" y="-14"/>
			<point x="310" y="-14" type="curve" smooth="yes"/>
			<point x="456" y="-14"/>
			<point x="538" y="65"/>
			<point x="566" y="98" type="curve"/>
			<point x="502" y="178" type="line"/>
			<point x="465" y="146"/>
			<point x="420" y="112"/>
			<point x="366" y="112" type="curve" smooth="yes"/>
			<point x="293" y="112"/>
			<point x="268" y="156"/>
			<point x="268" y="235" type="curve" smooth="yes"/>
			<point x="268" y="331"/>
			<point x="297" y="452"/>
			<point x="383" y="452" type="curve" smooth="yes"/>
			<point x="420" y="452"/>
			<point x="446" y="424"/>
			<point x="416" y="386" type="curve" smooth="yes"/>
			<point x="389" y="352" type="line"/>
			<point x="405" y="314"/>
			<point x="451" y="297"/>
			<point x="486" y="297" type="curve" smooth="yes"/>
			<point x="542" y="297"/>
			<point x="582" y="336"/>
			<point x="582" y="389" type="curve" smooth="yes"/>
			<point x="582" y="488"/>
			<point x="489" y="541"/>
		</contour>
	</outline>
	<anchor name="bottom" x="307" y="-31"/>
	<anchor name="top" x="338" y="561"/>
</glyph>
<glyph name="e" format="2">
	<unicode hex="0065"/>
	<advance width="615"/>
	<outline>
		<contour>
			<point x="375" y="541" type="curve" smooth="yes"/>
			<point x="173" y="541"/>
			<point x="44" y="435"/>
			<point x="44" y="231" type="curve" smooth="yes"/>
			<point x="44" y="67"/>
			<point x="157" y="-14"/>
			<point x="314" y="-14" type="curve" smooth="yes"/>
			<point x="386" y="-14"/>
			<point x="497" y="6"/>
			<point x="569" y="88" type="curve"/>
			<point x="514" y="172" type="line"/>
			<point x="470" y="142"/>
			<point x="414" y="119"/>
			<point x="369" y="119" type="curve" smooth="yes"/>
			<point x="317" y="119"/>
			<point x="275" y="140"/>
			<point x="265" y="199" type="curve"/>
			<point x="355" y="224" type="line" smooth="yes"/>
			<point x="536" y="274"/>
			<point x="575" y="328"/>
			<point x="575" y="402" type="curve" smooth="yes"/>
			<point x="575" y="492"/>
			<point x="497" y="541"/>
		</contour>
		<contour>
			<point x="383" y="402" type="curve" smooth="yes"/>
			<point x="383" y="346"/>
			<point x="356" y="324"/>
			<point x="304" y="311" type="curve" smooth="yes"/>
			<point x="261" y="300" type="line"/>
			<point x="271" y="417"/>
			<point x="306" y="452"/>
			<point x="346" y="452" type="curve" smooth="yes"/>
			<point x="366" y="452"/>
			<point x="383" y="442"/>
		</contour>
	</outline>
	<anchor name="bottom" x="307" y="-31"/>
	<anchor name="top" x="353" y="561"/>
</glyph>
<glyph name="f" format="2">
	<unicode hex="0066"/>
	<advance width="498"/>
	<outline>
		<contour>
			<point x="402" y="705" type="curve" smooth="yes"/>
			<point x="435" y="705"/>
			<point x="448" y="688"/>
			<point x="429" y="646" type="curve" smooth="yes"/>
			<point x="415" y="616" type="line"/>
			<point x="431" y="597"/>
			<point x="468" y="583"/>
			<point x="496" y="583" type="curve" smooth="yes"/>
			<point x="554" y="583"/>
			<point x="592" y="617"/>
			<point x="592" y="666" type="curve" smooth="yes"/>
			<point x="592" y="752"/>
			<point x="494" y="784"/>
			<point x="393" y="784" type="curve" smooth="yes"/>
			<point x="250" y="784"/>
			<point x="135" y="701"/>
			<point x="126" y="570" type="curve" smooth="yes"/>
			<point x="123" y="528" type="line"/>
			<point x="43" y="520" type="line"/>
			<point x="34" y="435" type="line"/>
			<point x="120" y="435" type="line"/>
			<point x="104" y="35" type="line" smooth="yes"/>
			<point x="100" y="-74"/>
			<point x="101" y="-46"/>
			<point x="99" y="-80" type="curve" smooth="yes"/>
			<point x="97" y="-113"/>
			<point x="78" y="-123"/>
			<point x="41" y="-102" type="curve" smooth="yes"/>
			<point x="-12" y="-72" type="line"/>
			<point x="-43" y="-101"/>
			<point x="-58" y="-135"/>
			<point x="-58" y="-160" type="curve" smooth="yes"/>
			<point x="-58" y="-203"/>
			<point x="-18" y="-235"/>
			<point x="28" y="-235" type="curve" smooth="yes"/>
			<point x="96" y="-235"/>
			<point x="145" y="-186"/>
			<point x="198" y="-110" type="curve" smooth="yes"/>
			<point x="284" y="14"/>
			<point x="314" y="73"/>
			<point x="319" y="197" type="curve" smooth="yes"/>
			<point x="328" y="435" type="line"/>
			<point x="465" y="435" type="line"/>
			<point x="470" y="527" type="line"/>
			<point x="329" y="527" type="line"/>
			<point x="334" y="614" type="line" smooth="yes"/>
			<point x="336" y="654"/>
			<point x="347" y="705"/>
		</contour>
	</outline>
</glyph>
<glyph name="g" format="2">
	<unicode hex="0067"/>
	<advance width="723"/>
	<outline>
		<contour>
			<point x="483" y="292" type="line"/>
			<point x="461" y="116" type="line" smooth="yes"/>
			<point x="442" y="-36"/>
			<point x="399" y="-146"/>
			<point x="283" y="-146" type="curve" smooth="yes"/>
			<point x="221" y="-146"/>
			<point x="230" y="-116"/>
			<point x="241" y="-88" type="curve" smooth="yes"/>
			<point x="252" y="-61" type="line"/>
			<point x="237" y="-44"/>
			<point x="183" y="-30"/>
			<point x="159" y="-30" type="curve" smooth="yes"/>
			<point x="100" y="-30"/>
			<point x="64" y="-70"/>
			<point x="64" y="-116" type="curve" smooth="yes"/>
			<point x="64" y="-190"/>
			<point x="142" y="-235"/>
			<point x="258" y="-235" type="curve" smooth="yes"/>
			<point x="482" y="-235"/>
			<point x="640" y="-100"/>
			<point x="648" y="99" type="curve" smooth="yes"/>
			<point x="664" y="519" type="line"/>
			<point x="614" y="539" type="line"/>
			<point x="504" y="511" type="line"/>
			<point x="459" y="532"/>
			<point x="397" y="541"/>
			<point x="355" y="541" type="curve" smooth="yes"/>
			<point x="155" y="541"/>
			<point x="43" y="397"/>
			<point x="43" y="204" type="curve" smooth="yes"/>
			<point x="43" y="103"/>
			<point x="89" y="0"/>
			<point x="236" y="0" type="curve" smooth="yes"/>
			<point x="338" y="0"/>
			<point x="400" y="43"/>
			<point x="438" y="175" type="curve" smooth="yes"/>
			<point x="472" y="293" type="line"/>
		</contour>
		<contour>
			<point x="298" y="103" type="curve" smooth="yes"/>
			<point x="262" y="103"/>
			<point x="256" y="130"/>
			<point x="256" y="194" type="curve" smooth="yes"/>
			<point x="256" y="312"/>
			<point x="294" y="454"/>
			<point x="384" y="454" type="curve" smooth="yes"/>
			<point x="402" y="454"/>
			<point x="424" y="450"/>
			<point x="436" y="445" type="curve"/>
			<point x="403" y="326" type="line" smooth="yes"/>
			<point x="352" y="143"/>
			<point x="333" y="103"/>
		</contour>
	</outline>
	<anchor name="top" x="378" y="561"/>
</glyph>
<glyph name="i" format="2">
	<unicode hex="0069"/>
	<advance width="406"/>
	<outline>
		<contour>
			<point x="115" y="388" type="curve" smooth="yes"/>
			<point x="95" y="130" type="line" smooth="yes"/>
			<point x="87" y="27"/>
			<point x="125" y="-14"/>
			<point x="226" y="-14" type="curve" smooth="yes"/>
			<point x="284" y="-14"/>
			<point x="368" y="10"/>
			<point x="402" y="32" type="curve"/>
			<point x="382" y="110" type="line"/>
			<point x="364" y="105"/>
			<point x="346" y="100"/>
			<point x="327" y="100" type="curve" smooth="yes"/>
			<point x="303" y="100"/>
			<point x="298" y="119"/>
			<point x="300" y="144" type="curve" smooth="yes"/>
			<point x="320" y="398" type="line" smooth="yes"/>
			<point x="328" y="504"/>
			<point x="265" y="541"/>
			<point x="174" y="541" type="curve" smooth="yes"/>
			<point x="97" y="541"/>
			<point x="32" y="517"/>
			<point x="3" y="502" type="curve"/>
			<point x="31" y="414" type="line"/>
			<point x="56" y="423"/>
			<point x="75" y="428"/>
			<point x="91" y="428" type="curve" smooth="yes"/>
			<point x="109" y="428"/>
			<point x="117" y="413"/>
		</contour>
		<contour>
			<point x="108" y="711" type="curve" smooth="yes"/>
			<point x="108" y="653"/>
			<point x="152" y="613"/>
			<point x="221" y="613" type="curve" smooth="yes"/>
			<point x="286" y="613"/>
			<point x="332" y="654"/>
			<point x="332" y="710" type="curve" smooth="yes"/>
			<point x="332" y="767"/>
			<point x="285" y="808"/>
			<point x="219" y="808" type="curve" smooth="yes"/>
			<point x="151" y="808"/>
			<point x="108" y="767"/>
		</contour>
	</outline>
	<anchor name="bottom" x="186" y="-31"/>
</glyph>
<glyph name="j" format="2">
	<unicode hex="006A"/>
	<advance width="397"/>
	<outline>
		<contour>
			<point x="319" y="134" type="curve" smooth="yes"/>
			<point x="333" y="412" type="line" smooth="yes"/>
			<point x="337" y="492"/>
			<point x="289" y="546"/>
			<point x="194" y="546" type="curve" smooth="yes"/>
			<point x="123" y="546"/>
			<point x="47" y="524"/>
			<point x="20" y="509" type="curve"/>
			<point x="39" y="414" type="line"/>
			<point x="70" y="425"/>
			<point x="85" y="427"/>
			<point x="100" y="427" type="curve" smooth="yes"/>
			<point x="117" y="427"/>
			<point x="129" y="416"/>
			<point x="127" y="385" type="curve" smooth="yes"/>
			<point x="108" y="23" type="line" smooth="yes"/>
			<point x="106" y="-12"/>
			<point x="105" y="-53"/>
			<point x="101" y="-84" type="curve" smooth="yes"/>
			<point x="97" y="-110"/>
			<point x="81" y="-120"/>
			<point x="40" y="-103" type="curve" smooth="yes"/>
			<point x="-23" y="-77" type="line"/>
			<point x="-41" y="-97"/>
			<point x="-58" y="-130"/>
			<point x="-58" y="-158" type="curve" smooth="yes"/>
			<point x="-58" y="-203"/>
			<point x="-24" y="-234"/>
			<point x="29" y="-234" type="curve" smooth="yes"/>
			<point x="91" y="-234"/>
			<point x="142" y="-188"/>
			<point x="168" y="-159" type="curve" smooth="yes"/>
			<point x="254" y="-64"/>
			<point x="313" y="20"/>
		</contour>
		<contour>
			<point x="91" y="711" type="curve" smooth="yes"/>
			<point x="91" y="653"/>
			<point x="135" y="613"/>
			<point x="204" y="613" type="curve" smooth="yes"/>
			<point x="269" y="613"/>
			<point x="315" y="654"/>
			<point x="315" y="710" type="curve" smooth="yes"/>
			<point x="315" y="767"/>
			<point x="268" y="808"/>
			<point x="202" y="808" type="curve" smooth="yes"/>
			<point x="134" y="808"/>
			<point x="91" y="767"/>
		</contour>
	</outline>
</glyph>
<glyph name="m" format="2">
	<unicode hex="006D"/>
	<advance width="1072"/>
	<outline>
		<contour>
			<point x="459" y="340" type="curve" smooth="yes"/>
			<point x="423" y="0" type="line"/>
			<point x="640" y="0" type="line"/>
			<point x="722" y="274" type="line" smooth="yes"/>
			<point x="754" y="381"/>
			<point x="759" y="394"/>
			<point x="777" y="394" type="curve" smooth="yes"/>
			<point x="793" y="394"/>
			<point x="796" y="383"/>
			<point x="793" y="355" type="curve" smooth="yes"/>
			<point x="766" y="106" type="line" smooth="yes"/>
			<point x="757" y="23"/>
			<point x="811" y="-14"/>
			<point x="899" y="-14" type="curve" smooth="yes"/>
			<point x="944" y="-14"/>
			<point x="1025" y="1"/>
			<point x="1069" y="32" type="curve"/>
			<point x="1046" y="109" type="line"/>
			<point x="1032" y="104"/>
			<point x="1019" y="100"/>
			<point x="1003" y="100" type="curve" smooth="yes"/>
			<point x="976" y="100"/>
			<point x="974" y="123"/>
			<point x="976" y="151" type="curve" smooth="yes"/>
			<point x="996" y="405" type="line" smooth="yes"/>
			<point x="1002" y="478"/>
			<point x="962" y="540"/>
			<point x="857" y="540" type="curve" smooth="yes"/>
			<point x="731" y="540"/>
			<point x="695" y="468"/>
			<point x="663" y="357" type="curve" smooth="yes"/>
			<point x="600" y="139" type="line"/>
			<point x="591" y="141" type="line"/>
			<point x="627" y="400" type="line" smooth="yes"/>
			<point x="642" y="506"/>
			<point x="595" y="540"/>
			<point x="505" y="540" type="curve" smooth="yes"/>
			<point x="398" y="540"/>
			<point x="361" y="481"/>
			<point x="329" y="367" type="curve" smooth="yes"/>
			<point x="266" y="139" type="line"/>
			<point x="254" y="141" type="line"/>
			<point x="289" y="422" type="line" smooth="yes"/>
			<point x="299" y="503"/>
			<point x="258" y="540"/>
			<point x="181" y="540" type="curve" smooth="yes"/>
			<point x="116" y="540"/>
			<point x="54" y="526"/>
			<point x="3" y="502" type="curve"/>
			<point x="29" y="414" type="line"/>
			<point x="38" y="417"/>
			<point x="59" y="428"/>
			<point x="74" y="428" type="curve" smooth="yes"/>
			<point x="95" y="428"/>
			<point x="100" y="422"/>
			<point x="99" y="394" type="curve" smooth="yes"/>
			<point x="84" y="0" type="line"/>
			<point x="304" y="0" type="line"/>
			<point x="396" y="296" type="line" smooth="yes"/>
			<point x="419" y="370"/>
			<point x="426" y="394"/>
			<point x="444" y="394" type="curve" smooth="yes"/>
			<point x="465" y="394"/>
			<point x="463" y="375"/>
		</contour>
	</outline>
	<anchor name="bottom" x="517" y="-31"/>
</glyph>
<glyph name="o" format="2">
	<unicode hex="006F"/>
	<advance width="689"/>
	<outline>
		<contour>
			<point x="326" y="-17" type="curve" smooth="yes"/>
			<point x="564" y="-17"/>
			<point x="648" y="131"/>
			<point x="648" y="285" type="curve" smooth="yes"/>
			<point x="648" y="448"/>
			<point x="556" y="544"/>
			<point x="370" y="544" type="curve" smooth="yes"/>
			<point x="136" y="544"/>
			<point x="45" y="406"/>
			<point x="45" y="244" type="curve" smooth="yes"/>
			<point x="45" y="89"/>
			<point x="133" y="-17"/>
		</contour>
		<contour>
			<point x="342" y="80" type="curve" smooth="yes"/>
			<point x="283" y="80"/>
			<point x="269" y="140"/>
			<point x="269" y="240" type="curve" smooth="yes"/>
			<point x="269" y="403"/>
			<point x="300" y="447"/>
			<point x="355" y="447" type="curve" smooth="yes"/>
			<point x="419" y="447"/>
			<point x="426" y="378"/>
			<point x="426" y="283" type="curve" smooth="yes"/>
			<point x="426" y="180"/>
			<point x="421" y="80"/>
		</contour>
	</outline>
	<anchor name="bottom" x="328" y="-31"/>
	<anchor name="top" x="359" y="561"/>
</glyph>
<glyph name="p" format="2">
	<unicode hex="0070"/>
	<advance width="750"/>
	<outline>
		<contour>
			<point x="98" y="372" type="curve" smooth="yes"/>
			<point x="85" y="65" type="line"/>
			<point x="55" y="-200" type="line"/>
			<point x="80" y="-227" type="line"/>
			<point x="353" y="-230" type="line"/>
			<point x="363" y="-153" type="line"/>
			<point x="253" y="-132" type="line"/>
			<point x="267" y="9" type="line"/>
			<point x="295" y="-3"/>
			<point x="342" y="-14"/>
			<point x="392" y="-14" type="curve" smooth="yes"/>
			<point x="619" y="-14"/>
			<point x="711" y="158"/>
			<point x="711" y="321" type="curve" smooth="yes"/>
			<point x="711" y="465"/>
			<point x="630" y="541"/>
			<point x="512" y="541" type="curve" smooth="yes"/>
			<point x="367" y="541"/>
			<point x="340" y="444"/>
			<point x="309" y="344" type="curve" smooth="yes"/>
			<point x="274" y="232" type="line"/>
			<point x="261" y="235" type="line"/>
			<point x="289" y="420" type="line" smooth="yes"/>
			<point x="301" y="498"/>
			<point x="263" y="541"/>
			<point x="191" y="541" type="curve" smooth="yes"/>
			<point x="124" y="541"/>
			<point x="44" y="520"/>
			<point x="3" y="500" type="curve"/>
			<point x="24" y="417" type="line"/>
			<point x="35" y="421"/>
			<point x="60" y="427"/>
			<point x="73" y="427" type="curve" smooth="yes"/>
			<point x="99" y="427"/>
			<point x="99" y="407"/>
		</contour>
		<contour>
			<point x="454" y="437" type="curve" smooth="yes"/>
			<point x="479" y="437"/>
			<point x="493" y="424"/>
			<point x="493" y="353" type="curve" smooth="yes"/>
			<point x="493" y="211"/>
			<point x="456" y="72"/>
			<point x="367" y="72" type="curve" smooth="yes"/>
			<point x="350" y="72"/>
			<point x="331" y="74"/>
			<point x="313" y="82" type="curve"/>
			<point x="376" y="298" type="line" smooth="yes"/>
			<point x="410" y="413"/>
			<point x="424" y="437"/>
		</contour>
	</outline>
</glyph>
<glyph name="v" format="2">
	<unicode hex="0076"/>
	<advance width="637"/>
	<outline>
		<contour>
			<point x="491" y="541" type="curve" smooth="yes"/>
			<point x="432" y="541"/>
			<point x="386" y="509"/>
			<point x="399" y="425" type="curve"/>
			<point x="443" y="410" type="line" smooth="yes"/>
			<point x="469" y="401"/>
			<point x="480" y="395"/>
			<point x="480" y="361" type="curve" smooth="yes"/>
			<point x="480" y="246"/>
			<point x="409" y="108"/>
			<point x="337" y="108" type="curve" smooth="yes"/>
			<point x="290" y="108"/>
			<point x="288" y="132"/>
			<point x="291" y="179" type="curve" smooth="yes"/>
			<point x="309" y="429" type="line" smooth="yes"/>
			<point x="314" y="501"/>
			<point x="279" y="541"/>
			<point x="194" y="541" type="curve" smooth="yes"/>
			<point x="115" y="541"/>
			<point x="47" y="518"/>
			<point x="8" y="499" type="curve"/>
			<point x="34" y="414" type="line"/>
			<point x="63" y="421" type="line" smooth="yes"/>
			<point x="95" y="429"/>
			<point x="102" y="412"/>
			<point x="100" y="386" type="curve" smooth="yes"/>
			<point x="86" y="152" type="line" smooth="yes"/>
			<point x="78" y="18"/>
			<point x="168" y="-14"/>
			<point x="263" y="-14" type="curve" smooth="yes"/>
			<point x="512" y="-14"/>
			<point x="598" y="272"/>
			<point x="598" y="423" type="curve" smooth="yes"/>
			<point x="598" y="498"/>
			<point x="558" y="541"/>
		</contour>
	</outline>
	<anchor name="top" x="354" y="561"/>
</glyph>
<glyph name="w" format="2">
	<unicode hex="0077"/>
	<advance width="938"/>
	<outline>
		<contour>
			<point x="603" y="528" type="curve"/>
			<point x="417" y="513" type="line"/>
			<point x="426" y="446"/>
			<point x="429" y="410"/>
			<point x="429" y="343" type="curve" smooth="yes"/>
			<point x="429" y="202"/>
			<point x="410" y="109"/>
			<point x="331" y="109" type="curve" smooth="yes"/>
			<point x="288" y="109"/>
			<point x="289" y="146"/>
			<point x="294" y="225" type="curve" smooth="yes"/>
			<point x="308" y="434" type="line" smooth="yes"/>
			<point x="313" y="508"/>
			<point x="267" y="541"/>
			<point x="190" y="541" type="curve" smooth="yes"/>
			<point x="132" y="541"/>
			<point x="53" y="520"/>
			<point x="8" y="496" type="curve"/>
			<point x="34" y="410" type="line"/>
			<point x="60" y="418" type="line" smooth="yes"/>
			<point x="89" y="427"/>
			<point x="101" y="420"/>
			<point x="100" y="397" type="curve" smooth="yes"/>
			<point x="87" y="152" type="line" smooth="yes"/>
			<point x="79" y="4"/>
			<point x="192" y="-14"/>
			<point x="266" y="-14" type="curve" smooth="yes"/>
			<point x="360" y="-14"/>
			<point x="426" y="27"/>
			<point x="466" y="89" type="curve"/>
			<point x="477" y="10"/>
			<point x="542" y="-14"/>
			<point x="592" y="-14" type="curve" smooth="yes"/>
			<point x="796" y="-14"/>
			<point x="894" y="253"/>
			<point x="894" y="412" type="curve" smooth="yes"/>
			<point x="894" y="491"/>
			<point x="859" y="541"/>
			<point x="779" y="541" type="curve" smooth="yes"/>
			<point x="725" y="541"/>
			<point x="682" y="503"/>
			<point x="695" y="420" type="curve"/>
			<point x="736" y="406" type="line" smooth="yes"/>
			<point x="762" y="397"/>
			<point x="778" y="390"/>
			<point x="778" y="347" type="curve" smooth="yes"/>
			<point x="778" y="248"/>
			<point x="712" y="109"/>
			<point x="633" y="109" type="curve" smooth="yes"/>
			<point x="591" y="109"/>
			<point x="591" y="126"/>
			<point x="606" y="228" type="curve" smooth="yes"/>
			<point x="614" y="280"/>
			<point x="618" y="329"/>
			<point x="618" y="370" type="curve" smooth="yes"/>
			<point x="618" y="436"/>
			<point x="613" y="485"/>
		</contour>
	</outline>
	<anchor name="top" x="496" y="561"/>
</glyph>
<glyph name="x" format="2">
	<unicode hex="0078"/>
	<advance width="668"/>
	<outline>
		<contour>
			<point x="407" y="351" type="line"/>
			<point x="350" y="458" type="line" smooth="yes"/>
			<point x="318" y="518"/>
			<point x="278" y="541"/>
			<point x="204" y="541" type="curve" smooth="yes"/>
			<point x="135" y="541"/>
			<point x="57" y="514"/>
			<point x="31" y="502" type="curve"/>
			<point x="62" y="414" type="line"/>
			<point x="81" y="420"/>
			<point x="96" y="424"/>
			<point x="111" y="424" type="curve" smooth="yes"/>
			<point x="131" y="424"/>
			<point x="142" y="409"/>
			<point x="153" y="389" type="curve" smooth="yes"/>
			<point x="226" y="253" type="line"/>
			<point x="160" y="213" type="line" smooth="yes"/>
			<point x="69" y="158"/>
			<point x="32" y="118"/>
			<point x="32" y="62" type="curve" smooth="yes"/>
			<point x="32" y="22"/>
			<point x="66" y="-16"/>
			<point x="122" y="-16" type="curve" smooth="yes"/>
			<point x="187" y="-16"/>
			<point x="220" y="22"/>
			<point x="224" y="62" type="curve"/>
			<point x="195" y="71" type="line" smooth="yes"/>
			<point x="162" y="81"/>
			<point x="155" y="109"/>
			<point x="208" y="146" type="curve" smooth="yes"/>
			<point x="257" y="180" type="line"/>
			<point x="310" y="85" type="line" smooth="yes"/>
			<point x="352" y="9"/>
			<point x="393" y="-12"/>
			<point x="475" y="-12" type="curve" smooth="yes"/>
			<point x="547" y="-12"/>
			<point x="617" y="15"/>
			<point x="654" y="37" type="curve"/>
			<point x="618" y="118" type="line"/>
			<point x="604" y="112"/>
			<point x="590" y="107"/>
			<point x="572" y="107" type="curve" smooth="yes"/>
			<point x="543" y="107"/>
			<point x="530" y="126"/>
			<point x="518" y="146" type="curve" smooth="yes"/>
			<point x="440" y="278" type="line"/>
			<point x="518" y="329" type="line" smooth="yes"/>
			<point x="570" y="363"/>
			<point x="634" y="401"/>
			<point x="634" y="462" type="curve" smooth="yes"/>
			<point x="634" y="500"/>
			<point x="607" y="541"/>
			<point x="541" y="541" type="curve" smooth="yes"/>
			<point x="491" y="541"/>
			<point x="442" y="517"/>
			<point x="435" y="450" type="curve"/>
			<point x="463" y="434" type="line" smooth="yes"/>
			<point x="488" y="420"/>
			<point x="483" y="406"/>
			<point x="454" y="385" type="curve" smooth="yes"/>
		</contour>
	</outline>
</glyph>
<glyph name="z" format="2">
	<unicode hex="007A"/>
	<advance width="600"/>
	<outline>
		<contour>
			<point x="89" y="527" type="line"/>
			<point x="78" y="516" type="line"/>
			<point x="57" y="302" type="line"/>
			<point x="154" y="305" type="line"/>
			<point x="174" y="377"/>
			<point x="187" y="384"/>
			<point x="240" y="384" type="curve" smooth="yes"/>
			<point x="377" y="384" type="line"/>
			<point x="32" y="78" type="line"/>
			<point x="83" y="-13" type="line"/>
			<point x="106" y="-3"/>
			<point x="137" y="9"/>
			<point x="185" y="9" type="curve" smooth="yes"/>
			<point x="261" y="9"/>
			<point x="429" y="-40"/>
			<point x="533" y="0" type="curve"/>
			<point x="573" y="234" type="line"/>
			<point x="479" y="234" type="line"/>
			<point x="451" y="160"/>
			<point x="436" y="140"/>
			<point x="400" y="140" type="curve" smooth="yes"/>
			<point x="358" y="140"/>
			<point x="335" y="147"/>
			<point x="296" y="147" type="curve" smooth="yes"/>
			<point x="272" y="147"/>
			<point x="242" y="140"/>
			<point x="206" y="126" type="curve"/>
			<point x="566" y="447" type="line"/>
			<point x="546" y="527" type="line"/>
		</contour>
	</outline>
	<anchor name="bottom" x="278" y="-31"/>
	<anchor name="top" x="313" y="561"/>
</glyph>
<glyph name="cent" format="2">
	<unicode hex="00A2"/>
	<advance width="618"/>
	<outline>
		<contour>
			<point x="245" y="-37" type="line"/>
			<point x="330" y="-37" type="line"/>
			<point x="341" y="32" type="line"/>
			<point x="351" y="33"/>
			<point x="360" y="34"/>
			<point x="369" y="35" type="curve" smooth="yes"/>
			<point x="480" y="52"/>
			<point x="544" y="114"/>
			<point x="568" y="143" type="curve"/>
			<point x="504" y="223" type="line"/>
			<point x="467" y="191"/>
			<point x="422" y="157"/>
			<point x="368" y="157" type="curve" smooth="yes"/>
			<point x="366" y="157"/>
			<point x="364" y="157"/>
			<point x="362" y="157" type="curve"/>
			<point x="417" y="488" type="line"/>
			<point x="433" y="477"/>
			<point x="438" y="456"/>
			<point x="418" y="431" type="curve" smooth="yes"/>
			<point x="391" y="397" type="line"/>
			<point x="407" y="359"/>
			<point x="453" y="342"/>
			<point x="488" y="342" type="curve" smooth="yes"/>
			<point x="544" y="342"/>
			<point x="584" y="381"/>
			<point x="584" y="434" type="curve" smooth="yes"/>
			<point x="584" y="515"/>
			<point x="521" y="566"/>
			<point x="433" y="581" type="curve"/>
			<point x="445" y="656" type="line"/>
			<point x="359" y="656" type="line"/>
			<point x="347" y="585" type="line"/>
			<point x="140" y="576"/>
			<point x="46" y="442"/>
			<point x="46" y="276" type="curve" smooth="yes"/>
			<point x="46" y="135"/>
			<point x="137" y="54"/>
			<point x="257" y="35" type="curve"/>
		</contour>
		<contour>
			<point x="284" y="201" type="line"/>
			<point x="274" y="221"/>
			<point x="270" y="248"/>
			<point x="270" y="280" type="curve" smooth="yes"/>
			<point x="270" y="351"/>
			<point x="286" y="436"/>
			<point x="329" y="475" type="curve"/>
		</contour>
	</outline>
</glyph>
<glyph name="sterling" format="2">
	<unicode hex="00A3"/>
	<advance width="762"/>
	<outline>
		<contour>
			<point x="92" y="62" type="curve"/>
			<point x="133" y="-14" type="line"/>
			<point x="180" y="17"/>
			<point x="246" y="36"/>
			<point x="309" y="36" type="curve" smooth="yes"/>
			<point x="361" y="36"/>
			<point x="413" y="27"/>
			<point x="454" y="13" type="curve" smooth="yes"/>
			<point x="496" y="-1"/>
			<point x="535" y="-14"/>
			<point x="580" y="-14" type="curve" smooth="yes"/>
			<point x="658" y="-14"/>
			<point x="707" y="29"/>
			<point x="707" y="120" type="curve" smooth="yes"/>
			<point x="707" y="190"/>
			<point x="668" y="250"/>
			<point x="565" y="273" type="curve"/>
			<point x="536" y="202" type="line"/>
			<point x="577" y="189"/>
			<point x="598" y="173"/>
			<point x="598" y="139" type="curve" smooth="yes"/>
			<point x="598" y="108"/>
			<point x="576" y="88"/>
			<point x="551" y="88" type="curve" smooth="yes"/>
			<point x="532" y="88"/>
			<point x="503" y="98"/>
			<point x="470" y="108" type="curve" smooth="yes"/>
			<point x="449" y="114"/>
			<point x="404" y="124"/>
			<point x="373" y="127" type="curve"/>
			<point x="362" y="170"/>
			<point x="370" y="249"/>
			<point x="369" y="314" type="curve"/>
			<point x="530" y="314" type="line"/>
			<point x="534" y="397" type="line"/>
			<point x="364" y="397" type="line"/>
			<point x="362" y="422"/>
			<point x="361" y="442"/>
			<point x="361" y="470" type="curve" smooth="yes"/>
			<point x="361" y="568"/>
			<point x="387" y="612"/>
			<point x="445" y="612" type="curve" smooth="yes"/>
			<point x="509" y="612"/>
			<point x="533" y="572"/>
			<point x="503" y="513" type="curve" smooth="yes"/>
			<point x="484" y="476" type="line"/>
			<point x="510" y="448"/>
			<point x="555" y="431"/>
			<point x="593" y="431" type="curve" smooth="yes"/>
			<point x="645" y="431"/>
			<point x="687" y="470"/>
			<point x="687" y="525" type="curve" smooth="yes"/>
			<point x="687" y="634"/>
			<point x="592" y="715"/>
			<point x="418" y="715" type="curve" smooth="yes"/>
			<point x="248" y="715"/>
			<point x="125" y="605"/>
			<point x="125" y="459" type="curve" smooth="yes"/>
			<point x="125" y="433"/>
			<point x="127" y="420"/>
			<point x="132" y="397" type="curve"/>
			<point x="64" y="397" type="line"/>
			<point x="57" y="314" type="line"/>
			<point x="152" y="314" type="line"/>
			<point x="179" y="255"/>
			<point x="219" y="197"/>
			<point x="271" y="130" type="curve"/>
			<point x="209" y="127"/>
			<point x="148" y="105"/>
		</contour>
	</outline>
</glyph>
<glyph name="currency" format="2">
	<unicode hex="00A4"/>
	<advance width="653"/>
	<outline>
		<contour>
			<point x="101" y="318" type="curve" smooth="yes"/>
			<point x="101" y="286"/>
			<point x="105" y="253"/>
			<point x="129" y="216" type="curve"/>
			<point x="60" y="139" type="line"/>
			<point x="135" y="61" type="line"/>
			<point x="236" y="135" type="line"/>
			<point x="256" y="130"/>
			<point x="286" y="125"/>
			<point x="329" y="125" type="curve" smooth="yes"/>
			<point x="356" y="125"/>
			<point x="389" y="128"/>
			<point x="423" y="138" type="curve"/>
			<point x="520" y="60" type="line"/>
			<point x="601" y="138" type="line"/>
			<point x="536" y="217" type="line"/>
			<point x="557" y="243"/>
			<point x="573" y="278"/>
			<point x="573" y="318" type="curve" smooth="yes"/>
			<point x="573" y="359"/>
			<point x="564" y="386"/>
			<point x="547" y="416" type="curve"/>
			<point x="615" y="496" type="line"/>
			<point x="540" y="571" type="line"/>
			<point x="439" y="497" type="line"/>
			<point x="413" y="503"/>
			<point x="381" y="509"/>
			<point x="348" y="509" type="curve" smooth="yes"/>
			<point x="311" y="509"/>
			<point x="271" y="504"/>
			<point x="243" y="498" type="curve"/>
			<point x="153" y="570" type="line"/>
			<point x="72" y="493" type="line"/>
			<point x="135" y="414" type="line"/>
			<point x="114" y="381"/>
			<point x="101" y="352"/>
		</contour>
		<contour>
			<point x="292" y="318" type="curve" smooth="yes"/>
			<point x="292" y="393"/>
			<point x="322" y="415"/>
			<point x="344" y="415" type="curve" smooth="yes"/>
			<point x="370" y="415"/>
			<point x="384" y="383"/>
			<point x="384" y="318" type="curve" smooth="yes"/>
			<point x="384" y="258"/>
			<point x="369" y="217"/>
			<point x="333" y="217" type="curve" smooth="yes"/>
			<point x="305" y="217"/>
			<point x="292" y="255"/>
		</contour>
	</outline>
</glyph>
<glyph name="yen" format="2">
	<unicode hex="00A5"/>
	<advance width="804"/>
	<outline>
		<contour>
			<point x="176" y="0" type="line"/>
			<point x="596" y="0" type="line"/>
			<point x="602" y="93" type="line"/>
			<point x="504" y="106" type="line"/>
			<point x="510" y="215" type="line"/>
			<point x="715" y="215" type="line"/>
			<point x="723" y="300" type="line"/>
			<point x="540" y="300" type="line"/>
			<point x="540" y="300" type="line"/>
			<point x="575" y="350" type="line"/>
			<point x="728" y="350" type="line"/>
			<point x="736" y="437" type="line"/>
			<point x="634" y="437" type="line"/>
			<point x="741" y="592" type="line"/>
			<point x="825" y="609" type="line"/>
			<point x="832" y="700" type="line"/>
			<point x="538" y="700" type="line"/>
			<point x="532" y="613" type="line"/>
			<point x="620" y="595" type="line"/>
			<point x="459" y="366" type="line"/>
			<point x="454" y="366" type="line"/>
			<point x="319" y="597" type="line"/>
			<point x="416" y="610" type="line"/>
			<point x="422" y="700" type="line"/>
			<point x="28" y="700" type="line"/>
			<point x="21" y="609" type="line"/>
			<point x="86" y="595" type="line"/>
			<point x="182" y="437" type="line"/>
			<point x="80" y="437" type="line"/>
			<point x="72" y="352" type="line"/>
			<point x="234" y="352" type="line"/>
			<point x="266" y="300" type="line"/>
			<point x="266" y="300" type="line"/>
			<point x="69" y="300" type="line"/>
			<point x="61" y="215" type="line"/>
			<point x="282" y="215" type="line"/>
			<point x="275" y="106" type="line"/>
			<point x="183" y="93" type="line"/>
		</contour>
	</outline>
</glyph>
<glyph name="section" format="2">
	<unicode hex="00A7"/>
	<advance width="749"/>
	<outline>
		<contour>
			<point x="676" y="323" type="curve" smooth="yes"/>
			<point x="676" y="498"/>
			<point x="318" y="483"/>
			<point x="318" y="578" type="curve" smooth="yes"/>
			<point x="318" y="617"/>
			<point x="356" y="634"/>
			<point x="410" y="634" type="curve" smooth="yes"/>
			<point x="466" y="634"/>
			<point x="497" y="609"/>
			<point x="478" y="573" type="curve" smooth="yes"/>
			<point x="462" y="542" type="line"/>
			<point x="479" y="526"/>
			<point x="505" y="512"/>
			<point x="538" y="512" type="curve" smooth="yes"/>
			<point x="581" y="512"/>
			<point x="621" y="536"/>
			<point x="621" y="586" type="curve" smooth="yes"/>
			<point x="621" y="648"/>
			<point x="546" y="715"/>
			<point x="412" y="715" type="curve" smooth="yes"/>
			<point x="246" y="715"/>
			<point x="148" y="646"/>
			<point x="148" y="517" type="curve" smooth="yes"/>
			<point x="148" y="289"/>
			<point x="568" y="335"/>
			<point x="549" y="205" type="curve"/>
			<point x="629" y="189" type="line"/>
			<point x="639" y="204"/>
			<point x="676" y="258"/>
		</contour>
		<contour>
			<point x="79" y="235" type="curve"/>
			<point x="80" y="63"/>
			<point x="452" y="90"/>
			<point x="452" y="-9" type="curve" smooth="yes"/>
			<point x="452" y="-46"/>
			<point x="420" y="-72"/>
			<point x="362" y="-72" type="curve" smooth="yes"/>
			<point x="310" y="-72"/>
			<point x="263" y="-50"/>
			<point x="284" y="-13" type="curve" smooth="yes"/>
			<point x="303" y="21" type="line"/>
			<point x="285" y="37"/>
			<point x="257" y="54"/>
			<point x="223" y="54" type="curve" smooth="yes"/>
			<point x="171" y="54"/>
			<point x="141" y="17"/>
			<point x="141" y="-28" type="curve" smooth="yes"/>
			<point x="141" y="-86"/>
			<point x="206" y="-154"/>
			<point x="360" y="-154" type="curve" smooth="yes"/>
			<point x="529" y="-154"/>
			<point x="610" y="-60"/>
			<point x="610" y="44" type="curve" smooth="yes"/>
			<point x="610" y="288"/>
			<point x="218" y="212"/>
			<point x="218" y="359" type="curve"/>
			<point x="140" y="370" type="line"/>
			<point x="122" y="347"/>
			<point x="79" y="300"/>
		</contour>
	</outline>
</glyph>
<glyph name="copyright" format="2">
	<unicode hex="00A9"/>
	<advance width="919"/>
	<outline>
		<contour>
			<point x="463" y="-12" type="curve" smooth="yes"/>
			<point x="706" y="-12"/>
			<point x="862" y="138"/>
			<point x="862" y="352" type="curve" smooth="yes"/>
			<point x="862" y="558"/>
			<point x="718" y="685"/>
			<point x="476" y="685" type="curve" smooth="yes"/>
			<point x="255" y="685"/>
			<point x="79" y="552"/>
			<point x="79" y="325" type="curve" smooth="yes"/>
			<point x="79" y="136"/>
			<point x="191" y="-12"/>
		</contour>
		<contour>
			<point x="461" y="131" type="curve" smooth="yes"/>
			<point x="542" y="131"/>
			<point x="592" y="174"/>
			<point x="623" y="212" type="curve"/>
			<point x="583" y="257" type="line"/>
			<point x="557" y="236"/>
			<point x="528" y="213"/>
			<point x="482" y="213" type="curve" smooth="yes"/>
			<point x="412" y="213"/>
			<point x="383" y="271"/>
			<point x="383" y="334" type="curve" smooth="yes"/>
			<point x="383" y="447"/>
			<point x="432" y="477"/>
			<point x="488" y="477" type="curve" smooth="yes"/>
			<point x="540" y="477"/>
			<point x="557" y="456"/>
			<point x="539" y="425" type="curve" smooth="yes"/>
			<point x="528" y="406" type="line"/>
			<point x="541" y="393"/>
			<point x="565" y="379"/>
			<point x="588" y="379" type="curve" smooth="yes"/>
			<point x="633" y="379"/>
			<point x="643" y="411"/>
			<point x="643" y="437" type="curve" smooth="yes"/>
			<point x="643" y="486"/>
			<point x="587" y="546"/>
			<point x="479" y="546" type="curve" smooth="yes"/>
			<point x="367" y="546"/>
			<point x="270" y="472"/>
			<point x="270" y="329" type="curve" smooth="yes"/>
			<point x="270" y="207"/>
			<point x="341" y="131"/>
		</contour>
		<contour>
			<point x="472" y="78" type="curve" smooth="yes"/>
			<point x="259" y="78"/>
			<point x="182" y="190"/>
			<point x="182" y="333" type="curve" smooth="yes"/>
			<point x="182" y="517"/>
			<point x="320" y="605"/>
			<point x="474" y="605" type="curve" smooth="yes"/>
			<point x="666" y="605"/>
			<point x="754" y="501"/>
			<point x="754" y="348" type="curve" smooth="yes"/>
			<point x="754" y="170"/>
			<point x="629" y="78"/>
		</contour>
	</outline>
</glyph>
<glyph name="ordfeminine" format="2">
	<unicode hex="00AA"/>
	<advance width="561"/>
	<outline>
		<contour>
			<point x="500" y="485" type="curve" smooth="yes"/>
			<point x="509" y="735" type="line"/>
			<point x="455" y="744" type="line"/>
			<point x="391" y="724" type="line"/>
			<point x="366" y="732"/>
			<point x="331" y="742"/>
			<point x="287" y="742" type="curve" smooth="yes"/>
			<point x="144" y="742"/>
			<point x="65" y="649"/>
			<point x="65" y="516" type="curve" smooth="yes"/>
			<point x="65" y="427"/>
			<point x="98" y="362"/>
			<point x="193" y="362" type="curve" smooth="yes"/>
			<point x="298" y="362"/>
			<point x="326" y="430"/>
			<point x="344" y="489" type="curve" smooth="yes"/>
			<point x="367" y="566" type="line"/>
			<point x="381" y="566" type="line"/>
			<point x="372" y="445" type="line" smooth="yes"/>
			<point x="367" y="384"/>
			<point x="407" y="362"/>
			<point x="446" y="362" type="curve" smooth="yes"/>
			<point x="477" y="362"/>
			<point x="533" y="376"/>
			<point x="567" y="406" type="curve"/>
			<point x="550" y="462" type="line"/>
			<point x="540" y="458"/>
			<point x="530" y="454"/>
			<point x="520" y="454" type="curve" smooth="yes"/>
			<point x="503" y="454"/>
			<point x="499" y="463"/>
		</contour>
		<contour>
			<point x="241" y="441" type="curve" smooth="yes"/>
			<point x="225" y="441"/>
			<point x="212" y="457"/>
			<point x="212" y="497" type="curve" smooth="yes"/>
			<point x="212" y="578"/>
			<point x="238" y="673"/>
			<point x="300" y="673" type="curve" smooth="yes"/>
			<point x="317" y="673"/>
			<point x="330" y="670"/>
			<point x="343" y="664" type="curve"/>
			<point x="327" y="604" type="line" smooth="yes"/>
			<point x="289" y="460"/>
			<point x="270" y="441"/>
		</contour>
	</outline>
</glyph>
<glyph name="softhyphen" format="2">
	<unicode hex="00AD"/>
	<advance width="453"/>
	<outline>
		<contour>
			<point x="47" y="329" type="line"/>
			<point x="42" y="212" type="line"/>
			<point x="406" y="212" type="line"/>
			<point x="411" y="329" type="line"/>
		</contour>
	</outline>
</glyph>
<glyph name="registered" format="2">
	<unicode hex="00AE"/>
	<advance width="555"/>
	<outline>
		<contour>
			<point x="293" y="381" type="curve" smooth="yes"/>
			<point x="424" y="381"/>
			<point x="522" y="466"/>
			<point x="522" y="590" type="curve" smooth="yes"/>
			<point x="522" y="712"/>
			<point x="435" y="794"/>
			<point x="292" y="794" type="curve" smooth="yes"/>
			<point x="174" y="794"/>
			<point x="63" y="723"/>
			<point x="63" y="585" type="curve" smooth="yes"/>
			<point x="63" y="481"/>
			<point x="131" y="381"/>
		</contour>
		<contour>
			<point x="388" y="470" type="curve" smooth="yes"/>
			<point x="342" y="470"/>
			<point x="329" y="489"/>
			<point x="315" y="539" type="curve" smooth="yes"/>
			<point x="306" y="572"/>
			<point x="299" y="579"/>
			<point x="283" y="581" type="curve"/>
			<point x="287" y="617" type="line"/>
			<point x="292" y="617" type="line" smooth="yes"/>
			<point x="309" y="617"/>
			<point x="328" y="626"/>
			<point x="328" y="654" type="curve" smooth="yes"/>
			<point x="328" y="676"/>
			<point x="307" y="679"/>
			<point x="291" y="679" type="curve" smooth="yes"/>
			<point x="266" y="679" type="line"/>
			<point x="260" y="517" type="line"/>
			<point x="293" y="512" type="line"/>
			<point x="291" y="479" type="line"/>
			<point x="154" y="479" type="line"/>
			<point x="156" y="512" type="line"/>
			<point x="189" y="516" type="line"/>
			<point x="196" y="679" type="line"/>
			<point x="165" y="683" type="line"/>
			<point x="171" y="713" type="line"/>
			<point x="300" y="713" type="line" smooth="yes"/>
			<point x="348" y="713"/>
			<point x="403" y="709"/>
			<point x="403" y="660" type="curve" smooth="yes"/>
			<point x="403" y="602"/>
			<point x="342" y="601"/>
			<point x="327" y="601" type="curve"/>
			<point x="327" y="598" type="line"/>
			<point x="363" y="594"/>
			<point x="377" y="582"/>
			<point x="387" y="552" type="curve" smooth="yes"/>
			<point x="397" y="522"/>
			<point x="402" y="516"/>
			<point x="418" y="516" type="curve" smooth="yes"/>
			<point x="426" y="516"/>
			<point x="431" y="517"/>
			<point x="440" y="521" type="curve"/>
			<point x="446" y="488" type="line"/>
			<point x="430" y="477"/>
			<point x="403" y="470"/>
		</contour>
	</outline>
</glyph>
<glyph name="plusminus" format="2">
	<unicode hex="00B1"/>
	<advance width="602"/>
	<outline>
		<contour>
			<point x="219" y="205" type="line"/>
			<point x="378" y="205" type="line"/>
			<point x="382" y="320" type="line"/>
			<point x="522" y="320" type="line"/>
			<point x="528" y="475" type="line"/>
			<point x="387" y="475" type="line"/>
			<point x="391" y="587" type="line"/>
			<point x="232" y="587" type="line"/>
			<point x="228" y="475" type="line"/>
			<point x="88" y="475" type="line"/>
			<point x="82" y="320" type="line"/>
			<point x="223" y="320" type="line"/>
		</contour>
		<contour>
			<point x="64" y="1" type="line"/>
			<point x="512" y="1" type="line"/>
			<point x="520" y="156" type="line"/>
			<point x="72" y="156" type="line"/>
		</contour>
	</outline>
</glyph>
<glyph name="cedilla" format="2">
	<unicode hex="00B8"/>
	<advance width="500"/>
	<outline>
		<contour>
			<point x="300" y="13" type="line"/>
			<point x="213" y="13" type="line"/>
			<point x="173" y="-91" type="line"/>
			<point x="187" y="-112" type="line"/>
			<point x="225" y="-103"/>
			<point x="261" y="-107"/>
			<point x="261" y="-133" type="curve" smooth="yes"/>
			<point x="261" y="-161"/>
			<point x="232" y="-167"/>
			<point x="202" y="-167" type="curve" smooth="yes"/>
			<point x="177" y="-167"/>
			<point x="156" y="-164"/>
			<point x="132" y="-158" type="curve"/>
			<point x="108" y="-225" type="line"/>
			<point x="134" y="-240"/>
			<point x="188" y="-252"/>
			<point x="230" y="-252" type="curve" smooth="yes"/>
			<point x="351" y="-252"/>
			<point x="399" y="-190"/>
			<point x="399" y="-133" type="curve" smooth="yes"/>
			<point x="399" y="-55"/>
			<point x="309" y="-44"/>
			<point x="276" y="-42" type="curve"/>
		</contour>
	</outline>
	<anchor name="_bottom" x="248" y="-30"/>
</glyph>
<glyph name="onesuperior" format="2">
	<unicode hex="00B9"/>
	<advance width="434"/>
	<outline>
		<contour>
			<point x="324" y="467" type="line"/>
			<point x="344" y="827" type="line"/>
			<point x="326" y="836" type="line"/>
			<point x="81" y="820" type="line"/>
			<point x="71" y="736" type="line"/>
			<point x="176" y="736" type="line"/>
			<point x="161" y="467" type="line"/>
			<point x="62" y="454" type="line"/>
			<point x="59" y="374" type="line"/>
			<point x="419" y="374" type="line"/>
			<point x="421" y="454" type="line"/>
		</contour>
	</outline>
</glyph>
<glyph name="ordmasculine" format="2">
	<unicode hex="00BA"/>
	<advance width="515"/>
	<outline>
		<contour>
			<point x="273" y="362" type="curve" smooth="yes"/>
			<point x="420" y="362"/>
			<point x="492" y="463"/>
			<point x="492" y="570" type="curve" smooth="yes"/>
			<point x="492" y="685"/>
			<point x="426" y="742"/>
			<point x="297" y="742" type="curve" smooth="yes"/>
			<point x="131" y="742"/>
			<point x="68" y="649"/>
			<point x="68" y="540" type="curve" smooth="yes"/>
			<point x="68" y="425"/>
			<point x="142" y="362"/>
		</contour>
		<contour>
			<point x="275" y="443" type="curve" smooth="yes"/>
			<point x="243" y="443"/>
			<point x="222" y="476"/>
			<point x="222" y="528" type="curve" smooth="yes"/>
			<point x="222" y="617"/>
			<point x="246" y="662"/>
			<point x="287" y="662" type="curve" smooth="yes"/>
			<point x="325" y="662"/>
			<point x="340" y="630"/>
			<point x="340" y="574" type="curve" smooth="yes"/>
			<point x="340" y="481"/>
			<point x="317" y="443"/>
		</contour>
	</outline>
</glyph>
<glyph name="Eth" format="2">
	<unicode hex="00D0"/>
	<advance width="892"/>
	<outline>
		<contour>
			<point x="451" y="700" type="curve" smooth="yes"/>
			<point x="67" y="700" type="line"/>
			<point x="61" y="611" type="line"/>
			<point x="151" y="594" type="line"/>
			<point x="142" y="412" type="line"/>
			<point x="37" y="412" type="line"/>
			<point x="30" y="293" type="line"/>
			<point x="136" y="293" type="line"/>
			<point x="126" y="107" type="line"/>
			<point x="34" y="94" type="line"/>
			<point x="28" y="0" type="line"/>
			<point x="357" y="0" type="line" smooth="yes"/>
			<point x="666" y="0"/>
			<point x="853" y="146"/>
			<point x="853" y="390" type="curve" smooth="yes"/>
			<point x="853" y="583"/>
			<point x="697" y="700"/>
		</contour>
		<contour>
			<point x="367" y="105" type="curve" smooth="yes"/>
			<point x="355" y="105" type="line"/>
			<point x="364" y="293" type="line"/>
			<point x="477" y="293" type="line"/>
			<point x="484" y="412" type="line"/>
			<point x="370" y="412" type="line"/>
			<point x="380" y="601" type="line"/>
			<point x="403" y="601" type="line" smooth="yes"/>
			<point x="541" y="601"/>
			<point x="618" y="534"/>
			<point x="618" y="387" type="curve" smooth="yes"/>
			<point x="618" y="201"/>
			<point x="515" y="105"/>
		</contour>
	</outline>
	<anchor name="bottom" x="403" y="-30"/>
	<anchor name="top" x="444" y="730"/>
</glyph>
<glyph name="multiply" format="2">
	<unicode hex="00D7"/>
	<advance width="629"/>
	<outline>
		<contour>
			<point x="417" y="101" type="line"/>
			<point x="537" y="206" type="line"/>
			<point x="431" y="311" type="line"/>
			<point x="544" y="412" type="line"/>
			<point x="434" y="520" type="line"/>
			<point x="321" y="420" type="line"/>
			<point x="218" y="518" type="line"/>
			<point x="98" y="412" type="line"/>
			<point x="200" y="314" type="line"/>
			<point x="87" y="214" type="line"/>
			<point x="198" y="106" type="line"/>
			<point x="310" y="206" type="line"/>
		</contour>
	</outline>
</glyph>
<glyph name="ae" format="2">
	<unicode hex="00E6"/>
	<advance width="943"/>
	<outline>
		<contour>
			<point x="727" y="541" type="curve" smooth="yes"/>
			<point x="671" y="541"/>
			<point x="612" y="523"/>
			<point x="567" y="491" type="curve"/>
			<point x="578" y="541" type="line"/>
			<point x="513" y="560" type="line"/>
			<point x="449" y="521" type="line"/>
			<point x="424" y="532"/>
			<point x="390" y="541"/>
			<point x="344" y="541" type="curve" smooth="yes"/>
			<point x="157" y="541"/>
			<point x="43" y="398"/>
			<point x="43" y="207" type="curve" smooth="yes"/>
			<point x="43" y="69"/>
			<point x="107" y="-14"/>
			<point x="238" y="-14" type="curve" smooth="yes"/>
			<point x="353" y="-14"/>
			<point x="400" y="58"/>
			<point x="433" y="140" type="curve"/>
			<point x="450" y="68"/>
			<point x="525" y="-14"/>
			<point x="664" y="-14" type="curve" smooth="yes"/>
			<point x="727" y="-14"/>
			<point x="835" y="16"/>
			<point x="897" y="88" type="curve"/>
			<point x="842" y="172" type="line"/>
			<point x="802" y="141"/>
			<point x="740" y="119"/>
			<point x="699" y="119" type="curve" smooth="yes"/>
			<point x="629" y="119"/>
			<point x="599" y="157"/>
			<point x="593" y="199" type="curve"/>
			<point x="654" y="215" type="line" smooth="yes"/>
			<point x="798" y="253"/>
			<point x="902" y="290"/>
			<point x="902" y="402" type="curve" smooth="yes"/>
			<point x="902" y="486"/>
			<point x="828" y="541"/>
		</contour>
		<contour>
			<point x="299" y="90" type="curve" smooth="yes"/>
			<point x="266" y="90"/>
			<point x="257" y="114"/>
			<point x="257" y="185" type="curve" smooth="yes"/>
			<point x="257" y="337"/>
			<point x="294" y="455"/>
			<point x="385" y="455" type="curve" smooth="yes"/>
			<point x="404" y="455"/>
			<point x="426" y="450"/>
			<point x="437" y="446" type="curve"/>
			<point x="400" y="317" type="line" smooth="yes"/>
			<point x="354" y="158"/>
			<point x="337" y="90"/>
		</contour>
		<contour>
			<point x="711" y="402" type="curve" smooth="yes"/>
			<point x="711" y="327"/>
			<point x="662" y="317"/>
			<point x="620" y="307" type="curve" smooth="yes"/>
			<point x="589" y="300" type="line"/>
			<point x="599" y="408"/>
			<point x="628" y="452"/>
			<point x="674" y="452" type="curve" smooth="yes"/>
			<point x="694" y="452"/>
			<point x="711" y="441"/>
		</contour>
	</outline>
	<anchor name="top" x="537" y="561"/>
</glyph>
<glyph name="thorn" format="2">
	<unicode hex="00FE"/>
	<advance width="746"/>
	<outline>
		<contour>
			<point x="76" y="-227" type="line"/>
			<point x="349" y="-230" type="line"/>
			<point x="359" y="-153" type="line"/>
			<point x="249" y="-132" type="line"/>
			<point x="263" y="9" type="line"/>
			<point x="291" y="-3"/>
			<point x="338" y="-14"/>
			<point x="388" y="-14" type="curve" smooth="yes"/>
			<point x="615" y="-14"/>
			<point x="707" y="158"/>
			<point x="707" y="321" type="curve" smooth="yes"/>
			<point x="707" y="465"/>
			<point x="626" y="541"/>
			<point x="508" y="541" type="curve" smooth="yes"/>
			<point x="363" y="541"/>
			<point x="336" y="444"/>
			<point x="305" y="343" type="curve" smooth="yes"/>
			<point x="270" y="232" type="line"/>
			<point x="257" y="235" type="line"/>
			<point x="285" y="425" type="line"/>
			<point x="297" y="755" type="line"/>
			<point x="278" y="766" type="line"/>
			<point x="20" y="766" type="line"/>
			<point x="9" y="677" type="line"/>
			<point x="101" y="662" type="line"/>
			<point x="82" y="64" type="line"/>
			<point x="51" y="-200" type="line"/>
		</contour>
		<contour>
			<point x="450" y="437" type="curve" smooth="yes"/>
			<point x="475" y="437"/>
			<point x="489" y="424"/>
			<point x="489" y="353" type="curve" smooth="yes"/>
			<point x="489" y="211"/>
			<point x="452" y="72"/>
			<point x="363" y="72" type="curve" smooth="yes"/>
			<point x="346" y="72"/>
			<point x="327" y="74"/>
			<point x="309" y="82" type="curve"/>
			<point x="372" y="298" type="line" smooth="yes"/>
			<point x="406" y="413"/>
			<point x="420" y="437"/>
		</contour>
	</outline>
</glyph>
<glyph name="Aogonek" format="2">
	<unicode hex="0104"/>
	<advance width="833"/>
	<outline>
		<contour>
			<point x="572" y="-254" type="curve" smooth="yes"/>
			<point x="642" y="-254"/>
			<point x="697" y="-230"/>
			<point x="743" y="-160" type="curve"/>
			<point x="693" y="-121" type="line"/>
			<point x="674" y="-143"/>
			<point x="655" y="-155"/>
			<point x="636" y="-155" type="curve" smooth="yes"/>
			<point x="620" y="-155"/>
			<point x="610" y="-147"/>
			<point x="610" y="-132" type="curve" smooth="yes"/>
			<point x="610" y="-105"/>
			<point x="632" y="-64"/>
			<point x="688" y="0" type="curve"/>
			<point x="823" y="0" type="line"/>
			<point x="829" y="94" type="line"/>
			<point x="754" y="103" type="line"/>
			<point x="561" y="714" type="line"/>
			<point x="334" y="693" type="line"/>
			<point x="93" y="102" type="line"/>
			<point x="22" y="93" type="line"/>
			<point x="12" y="0" type="line"/>
			<point x="304" y="0" type="line"/>
			<point x="311" y="92" type="line"/>
			<point x="226" y="104" type="line"/>
			<point x="262" y="204" type="line"/>
			<point x="487" y="204" type="line"/>
			<point x="512" y="104" type="line"/>
			<point x="436" y="93" type="line"/>
			<point x="427" y="0" type="line"/>
			<point x="595" y="0" type="line"/>
			<point x="494" y="-68"/>
			<point x="457" y="-107"/>
			<point x="457" y="-169" type="curve" smooth="yes"/>
			<point x="457" y="-226"/>
			<point x="515" y="-254"/>
		</contour>
		<contour>
			<point x="291" y="304" type="line"/>
			<point x="396" y="579" type="line"/>
			<point x="400" y="579" type="line"/>
			<point x="463" y="304" type="line"/>
		</contour>
	</outline>
</glyph>
<glyph name="Eogonek" format="2">
	<unicode hex="0118"/>
	<advance width="687"/>
	<outline>
		<contour>
			<point x="28" y="0" type="line"/>
			<point x="487" y="0" type="line"/>
			<point x="361" y="-68"/>
			<point x="328" y="-107"/>
			<point x="328" y="-164" type="curve" smooth="yes"/>
			<point x="328" y="-226"/>
			<point x="386" y="-254"/>
			<point x="443" y="-254" type="curve" smooth="yes"/>
			<point x="513" y="-254"/>
			<point x="568" y="-230"/>
			<point x="614" y="-160" type="curve"/>
			<point x="564" y="-121" type="line"/>
			<point x="545" y="-143"/>
			<point x="526" y="-155"/>
			<point x="507" y="-155" type="curve" smooth="yes"/>
			<point x="491" y="-155"/>
			<point x="481" y="-147"/>
			<point x="481" y="-125" type="curve" smooth="yes"/>
			<point x="481" y="-85"/>
			<point x="537" y="-40"/>
			<point x="624" y="0" type="curve"/>
			<point x="648" y="218" type="line"/>
			<point x="538" y="218" type="line"/>
			<point x="526" y="177" type="line" smooth="yes"/>
			<point x="508" y="114"/>
			<point x="485" y="105"/>
			<point x="426" y="105" type="curve" smooth="yes"/>
			<point x="347" y="105" type="line"/>
			<point x="358" y="302" type="line"/>
			<point x="546" y="302" type="line"/>
			<point x="551" y="416" type="line"/>
			<point x="361" y="416" type="line"/>
			<point x="370" y="596" type="line"/>
			<point x="436" y="596" type="line" smooth="yes"/>
			<point x="493" y="596"/>
			<point x="511" y="581"/>
			<point x="528" y="524" type="curve" smooth="yes"/>
			<point x="539" y="488" type="line"/>
			<point x="643" y="497" type="line"/>
			<point x="628" y="700" type="line"/>
			<point x="61" y="700" type="line"/>
			<point x="55" y="613" type="line"/>
			<point x="139" y="596" type="line"/>
			<point x="116" y="106" type="line"/>
			<point x="37" y="93" type="line"/>
		</contour>
	</outline>
</glyph>
<glyph name="idotless" format="2">
	<unicode hex="0131"/>
	<advance width="406"/>
	<outline>
		<contour>
			<point x="115" y="388" type="curve" smooth="yes"/>
			<point x="95" y="130" type="line" smooth="yes"/>
			<point x="87" y="27"/>
			<point x="125" y="-14"/>
			<point x="226" y="-14" type="curve" smooth="yes"/>
			<point x="284" y="-14"/>
			<point x="368" y="10"/>
			<point x="402" y="32" type="curve"/>
			<point x="382" y="110" type="line"/>
			<point x="364" y="105"/>
			<point x="346" y="100"/>
			<point x="327" y="100" type="curve" smooth="yes"/>
			<point x="303" y="100"/>
			<point x="298" y="119"/>
			<point x="300" y="144" type="curve" smooth="yes"/>
			<point x="320" y="398" type="line" smooth="yes"/>
			<point x="328" y="504"/>
			<point x="265" y="541"/>
			<point x="174" y="541" type="curve" smooth="yes"/>
			<point x="97" y="541"/>
			<point x="32" y="517"/>
			<point x="3" y="502" type="curve"/>
			<point x="31" y="414" type="line"/>
			<point x="56" y="423"/>
			<point x="75" y="428"/>
			<point x="91" y="428" type="curve" smooth="yes"/>
			<point x="109" y="428"/>
			<point x="117" y="413"/>
		</contour>
	</outline>
	<anchor name="bottom" x="195" y="-30"/>
	<anchor name="top" x="179" y="550"/>
</glyph>
<glyph name="kgreenlandic" format="2">
	<unicode hex="0138"/>
	<advance width="689"/>
	<outline>
		<contour>
			<point x="85" y="0" type="line"/>
			<point x="273" y="0" type="line"/>
			<point x="284" y="254" type="line"/>
			<point x="291" y="254"/>
			<point x="297" y="255"/>
			<point x="302" y="256" type="curve"/>
			<point x="381" y="80" type="line" smooth="yes"/>
			<point x="407" y="23"/>
			<point x="450" y="-14"/>
			<point x="525" y="-14" type="curve" smooth="yes"/>
			<point x="599" y="-14"/>
			<point x="670" y="22"/>
			<point x="691" y="40" type="curve"/>
			<point x="663" y="112" type="line"/>
			<point x="647" y="105"/>
			<point x="635" y="102"/>
			<point x="624" y="102" type="curve" smooth="yes"/>
			<point x="602" y="102"/>
			<point x="586" y="115"/>
			<point x="558" y="166" type="curve" smooth="yes"/>
			<point x="478" y="313" type="line"/>
			<point x="501" y="323"/>
			<point x="510" y="327"/>
			<point x="538" y="342" type="curve" smooth="yes"/>
			<point x="594" y="372"/>
			<point x="634" y="398"/>
			<point x="634" y="460" type="curve" smooth="yes"/>
			<point x="634" y="505"/>
			<point x="599" y="542"/>
			<point x="547" y="542" type="curve" smooth="yes"/>
			<point x="489" y="542"/>
			<point x="449" y="508"/>
			<point x="442" y="453" type="curve"/>
			<point x="474" y="433" type="line" smooth="yes"/>
			<point x="495" y="420"/>
			<point x="487" y="404"/>
			<point x="444" y="382" type="curve" smooth="yes"/>
			<point x="392" y="355"/>
			<point x="346" y="342"/>
			<point x="289" y="328" type="curve"/>
			<point x="290" y="431" type="line" smooth="yes"/>
			<point x="291" y="503"/>
			<point x="260" y="541"/>
			<point x="181" y="541" type="curve" smooth="yes"/>
			<point x="111" y="541"/>
			<point x="27" y="514"/>
			<point x="3" y="502" type="curve"/>
			<point x="29" y="416" type="line"/>
			<point x="50" y="423"/>
			<point x="65" y="428"/>
			<point x="78" y="428" type="curve" smooth="yes"/>
			<point x="93" y="428"/>
			<point x="101" y="418"/>
			<point x="100" y="397" type="curve" smooth="yes"/>
		</contour>
	</outline>
</glyph>
<glyph name="eng" format="2">
	<unicode hex="014B"/>
	<advance width="724"/>
	<outline>
		<contour>
			<point x="353" y="-234" type="curve" smooth="yes"/>
			<point x="412" y="-234"/>
			<point x="460" y="-186"/>
			<point x="485" y="-158" type="curve" smooth="yes"/>
			<point x="567" y="-66"/>
			<point x="628" y="11"/>
			<point x="636" y="124" type="curve" smooth="yes"/>
			<point x="655" y="410" type="line" smooth="yes"/>
			<point x="660" y="481"/>
			<point x="614" y="541"/>
			<point x="514" y="541" type="curve" smooth="yes"/>
			<point x="406" y="541"/>
			<point x="358" y="471"/>
			<point x="334" y="383" type="curve" smooth="yes"/>
			<point x="266" y="139" type="line"/>
			<point x="253" y="141" type="line"/>
			<point x="290" y="439" type="line" smooth="yes"/>
			<point x="299" y="507"/>
			<point x="253" y="542"/>
			<point x="178" y="542" type="curve" smooth="yes"/>
			<point x="117" y="542"/>
			<point x="27" y="515"/>
			<point x="3" y="503" type="curve"/>
			<point x="29" y="415" type="line"/>
			<point x="52" y="425"/>
			<point x="64" y="429"/>
			<point x="77" y="429" type="curve" smooth="yes"/>
			<point x="100" y="429"/>
			<point x="98" y="407"/>
			<point x="98" y="397" type="curve" smooth="yes"/>
			<point x="83" y="0" type="line"/>
			<point x="307" y="0" type="line"/>
			<point x="403" y="320" type="line" smooth="yes"/>
			<point x="421" y="381"/>
			<point x="428" y="396"/>
			<point x="446" y="396" type="curve" smooth="yes"/>
			<point x="464" y="396"/>
			<point x="463" y="386"/>
			<point x="462" y="372" type="curve" smooth="yes"/>
			<point x="420" y="-81" type="line" smooth="yes"/>
			<point x="417" y="-112"/>
			<point x="399" y="-119"/>
			<point x="362" y="-104" type="curve" smooth="yes"/>
			<point x="294" y="-77" type="line"/>
			<point x="279" y="-95"/>
			<point x="261" y="-127"/>
			<point x="261" y="-158" type="curve" smooth="yes"/>
			<point x="261" y="-198"/>
			<point x="293" y="-234"/>
		</contour>
	</outline>
</glyph>
<glyph name="OE" format="2">
	<unicode hex="0152"/>
	<advance width="1171"/>
	<outline>
		<contour>
			<point x="58" y="314" type="curve" smooth="yes"/>
			<point x="58" y="137"/>
			<point x="152" y="-14"/>
			<point x="423" y="-14" type="curve" smooth="yes"/>
			<point x="476" y="-14"/>
			<point x="517" y="-9"/>
			<point x="552" y="0" type="curve"/>
			<point x="1106" y="0" type="line"/>
			<point x="1132" y="217" type="line"/>
			<point x="1022" y="217" type="line"/>
			<point x="1007" y="173" type="line" smooth="yes"/>
			<point x="985" y="107"/>
			<point x="947" y="104"/>
			<point x="893" y="104" type="curve" smooth="yes"/>
			<point x="717" y="104" type="line"/>
			<point x="774" y="158"/>
			<point x="803" y="224"/>
			<point x="817" y="302" type="curve"/>
			<point x="1030" y="302" type="line"/>
			<point x="1035" y="416" type="line"/>
			<point x="820" y="416" type="line"/>
			<point x="815" y="497"/>
			<point x="787" y="548"/>
			<point x="740" y="597" type="curve"/>
			<point x="913" y="597" type="line" smooth="yes"/>
			<point x="972" y="597"/>
			<point x="992" y="571"/>
			<point x="1008" y="524" type="curve" smooth="yes"/>
			<point x="1020" y="488" type="line"/>
			<point x="1125" y="500" type="line"/>
			<point x="1110" y="700" type="line"/>
			<point x="592" y="700" type="line"/>
			<point x="554" y="710"/>
			<point x="513" y="715"/>
			<point x="469" y="715" type="curve" smooth="yes"/>
			<point x="252" y="715"/>
			<point x="58" y="609"/>
		</contour>
		<contour>
			<point x="291" y="319" type="curve" smooth="yes"/>
			<point x="291" y="532"/>
			<point x="360" y="608"/>
			<point x="454" y="608" type="curve" smooth="yes"/>
			<point x="555" y="608"/>
			<point x="592" y="539"/>
			<point x="592" y="392" type="curve" smooth="yes"/>
			<point x="592" y="158"/>
			<point x="526" y="98"/>
			<point x="437" y="98" type="curve" smooth="yes"/>
			<point x="331" y="98"/>
			<point x="291" y="161"/>
		</contour>
	</outline>
</glyph>
<glyph name="Scedilla" format="2">
	<unicode hex="015E"/>
	<advance width="668"/>
	<outline>
		<contour>
			<point x="303" y="-249" type="curve" smooth="yes"/>
			<point x="424" y="-249"/>
			<point x="472" y="-187"/>
			<point x="472" y="-130" type="curve" smooth="yes"/>
			<point x="472" y="-52"/>
			<point x="382" y="-41"/>
			<point x="349" y="-39" type="curve"/>
			<point x="362" y="-8" type="line"/>
			<point x="521" y="16"/>
			<point x="633" y="118"/>
			<point x="633" y="247" type="curve" smooth="yes"/>
			<point x="633" y="365"/>
			<point x="560" y="402"/>
			<point x="414" y="455" type="curve" smooth="yes"/>
			<point x="292" y="499"/>
			<point x="259" y="520"/>
			<point x="259" y="553" type="curve" smooth="yes"/>
			<point x="259" y="597"/>
			<point x="304" y="624"/>
			<point x="372" y="624" type="curve" smooth="yes"/>
			<point x="476" y="624"/>
			<point x="465" y="595"/>
			<point x="449" y="563" type="curve" smooth="yes"/>
			<point x="426" y="517" type="line"/>
			<point x="444" y="498"/>
			<point x="484" y="483"/>
			<point x="514" y="483" type="curve" smooth="yes"/>
			<point x="574" y="483"/>
			<point x="615" y="521"/>
			<point x="615" y="572" type="curve" smooth="yes"/>
			<point x="615" y="661"/>
			<point x="527" y="715"/>
			<point x="377" y="715" type="curve" smooth="yes"/>
			<point x="208" y="715"/>
			<point x="70" y="636"/>
			<point x="70" y="494" type="curve" smooth="yes"/>
			<point x="70" y="383"/>
			<point x="126" y="333"/>
			<point x="277" y="285" type="curve" smooth="yes"/>
			<point x="387" y="250"/>
			<point x="430" y="232"/>
			<point x="430" y="180" type="curve" smooth="yes"/>
			<point x="430" y="125"/>
			<point x="371" y="89"/>
			<point x="301" y="89" type="curve" smooth="yes"/>
			<point x="220" y="89"/>
			<point x="213" y="118"/>
			<point x="233" y="151" type="curve" smooth="yes"/>
			<point x="249" y="177" type="line"/>
			<point x="230" y="207"/>
			<point x="190" y="227"/>
			<point x="149" y="227" type="curve" smooth="yes"/>
			<point x="82" y="227"/>
			<point x="39" y="179"/>
			<point x="39" y="125" type="curve" smooth="yes"/>
			<point x="39" y="40"/>
			<point x="135" y="-11"/>
			<point x="275" y="-14" type="curve"/>
			<point x="246" y="-88" type="line"/>
			<point x="260" y="-109" type="line"/>
			<point x="298" y="-100"/>
			<point x="334" y="-104"/>
			<point x="334" y="-130" type="curve" smooth="yes"/>
			<point x="334" y="-158"/>
			<point x="305" y="-164"/>
			<point x="275" y="-164" type="curve" smooth="yes"/>
			<point x="250" y="-164"/>
			<point x="229" y="-161"/>
			<point x="205" y="-155" type="curve"/>
			<point x="181" y="-222" type="line"/>
			<point x="207" y="-237"/>
			<point x="261" y="-249"/>
		</contour>
	</outline>
</glyph>
<glyph name="scedilla" format="2">
	<unicode hex="015F"/>
	<advance width="594"/>
	<outline>
		<contour>
			<point x="257" y="-253" type="curve" smooth="yes"/>
			<point x="378" y="-253"/>
			<point x="426" y="-191"/>
			<point x="426" y="-134" type="curve" smooth="yes"/>
			<point x="426" y="-56"/>
			<point x="336" y="-45"/>
			<point x="303" y="-43" type="curve"/>
			<point x="316" y="-12" type="line"/>
			<point x="460" y="0"/>
			<point x="555" y="69"/>
			<point x="555" y="187" type="curve" smooth="yes"/>
			<point x="555" y="306"/>
			<point x="442" y="333"/>
			<point x="345" y="357" type="curve" smooth="yes"/>
			<point x="265" y="377"/>
			<point x="234" y="391"/>
			<point x="235" y="419" type="curve" smooth="yes"/>
			<point x="236" y="448"/>
			<point x="266" y="467"/>
			<point x="328" y="467" type="curve" smooth="yes"/>
			<point x="395" y="467"/>
			<point x="411" y="445"/>
			<point x="399" y="400" type="curve" smooth="yes"/>
			<point x="394" y="381" type="line"/>
			<point x="408" y="368"/>
			<point x="449" y="354"/>
			<point x="483" y="354" type="curve" smooth="yes"/>
			<point x="523" y="354"/>
			<point x="557" y="380"/>
			<point x="557" y="421" type="curve" smooth="yes"/>
			<point x="557" y="509"/>
			<point x="447" y="544"/>
			<point x="338" y="544" type="curve" smooth="yes"/>
			<point x="133" y="544"/>
			<point x="56" y="453"/>
			<point x="56" y="355" type="curve" smooth="yes"/>
			<point x="56" y="230"/>
			<point x="156" y="199"/>
			<point x="270" y="171" type="curve" smooth="yes"/>
			<point x="348" y="152"/>
			<point x="380" y="137"/>
			<point x="380" y="106" type="curve" smooth="yes"/>
			<point x="380" y="75"/>
			<point x="341" y="62"/>
			<point x="291" y="62" type="curve" smooth="yes"/>
			<point x="219" y="62"/>
			<point x="207" y="81"/>
			<point x="206" y="117" type="curve" smooth="yes"/>
			<point x="205" y="151" type="line"/>
			<point x="193" y="158"/>
			<point x="163" y="166"/>
			<point x="129" y="166" type="curve" smooth="yes"/>
			<point x="83" y="166"/>
			<point x="42" y="141"/>
			<point x="42" y="89" type="curve" smooth="yes"/>
			<point x="42" y="21"/>
			<point x="128" y="-7"/>
			<point x="230" y="-13" type="curve"/>
			<point x="200" y="-92" type="line"/>
			<point x="214" y="-113" type="line"/>
			<point x="252" y="-104"/>
			<point x="288" y="-108"/>
			<point x="288" y="-134" type="curve" smooth="yes"/>
			<point x="288" y="-162"/>
			<point x="259" y="-168"/>
			<point x="229" y="-168" type="curve" smooth="yes"/>
			<point x="204" y="-168"/>
			<point x="183" y="-165"/>
			<point x="159" y="-159" type="curve"/>
			<point x="135" y="-226" type="line"/>
			<point x="161" y="-241"/>
			<point x="215" y="-253"/>
		</contour>
	</outline>
</glyph>
<glyph name="tbar" format="2">
	<unicode hex="0167"/>
	<advance width="493"/>
	<outline>
		<contour>
			<point x="260" y="-14" type="curve" smooth="yes"/>
			<point x="356" y="-14"/>
			<point x="444" y="26"/>
			<point x="490" y="75" type="curve"/>
			<point x="442" y="150" type="line"/>
			<point x="410" y="129"/>
			<point x="381" y="116"/>
			<point x="348" y="116" type="curve" smooth="yes"/>
			<point x="302" y="116"/>
			<point x="294" y="144"/>
			<point x="297" y="190" type="curve" smooth="yes"/>
			<point x="299" y="229" type="line"/>
			<point x="427" y="229" type="line"/>
			<point x="433" y="336" type="line"/>
			<point x="305" y="336" type="line"/>
			<point x="311" y="435" type="line"/>
			<point x="444" y="435" type="line"/>
			<point x="448" y="527" type="line"/>
			<point x="314" y="527" type="line"/>
			<point x="322" y="687" type="line"/>
			<point x="176" y="687" type="line"/>
			<point x="110" y="529" type="line"/>
			<point x="24" y="521" type="line"/>
			<point x="16" y="435" type="line"/>
			<point x="103" y="435" type="line"/>
			<point x="98" y="336" type="line"/>
			<point x="13" y="336" type="line"/>
			<point x="5" y="229" type="line"/>
			<point x="92" y="229" type="line"/>
			<point x="87" y="143" type="line" smooth="yes"/>
			<point x="81" y="41"/>
			<point x="144" y="-14"/>
		</contour>
	</outline>
</glyph>
<glyph name="Uogonek" format="2">
	<unicode hex="0172"/>
	<advance width="920"/>
	<outline>
		<contour>
			<point x="630" y="-254" type="curve" smooth="yes"/>
			<point x="700" y="-254"/>
			<point x="755" y="-230"/>
			<point x="801" y="-160" type="curve"/>
			<point x="751" y="-121" type="line"/>
			<point x="732" y="-143"/>
			<point x="713" y="-155"/>
			<point x="694" y="-155" type="curve" smooth="yes"/>
			<point x="678" y="-155"/>
			<point x="668" y="-147"/>
			<point x="668" y="-132" type="curve" smooth="yes"/>
			<point x="668" y="-105"/>
			<point x="690" y="-64"/>
			<point x="746" y="0" type="curve"/>
			<point x="876" y="0" type="line"/>
			<point x="884" y="93" type="line"/>
			<point x="797" y="106" type="line"/>
			<point x="825" y="594" type="line"/>
			<point x="898" y="611" type="line"/>
			<point x="908" y="700" type="line"/>
			<point x="536" y="700" type="line"/>
			<point x="526" y="611" type="line"/>
			<point x="599" y="594" type="line"/>
			<point x="596" y="570" type="line" smooth="yes"/>
			<point x="572" y="380"/>
			<point x="484" y="131"/>
			<point x="383" y="131" type="curve" smooth="yes"/>
			<point x="332" y="131"/>
			<point x="328" y="153"/>
			<point x="332" y="230" type="curve" smooth="yes"/>
			<point x="352" y="594" type="line"/>
			<point x="438" y="611" type="line"/>
			<point x="448" y="700" type="line"/>
			<point x="59" y="700" type="line"/>
			<point x="49" y="611" type="line"/>
			<point x="127" y="596" type="line"/>
			<point x="106" y="244" type="line" smooth="yes"/>
			<point x="96" y="78"/>
			<point x="145" y="-14"/>
			<point x="311" y="-14" type="curve" smooth="yes"/>
			<point x="481" y="-14"/>
			<point x="558" y="99"/>
			<point x="636" y="391" type="curve"/>
			<point x="642" y="391" type="line"/>
			<point x="598" y="12" type="line"/>
			<point x="605" y="0" type="line"/>
			<point x="653" y="0" type="line"/>
			<point x="552" y="-68"/>
			<point x="515" y="-107"/>
			<point x="515" y="-169" type="curve" smooth="yes"/>
			<point x="515" y="-226"/>
			<point x="573" y="-254"/>
		</contour>
	</outline>
</glyph>
<glyph name="Schwa" format="2">
	<unicode hex="018F"/>
	<advance width="800"/>
	<outline>
		<contour>
			<point x="372" y="-14" type="curve" smooth="yes"/>
			<point x="617" y="-14"/>
			<point x="761" y="133"/>
			<point x="761" y="379" type="curve" smooth="yes"/>
			<point x="761" y="599"/>
			<point x="644" y="714"/>
			<point x="427" y="714" type="curve" smooth="yes"/>
			<point x="265" y="714"/>
			<point x="158" y="652"/>
			<point x="88" y="539" type="curve"/>
			<point x="171" y="474" type="line"/>
			<point x="225" y="543"/>
			<point x="283" y="586"/>
			<point x="377" y="586" type="curve" smooth="yes"/>
			<point x="494" y="586"/>
			<point x="525" y="501"/>
			<point x="525" y="373" type="curve"/>
			<point x="78" y="373" type="line"/>
			<point x="63" y="333"/>
			<point x="55" y="276"/>
			<point x="55" y="221" type="curve" smooth="yes"/>
			<point x="55" y="86"/>
			<point x="148" y="-14"/>
		</contour>
		<contour>
			<point x="373" y="97" type="curve" smooth="yes"/>
			<point x="282" y="97"/>
			<point x="260" y="149"/>
			<point x="260" y="204" type="curve" smooth="yes"/>
			<point x="260" y="225"/>
			<point x="264" y="242"/>
			<point x="269" y="263" type="curve"/>
			<point x="516" y="263" type="line"/>
			<point x="498" y="143"/>
			<point x="451" y="97"/>
		</contour>
	</outline>
</glyph>
<glyph name="Ohorn" format="2">
	<unicode hex="01A0"/>
	<advance width="993"/>
	<outline>
		<contour>
			<point x="414" y="-16" type="curve" smooth="yes"/>
			<point x="679" y="-16"/>
			<point x="826" y="141"/>
			<point x="831" y="382" type="curve" smooth="yes"/>
			<point x="832" y="409"/>
			<point x="830" y="435"/>
			<point x="826" y="459" type="curve"/>
			<point x="977" y="495"/>
			<point x="1007" y="610"/>
			<point x="1007" y="672" type="curve" smooth="yes"/>
			<point x="1007" y="750"/>
			<point x="961" y="782"/>
			<point x="906" y="782" type="curve" smooth="yes"/>
			<point x="845" y="782"/>
			<point x="804" y="743"/>
			<point x="804" y="695" type="curve" smooth="yes"/>
			<point x="804" y="678"/>
			<point x="809" y="657"/>
			<point x="817" y="643" type="curve"/>
			<point x="858" y="633" type="line" smooth="yes"/>
			<point x="879" y="628"/>
			<point x="885" y="625"/>
			<point x="885" y="610" type="curve" smooth="yes"/>
			<point x="885" y="575"/>
			<point x="854" y="547"/>
			<point x="806" y="534" type="curve"/>
			<point x="760" y="649"/>
			<point x="650" y="717"/>
			<point x="471" y="717" type="curve" smooth="yes"/>
			<point x="207" y="717"/>
			<point x="63" y="567"/>
			<point x="58" y="328" type="curve" smooth="yes"/>
			<point x="54" y="120"/>
			<point x="172" y="-16"/>
		</contour>
		<contour>
			<point x="431" y="100" type="curve" smooth="yes"/>
			<point x="318" y="100"/>
			<point x="289" y="192"/>
			<point x="293" y="350" type="curve" smooth="yes"/>
			<point x="297" y="511"/>
			<point x="349" y="607"/>
			<point x="454" y="607" type="curve" smooth="yes"/>
			<point x="568" y="607"/>
			<point x="597" y="514"/>
			<point x="592" y="361" type="curve" smooth="yes"/>
			<point x="586" y="190"/>
			<point x="550" y="100"/>
		</contour>
	</outline>
</glyph>
<glyph name="ohorn" format="2">
	<unicode hex="01A1"/>
	<advance width="795"/>
	<outline>
		<contour>
			<point x="326" y="-17" type="curve" smooth="yes"/>
			<point x="564" y="-17"/>
			<point x="648" y="131"/>
			<point x="648" y="285" type="curve" smooth="yes"/>
			<point x="648" y="317"/>
			<point x="644" y="346"/>
			<point x="637" y="373" type="curve"/>
			<point x="756" y="417"/>
			<point x="781" y="517"/>
			<point x="781" y="574" type="curve" smooth="yes"/>
			<point x="781" y="652"/>
			<point x="735" y="684"/>
			<point x="680" y="684" type="curve" smooth="yes"/>
			<point x="619" y="684"/>
			<point x="578" y="645"/>
			<point x="578" y="597" type="curve" smooth="yes"/>
			<point x="578" y="580"/>
			<point x="583" y="559"/>
			<point x="591" y="545" type="curve"/>
			<point x="632" y="535" type="line" smooth="yes"/>
			<point x="653" y="530"/>
			<point x="659" y="527"/>
			<point x="659" y="512" type="curve" smooth="yes"/>
			<point x="659" y="483"/>
			<point x="639" y="460"/>
			<point x="605" y="445" type="curve"/>
			<point x="561" y="509"/>
			<point x="483" y="544"/>
			<point x="370" y="544" type="curve" smooth="yes"/>
			<point x="136" y="544"/>
			<point x="45" y="406"/>
			<point x="45" y="244" type="curve" smooth="yes"/>
			<point x="45" y="89"/>
			<point x="133" y="-17"/>
		</contour>
		<contour>
			<point x="342" y="80" type="curve" smooth="yes"/>
			<point x="283" y="80"/>
			<point x="269" y="140"/>
			<point x="269" y="240" type="curve" smooth="yes"/>
			<point x="269" y="403"/>
			<point x="300" y="447"/>
			<point x="355" y="447" type="curve" smooth="yes"/>
			<point x="419" y="447"/>
			<point x="426" y="378"/>
			<point x="426" y="283" type="curve" smooth="yes"/>
			<point x="426" y="180"/>
			<point x="421" y="80"/>
		</contour>
	</outline>
</glyph>
<glyph name="Uhorn" format="2">
	<unicode hex="01AF"/>
	<advance width="1085"/>
	<outline>
		<contour>
			<point x="311" y="-14" type="curve" smooth="yes"/>
			<point x="481" y="-14"/>
			<point x="558" y="99"/>
			<point x="636" y="391" type="curve"/>
			<point x="642" y="391" type="line"/>
			<point x="598" y="12" type="line"/>
			<point x="605" y="0" type="line"/>
			<point x="876" y="0" type="line"/>
			<point x="884" y="93" type="line"/>
			<point x="797" y="106" type="line"/>
			<point x="815" y="400" type="line"/>
			<point x="1056" y="432"/>
			<point x="1098" y="556"/>
			<point x="1098" y="649" type="curve" smooth="yes"/>
			<point x="1098" y="722"/>
			<point x="1058" y="759"/>
			<point x="992" y="759" type="curve" smooth="yes"/>
			<point x="941" y="759"/>
			<point x="895" y="733"/>
			<point x="895" y="673" type="curve" smooth="yes"/>
			<point x="895" y="656"/>
			<point x="900" y="623"/>
			<point x="908" y="608" type="curve"/>
			<point x="951" y="603" type="line" smooth="yes"/>
			<point x="969" y="601"/>
			<point x="975" y="590"/>
			<point x="975" y="570" type="curve" smooth="yes"/>
			<point x="975" y="523"/>
			<point x="951" y="503"/>
			<point x="819" y="474" type="curve"/>
			<point x="833" y="700" type="line"/>
			<point x="536" y="700" type="line"/>
			<point x="526" y="611" type="line"/>
			<point x="599" y="594" type="line"/>
			<point x="596" y="570" type="line" smooth="yes"/>
			<point x="584" y="472"/>
			<point x="554" y="357"/>
			<point x="514" y="270" type="curve" smooth="yes"/>
			<point x="477" y="189"/>
			<point x="432" y="131"/>
			<point x="383" y="131" type="curve" smooth="yes"/>
			<point x="332" y="131"/>
			<point x="328" y="153"/>
			<point x="332" y="230" type="curve" smooth="yes"/>
			<point x="352" y="594" type="line"/>
			<point x="438" y="611" type="line"/>
			<point x="448" y="700" type="line"/>
			<point x="59" y="700" type="line"/>
			<point x="49" y="611" type="line"/>
			<point x="127" y="596" type="line"/>
			<point x="106" y="244" type="line" smooth="yes"/>
			<point x="96" y="78"/>
			<point x="145" y="-14"/>
		</contour>
	</outline>
	<anchor name="bottom" x="444" y="-30"/>
	<anchor name="top" x="487" y="730"/>
</glyph>
<glyph name="oogonek" format="2">
	<unicode hex="01EB"/>
	<advance width="689"/>
	<outline>
		<contour>
			<point x="337" y="-254" type="curve" smooth="yes"/>
			<point x="407" y="-254"/>
			<point x="462" y="-230"/>
			<point x="508" y="-160" type="curve"/>
			<point x="458" y="-121" type="line"/>
			<point x="439" y="-143"/>
			<point x="420" y="-155"/>
			<point x="401" y="-155" type="curve" smooth="yes"/>
			<point x="385" y="-155"/>
			<point x="375" y="-147"/>
			<point x="375" y="-132" type="curve" smooth="yes"/>
			<point x="375" y="-105"/>
			<point x="397" y="-64"/>
			<point x="453" y="0" type="curve"/>
			<point x="595" y="44"/>
			<point x="648" y="163"/>
			<point x="648" y="285" type="curve" smooth="yes"/>
			<point x="648" y="448"/>
			<point x="556" y="544"/>
			<point x="370" y="544" type="curve" smooth="yes"/>
			<point x="136" y="544"/>
			<point x="45" y="406"/>
			<point x="45" y="244" type="curve" smooth="yes"/>
			<point x="45" y="89"/>
			<point x="133" y="-17"/>
			<point x="326" y="-17" type="curve" smooth="yes"/>
			<point x="329" y="-17"/>
			<point x="333" y="-17"/>
			<point x="336" y="-17" type="curve"/>
			<point x="253" y="-75"/>
			<point x="222" y="-112"/>
			<point x="222" y="-169" type="curve" smooth="yes"/>
			<point x="222" y="-226"/>
			<point x="280" y="-254"/>
		</contour>
		<contour>
			<point x="342" y="80" type="curve" smooth="yes"/>
			<point x="283" y="80"/>
			<point x="269" y="140"/>
			<point x="269" y="240" type="curve" smooth="yes"/>
			<point x="269" y="403"/>
			<point x="300" y="447"/>
			<point x="355" y="447" type="curve" smooth="yes"/>
			<point x="419" y="447"/>
			<point x="426" y="378"/>
			<point x="426" y="283" type="curve" smooth="yes"/>
			<point x="426" y="180"/>
			<point x="421" y="80"/>
		</contour>
	</outline>
</glyph>
<glyph name="Aringacute" format="2">
	<unicode hex="01FA"/>
	<advance width="833"/>
	<outline>
		<contour>
			<point x="12" y="0" type="line"/>
			<point x="304" y="0" type="line"/>
			<point x="311" y="92" type="line"/>
			<point x="226" y="104" type="line"/>
			<point x="262" y="204" type="line"/>
			<point x="487" y="204" type="line"/>
			<point x="512" y="104" type="line"/>
			<point x="436" y="93" type="line"/>
			<point x="427" y="0" type="line"/>
			<point x="823" y="0" type="line"/>
			<point x="829" y="94" type="line"/>
			<point x="754" y="103" type="line"/>
			<point x="570" y="685" type="line"/>
			<point x="593" y="706"/>
			<point x="605" y="734"/>
			<point x="605" y="765" type="curve" smooth="yes"/>
			<point x="605" y="832"/>
			<point x="553" y="886"/>
			<point x="445" y="886" type="curve" smooth="yes"/>
			<point x="319" y="886"/>
			<point x="270" y="827"/>
			<point x="270" y="757" type="curve" smooth="yes"/>
			<point x="270" y="718"/>
			<point x="288" y="686"/>
			<point x="323" y="666" type="curve"/>
			<point x="93" y="102" type="line"/>
			<point x="22" y="93" type="line"/>
		</contour>
		<contour>
			<point x="291" y="304" type="line"/>
			<point x="396" y="579" type="line"/>
			<point x="400" y="579" type="line"/>
			<point x="463" y="304" type="line"/>
		</contour>
		<contour>
			<point x="433" y="706" type="curve" smooth="yes"/>
			<point x="408" y="706"/>
			<point x="394" y="723"/>
			<point x="394" y="766" type="curve" smooth="yes"/>
			<point x="394" y="804"/>
			<point x="411" y="822"/>
			<point x="438" y="822" type="curve" smooth="yes"/>
			<point x="462" y="822"/>
			<point x="480" y="808"/>
			<point x="480" y="767" type="curve" smooth="yes"/>
			<point x="480" y="723"/>
			<point x="461" y="706"/>
		</contour>
		<contour>
			<point x="334" y="893" type="line"/>
			<point x="584" y="994" type="line"/>
			<point x="592" y="1008"/>
			<point x="595" y="1033"/>
			<point x="595" y="1047" type="curve" smooth="yes"/>
			<point x="595" y="1098"/>
			<point x="565" y="1120"/>
			<point x="535" y="1120" type="curve" smooth="yes"/>
			<point x="508" y="1120"/>
			<point x="492" y="1110"/>
			<point x="467" y="1090" type="curve" smooth="yes"/>
			<point x="296" y="953" type="line"/>
		</contour>
	</outline>
</glyph>
<glyph name="schwa" format="2">
	<unicode hex="0259"/>
	<advance width="611"/>
	<outline>
		<contour>
			<point x="240" y="-14" type="curve" smooth="yes"/>
			<point x="442" y="-14"/>
			<point x="571" y="92"/>
			<point x="571" y="296" type="curve" smooth="yes"/>
			<point x="571" y="460"/>
			<point x="458" y="541"/>
			<point x="301" y="541" type="curve" smooth="yes"/>
			<point x="229" y="541"/>
			<point x="118" y="521"/>
			<point x="46" y="439" type="curve"/>
			<point x="101" y="355" type="line"/>
			<point x="145" y="385"/>
			<point x="201" y="408"/>
			<point x="246" y="408" type="curve" smooth="yes"/>
			<point x="298" y="408"/>
			<point x="340" y="387"/>
			<point x="350" y="328" type="curve"/>
			<point x="260" y="303" type="line" smooth="yes"/>
			<point x="79" y="253"/>
			<point x="40" y="199"/>
			<point x="40" y="125" type="curve" smooth="yes"/>
			<point x="40" y="35"/>
			<point x="118" y="-14"/>
		</contour>
		<contour>
			<point x="269" y="75" type="curve" smooth="yes"/>
			<point x="249" y="75"/>
			<point x="232" y="85"/>
			<point x="232" y="125" type="curve" smooth="yes"/>
			<point x="232" y="181"/>
			<point x="259" y="203"/>
			<point x="311" y="216" type="curve" smooth="yes"/>
			<point x="354" y="227" type="line"/>
			<point x="344" y="110"/>
			<point x="309" y="75"/>
		</contour>
	</outline>
</glyph>
<glyph name="ringhalfright" format="2">
	<unicode hex="02BE"/>
	<advance width="500"/>
	<outline>
		<contour>
			<point x="226" y="822" type="curve" smooth="yes"/>
			<point x="200" y="822" type="line"/>
			<point x="198" y="751" type="line"/>
			<point x="211" y="751" type="line" smooth="yes"/>
			<point x="235" y="751"/>
			<point x="259" y="742"/>
			<point x="259" y="701" type="curve" smooth="yes"/>
			<point x="259" y="661"/>
			<point x="233" y="647"/>
			<point x="206" y="647" type="curve" smooth="yes"/>
			<point x="194" y="647" type="line"/>
			<point x="192" y="578" type="line"/>
			<point x="221" y="578" type="line" smooth="yes"/>
			<point x="321" y="578"/>
			<point x="396" y="621"/>
			<point x="396" y="703" type="curve" smooth="yes"/>
			<point x="396" y="770"/>
			<point x="345" y="822"/>
		</contour>
	</outline>
	<anchor name="_top" x="268" y="550"/>
</glyph>
<glyph name="verticallinemod" format="2">
	<unicode hex="02C8"/>
	<advance width="500"/>
	<outline>
		<contour>
			<point x="208" y="824" type="line"/>
			<point x="200" y="578" type="line"/>
			<point x="340" y="578" type="line"/>
			<point x="349" y="824" type="line"/>
		</contour>
	</outline>
	<anchor name="_top" x="268" y="550"/>
</glyph>
<glyph name="breve" format="2">
	<unicode hex="02D8"/>
	<advance width="500"/>
	<outline>
		<contour>
			<point x="270" y="583" type="curve" smooth="yes"/>
			<point x="391" y="583"/>
			<point x="466" y="661"/>
			<point x="486" y="810" type="curve"/>
			<point x="407" y="822" type="line"/>
			<point x="385" y="745"/>
			<point x="347" y="718"/>
			<point x="273" y="718" type="curve" smooth="yes"/>
			<point x="214" y="718"/>
			<point x="169" y="738"/>
			<point x="145" y="822" type="curve"/>
			<point x="72" y="810" type="line"/>
			<point x="81" y="649"/>
			<point x="148" y="583"/>
		</contour>
	</outline>
	<anchor name="_top" x="268" y="550"/>
</glyph>
<glyph name="dotaccent" format="2">
	<unicode hex="02D9"/>
	<advance width="500"/>
	<outline>
		<contour>
			<point x="161" y="697" type="curve" smooth="yes"/>
			<point x="161" y="640"/>
			<point x="203" y="600"/>
			<point x="271" y="600" type="curve" smooth="yes"/>
			<point x="336" y="600"/>
			<point x="380" y="641"/>
			<point x="380" y="697" type="curve" smooth="yes"/>
			<point x="380" y="753"/>
			<point x="335" y="794"/>
			<point x="270" y="794" type="curve" smooth="yes"/>
			<point x="203" y="794"/>
			<point x="161" y="753"/>
		</contour>
	</outline>
	<anchor name="_top" x="268" y="550"/>
</glyph>
<glyph name="tilde" format="2">
	<unicode hex="02DC"/>
	<advance width="500"/>
	<outline>
		<contour>
			<point x="353" y="608" type="curve" smooth="yes"/>
			<point x="404" y="608"/>
			<point x="447" y="644"/>
			<point x="490" y="738" type="curve"/>
			<point x="430" y="770" type="line"/>
			<point x="405" y="737"/>
			<point x="398" y="728"/>
			<point x="378" y="728" type="curve" smooth="yes"/>
			<point x="357" y="728"/>
			<point x="337" y="732"/>
			<point x="286" y="753" type="curve" smooth="yes"/>
			<point x="227" y="777"/>
			<point x="200" y="783"/>
			<point x="170" y="783" type="curve" smooth="yes"/>
			<point x="124" y="783"/>
			<point x="102" y="750"/>
			<point x="53" y="643" type="curve"/>
			<point x="112" y="613" type="line"/>
			<point x="142" y="654"/>
			<point x="146" y="661"/>
			<point x="161" y="661" type="curve" smooth="yes"/>
			<point x="172" y="661"/>
			<point x="200" y="654"/>
			<point x="251" y="632" type="curve" smooth="yes"/>
			<point x="289" y="616"/>
			<point x="320" y="608"/>
		</contour>
	</outline>
	<anchor name="_top" x="268" y="550"/>
</glyph>
<glyph name="hungarumlaut" format="2">
	<unicode hex="02DD"/>
	<advance width="500"/>
	<outline>
		<contour>
			<point x="461" y="786" type="curve" smooth="yes"/>
			<point x="321" y="619" type="line"/>
			<point x="367" y="572" type="line"/>
			<point x="592" y="702" type="line"/>
			<point x="596" y="777"/>
			<point x="568" y="823"/>
			<point x="520" y="823" type="curve" smooth="yes"/>
			<point x="498" y="823"/>
			<point x="479" y="808"/>
		</contour>
		<contour>
			<point x="220" y="795" type="curve" smooth="yes"/>
			<point x="109" y="619" type="line"/>
			<point x="155" y="572" type="line"/>
			<point x="356" y="728" type="line"/>
			<point x="364" y="797"/>
			<point x="333" y="832"/>
			<point x="285" y="832" type="curve" smooth="yes"/>
			<point x="251" y="832"/>
			<point x="234" y="818"/>
		</contour>
	</outline>
	<anchor name="_top" x="268" y="550"/>
</glyph>
<glyph name="tonos" format="2">
	<unicode hex="0384"/>
	<advance width="444"/>
	<outline>
		<contour>
			<point x="219" y="573" type="line"/>
			<point x="384" y="754" type="line"/>
			<point x="384" y="773" type="line"/>
			<point x="366" y="810"/>
			<point x="339" y="830"/>
			<point x="309" y="830" type="curve" smooth="yes"/>
			<point x="275" y="830"/>
			<point x="256" y="814"/>
			<point x="237" y="768" type="curve" smooth="yes"/>
			<point x="168" y="604" type="line"/>
		</contour>
	</outline>
	<anchor name="_top" x="215" y="550"/>
</glyph>
<glyph name="dieresistonos" format="2">
	<unicode hex="0385"/>
	<advance width="675"/>
	<outline>
		<contour>
			<point x="328" y="584" type="line"/>
			<point x="477" y="774" type="line"/>
			<point x="477" y="792" type="line"/>
			<point x="459" y="823"/>
			<point x="431" y="841"/>
			<point x="402" y="841" type="curve" smooth="yes"/>
			<point x="364" y="841"/>
			<point x="347" y="826"/>
			<point x="329" y="776" type="curve" smooth="yes"/>
			<point x="275" y="610" type="line"/>
		</contour>
		<contour>
			<point x="164" y="598" type="curve" smooth="yes"/>
			<point x="228" y="598"/>
			<point x="271" y="637"/>
			<point x="271" y="695" type="curve" smooth="yes"/>
			<point x="271" y="758"/>
			<point x="235" y="790"/>
			<point x="164" y="790" type="curve" smooth="yes"/>
			<point x="100" y="790"/>
			<point x="57" y="753"/>
			<point x="57" y="696" type="curve" smooth="yes"/>
			<point x="57" y="636"/>
			<point x="98" y="598"/>
		</contour>
		<contour>
			<point x="579" y="598" type="curve" smooth="yes"/>
			<point x="644" y="598"/>
			<point x="687" y="637"/>
			<point x="687" y="695" type="curve" smooth="yes"/>
			<point x="687" y="758"/>
			<point x="651" y="790"/>
			<point x="579" y="790" type="curve" smooth="yes"/>
			<point x="515" y="790"/>
			<point x="473" y="752"/>
			<point x="473" y="696" type="curve" smooth="yes"/>
			<point x="473" y="636"/>
			<point x="514" y="598"/>
		</contour>
	</outline>
	<anchor name="_top" x="371" y="550"/>
</glyph>
<glyph name="Xi" format="2">
	<unicode hex="039E"/>
	<advance width="695"/>
	<outline>
		<contour>
			<point x="28" y="0" type="line"/>
			<point x="632" y="0" type="line"/>
			<point x="656" y="218" type="line"/>
			<point x="546" y="218" type="line"/>
			<point x="536" y="184" type="line" smooth="yes"/>
			<point x="523" y="139"/>
			<point x="501" y="124"/>
			<point x="448" y="124" type="curve" smooth="yes"/>
			<point x="232" y="124" type="line" smooth="yes"/>
			<point x="179" y="124"/>
			<point x="160" y="139"/>
			<point x="153" y="184" type="curve" smooth="yes"/>
			<point x="148" y="218" type="line"/>
			<point x="38" y="218" type="line"/>
		</contour>
		<contour>
			<point x="160" y="302" type="line"/>
			<point x="553" y="302" type="line"/>
			<point x="559" y="416" type="line"/>
			<point x="166" y="416" type="line"/>
		</contour>
		<contour>
			<point x="169" y="488" type="line"/>
			<point x="185" y="524" type="line" smooth="yes"/>
			<point x="205" y="568"/>
			<point x="219" y="576"/>
			<point x="274" y="576" type="curve" smooth="yes"/>
			<point x="464" y="576" type="line" smooth="yes"/>
			<point x="519" y="576"/>
			<point x="533" y="567"/>
			<point x="546" y="524" type="curve" smooth="yes"/>
			<point x="557" y="488" type="line"/>
			<point x="662" y="497" type="line"/>
			<point x="645" y="700" type="line"/>
			<point x="110" y="700" type="line"/>
			<point x="67" y="497" type="line"/>
		</contour>
	</outline>
</glyph>
<glyph name="Pi" format="2">
	<unicode hex="03A0"/>
	<advance width="899"/>
	<outline>
		<contour>
			<point x="28" y="0" type="line"/>
			<point x="421" y="0" type="line"/>
			<point x="427" y="92" type="line"/>
			<point x="348" y="107" type="line"/>
			<point x="372" y="591" type="line"/>
			<point x="576" y="591" type="line"/>
			<point x="551" y="104" type="line"/>
			<point x="477" y="92" type="line"/>
			<point x="471" y="0" type="line"/>
			<point x="872" y="0" type="line"/>
			<point x="878" y="94" type="line"/>
			<point x="780" y="107" type="line"/>
			<point x="804" y="595" type="line"/>
			<point x="892" y="609" type="line"/>
			<point x="897" y="700" type="line"/>
			<point x="60" y="700" type="line"/>
			<point x="55" y="614" type="line"/>
			<point x="143" y="597" type="line"/>
			<point x="119" y="102" type="line"/>
			<point x="34" y="91" type="line"/>
		</contour>
	</outline>
</glyph>
<glyph name="Phi" format="2">
	<unicode hex="03A6"/>
	<advance width="1000"/>
	<outline>
		<contour>
			<point x="314" y="-20" type="line"/>
			<point x="686" y="-20" type="line"/>
			<point x="689" y="55" type="line"/>
			<point x="601" y="67" type="line"/>
			<point x="604" y="123" type="line"/>
			<point x="844" y="133"/>
			<point x="960" y="212"/>
			<point x="960" y="366" type="curve" smooth="yes"/>
			<point x="960" y="504"/>
			<point x="858" y="575"/>
			<point x="626" y="599" type="curve"/>
			<point x="629" y="646" type="line"/>
			<point x="716" y="660" type="line"/>
			<point x="722" y="729" type="line"/>
			<point x="336" y="729" type="line"/>
			<point x="331" y="660" type="line"/>
			<point x="418" y="643" type="line"/>
			<point x="416" y="599" type="line"/>
			<point x="180" y="588"/>
			<point x="60" y="508"/>
			<point x="60" y="361" type="curve" smooth="yes"/>
			<point x="60" y="217"/>
			<point x="159" y="146"/>
			<point x="395" y="122" type="curve"/>
			<point x="391" y="64" type="line"/>
			<point x="317" y="55" type="line"/>
		</contour>
		<contour>
			<point x="399" y="215" type="line"/>
			<point x="323" y="227"/>
			<point x="286" y="274"/>
			<point x="286" y="358" type="curve" smooth="yes"/>
			<point x="286" y="454"/>
			<point x="327" y="504"/>
			<point x="412" y="512" type="curve"/>
		</contour>
		<contour>
			<point x="608" y="209" type="curve"/>
			<point x="621" y="506" type="line"/>
			<point x="697" y="494"/>
			<point x="735" y="445"/>
			<point x="735" y="359" type="curve" smooth="yes"/>
			<point x="735" y="268"/>
			<point x="691" y="217"/>
		</contour>
	</outline>
</glyph>
<glyph name="Psi" format="2">
	<unicode hex="03A8"/>
	<advance width="1042"/>
	<outline>
		<contour>
			<point x="334" y="0" type="line"/>
			<point x="687" y="0" type="line"/>
			<point x="691" y="95" type="line"/>
			<point x="603" y="108" type="line"/>
			<point x="607" y="177" type="line"/>
			<point x="815" y="180"/>
			<point x="930" y="284"/>
			<point x="940" y="479" type="curve" smooth="yes"/>
			<point x="946" y="596" type="line"/>
			<point x="1012" y="611" type="line"/>
			<point x="1020" y="700" type="line"/>
			<point x="772" y="700" type="line"/>
			<point x="762" y="466" type="line" smooth="yes"/>
			<point x="757" y="348"/>
			<point x="717" y="305"/>
			<point x="613" y="302" type="curve"/>
			<point x="626" y="597" type="line"/>
			<point x="692" y="611" type="line"/>
			<point x="700" y="700" type="line"/>
			<point x="374" y="700" type="line"/>
			<point x="367" y="611" type="line"/>
			<point x="435" y="594" type="line"/>
			<point x="422" y="302" type="line"/>
			<point x="318" y="306"/>
			<point x="283" y="349"/>
			<point x="289" y="466" type="curve" smooth="yes"/>
			<point x="300" y="700" type="line"/>
			<point x="56" y="700" type="line"/>
			<point x="49" y="611" type="line"/>
			<point x="117" y="596" type="line"/>
			<point x="111" y="455" type="line" smooth="yes"/>
			<point x="103" y="274"/>
			<point x="208" y="179"/>
			<point x="416" y="177" type="curve"/>
			<point x="412" y="105" type="line"/>
			<point x="338" y="95" type="line"/>
		</contour>
	</outline>
</glyph>
<glyph name="Omega" format="2">
	<unicode hex="03A9"/>
	<advance width="806"/>
	<outline>
		<contour>
			<point x="50" y="0" type="line"/>
			<point x="367" y="0" type="line"/>
			<point x="378" y="223" type="line"/>
			<point x="317" y="244"/>
			<point x="292" y="290"/>
			<point x="292" y="380" type="curve" smooth="yes"/>
			<point x="292" y="530"/>
			<point x="335" y="610"/>
			<point x="415" y="610" type="curve" smooth="yes"/>
			<point x="482" y="610"/>
			<point x="516" y="556"/>
			<point x="516" y="448" type="curve" smooth="yes"/>
			<point x="516" y="318"/>
			<point x="485" y="245"/>
			<point x="420" y="223" type="curve"/>
			<point x="409" y="0" type="line"/>
			<point x="749" y="0" type="line"/>
			<point x="776" y="224" type="line"/>
			<point x="703" y="224" type="line"/>
			<point x="697" y="203" type="line" smooth="yes"/>
			<point x="677" y="132"/>
			<point x="647" y="105"/>
			<point x="587" y="105" type="curve" smooth="yes"/>
			<point x="534" y="105" type="line"/>
			<point x="536" y="155" type="line"/>
			<point x="667" y="199"/>
			<point x="748" y="308"/>
			<point x="748" y="441" type="curve" smooth="yes"/>
			<point x="748" y="607"/>
			<point x="622" y="714"/>
			<point x="426" y="714" type="curve" smooth="yes"/>
			<point x="209" y="714"/>
			<point x="64" y="593"/>
			<point x="64" y="411" type="curve" smooth="yes"/>
			<point x="64" y="288"/>
			<point x="145" y="183"/>
			<point x="262" y="155" type="curve"/>
			<point x="260" y="105" type="line"/>
			<point x="200" y="105" type="line" smooth="yes"/>
			<point x="143" y="105"/>
			<point x="118" y="132"/>
			<point x="105" y="207" type="curve" smooth="yes"/>
			<point x="102" y="224" type="line"/>
			<point x="28" y="224" type="line"/>
		</contour>
	</outline>
	<anchor name="bottom" x="386" y="-45"/>
	<anchor name="side" x="825" y="217"/>
	<anchor name="topleft" x="49" y="700"/>
</glyph>
<glyph name="alpha" format="2">
	<unicode hex="03B1"/>
	<advance width="730"/>
	<outline>
		<contour>
			<point x="268" y="-16" type="curve" smooth="yes"/>
			<point x="355" y="-16"/>
			<point x="406" y="21"/>
			<point x="434" y="104" type="curve"/>
			<point x="435" y="104" type="line"/>
			<point x="453" y="19"/>
			<point x="488" y="-14"/>
			<point x="561" y="-14" type="curve" smooth="yes"/>
			<point x="610" y="-14"/>
			<point x="673" y="6"/>
			<point x="711" y="34" type="curve"/>
			<point x="692" y="115" type="line"/>
			<point x="674" y="109"/>
			<point x="664" y="107"/>
			<point x="645" y="107" type="curve" smooth="yes"/>
			<point x="609" y="107"/>
			<point x="590" y="138"/>
			<point x="576" y="219" type="curve" smooth="yes"/>
			<point x="575" y="235" type="line"/>
			<point x="614" y="319"/>
			<point x="657" y="411"/>
			<point x="707" y="518" type="curve"/>
			<point x="683" y="540" type="line"/>
			<point x="517" y="527" type="line"/>
			<point x="496" y="447"/>
			<point x="490" y="425"/>
			<point x="482" y="400" type="curve"/>
			<point x="481" y="400" type="line"/>
			<point x="458" y="491"/>
			<point x="395" y="542"/>
			<point x="305" y="542" type="curve" smooth="yes"/>
			<point x="151" y="542"/>
			<point x="51" y="425"/>
			<point x="51" y="244" type="curve" smooth="yes"/>
			<point x="51" y="87"/>
			<point x="137" y="-16"/>
		</contour>
		<contour>
			<point x="332" y="101" type="curve" smooth="yes"/>
			<point x="295" y="101"/>
			<point x="279" y="143"/>
			<point x="279" y="240" type="curve" smooth="yes"/>
			<point x="279" y="379"/>
			<point x="302" y="440"/>
			<point x="354" y="440" type="curve" smooth="yes"/>
			<point x="389" y="440"/>
			<point x="403" y="408"/>
			<point x="426" y="275" type="curve" smooth="yes"/>
			<point x="430" y="254" type="line"/>
			<point x="407" y="149"/>
			<point x="376" y="101"/>
		</contour>
	</outline>
	<anchor name="bottom" x="317" y="-30"/>
	<anchor name="top" x="357" y="550"/>
</glyph>
<glyph name="beta" format="2">
	<unicode hex="03B2"/>
	<advance width="656"/>
	<outline>
		<contour>
			<point x="321" y="-17" type="curve" smooth="yes"/>
			<point x="486" y="-17"/>
			<point x="608" y="81"/>
			<point x="608" y="213" type="curve" smooth="yes"/>
			<point x="608" y="297"/>
			<point x="556" y="368"/>
			<point x="477" y="393" type="curve"/>
			<point x="579" y="440"/>
			<point x="627" y="509"/>
			<point x="627" y="611" type="curve" smooth="yes"/>
			<point x="627" y="716"/>
			<point x="542" y="782"/>
			<point x="407" y="782" type="curve" smooth="yes"/>
			<point x="193" y="782"/>
			<point x="43" y="587"/>
			<point x="43" y="308" type="curve" smooth="yes"/>
			<point x="43" y="98"/>
			<point x="142" y="-17"/>
		</contour>
		<contour>
			<point x="333" y="79" type="curve" smooth="yes"/>
			<point x="284" y="79"/>
			<point x="260" y="152"/>
			<point x="257" y="310" type="curve"/>
			<point x="289" y="315"/>
			<point x="329" y="331"/>
			<point x="352" y="347" type="curve"/>
			<point x="376" y="316"/>
			<point x="391" y="264"/>
			<point x="391" y="209" type="curve" smooth="yes"/>
			<point x="391" y="127"/>
			<point x="370" y="79"/>
		</contour>
		<contour>
			<point x="259" y="437" type="curve"/>
			<point x="269" y="590"/>
			<point x="317" y="692"/>
			<point x="379" y="692" type="curve" smooth="yes"/>
			<point x="405" y="692"/>
			<point x="421" y="671"/>
			<point x="421" y="637" type="curve" smooth="yes"/>
			<point x="421" y="542"/>
			<point x="353" y="458"/>
		</contour>
	</outline>
</glyph>
<glyph name="zeta" format="2">
	<unicode hex="03B6"/>
	<advance width="554"/>
	<outline>
		<contour>
			<point x="344" y="-238" type="line"/>
			<point x="453" y="-160"/>
			<point x="499" y="-94"/>
			<point x="499" y="-15" type="curve" smooth="yes"/>
			<point x="499" y="65"/>
			<point x="470" y="96"/>
			<point x="325" y="169" type="curve" smooth="yes"/>
			<point x="251" y="205"/>
			<point x="230" y="234"/>
			<point x="230" y="298" type="curve" smooth="yes"/>
			<point x="230" y="377"/>
			<point x="285" y="474"/>
			<point x="376" y="554" type="curve"/>
			<point x="498" y="554"/>
			<point x="568" y="594"/>
			<point x="568" y="665" type="curve" smooth="yes"/>
			<point x="568" y="714"/>
			<point x="531" y="757"/>
			<point x="483" y="766" type="curve"/>
			<point x="457" y="755"/>
			<point x="403" y="710"/>
			<point x="311" y="622" type="curve"/>
			<point x="264" y="642"/>
			<point x="245" y="667"/>
			<point x="245" y="708" type="curve" smooth="yes"/>
			<point x="245" y="727"/>
			<point x="238" y="702"/>
			<point x="265" y="782" type="curve"/>
			<point x="244" y="794"/>
			<point x="222" y="801"/>
			<point x="202" y="801" type="curve" smooth="yes"/>
			<point x="133" y="801"/>
			<point x="87" y="758"/>
			<point x="87" y="692" type="curve" smooth="yes"/>
			<point x="87" y="613"/>
			<point x="157" y="558"/>
			<point x="257" y="558" type="curve"/>
			<point x="100" y="398"/>
			<point x="43" y="305"/>
			<point x="43" y="208" type="curve" smooth="yes"/>
			<point x="43" y="107"/>
			<point x="87" y="55"/>
			<point x="240" y="-23" type="curve" smooth="yes"/>
			<point x="335" y="-71"/>
			<point x="343" y="-78"/>
			<point x="343" y="-109" type="curve" smooth="yes"/>
			<point x="343" y="-130"/>
			<point x="336" y="-142"/>
			<point x="295" y="-191" type="curve"/>
		</contour>
	</outline>
</glyph>
<glyph name="eta" format="2">
	<unicode hex="03B7"/>
	<advance width="655"/>
	<outline>
		<contour>
			<point x="562" y="-230" type="line"/>
			<point x="573" y="-225" type="line"/>
			<point x="611" y="110"/>
			<point x="627" y="287"/>
			<point x="627" y="382" type="curve" smooth="yes"/>
			<point x="627" y="482"/>
			<point x="569" y="542"/>
			<point x="471" y="542" type="curve" smooth="yes"/>
			<point x="365" y="542"/>
			<point x="297" y="466"/>
			<point x="264" y="313" type="curve"/>
			<point x="261" y="314" type="line"/>
			<point x="265" y="432"/>
			<point x="264" y="406"/>
			<point x="264" y="420" type="curve" smooth="yes"/>
			<point x="264" y="499"/>
			<point x="221" y="542"/>
			<point x="142" y="542" type="curve" smooth="yes"/>
			<point x="92" y="542"/>
			<point x="42" y="525"/>
			<point x="8" y="496" type="curve"/>
			<point x="29" y="416" type="line"/>
			<point x="44" y="421"/>
			<point x="58" y="424"/>
			<point x="72" y="424" type="curve" smooth="yes"/>
			<point x="111" y="424"/>
			<point x="119" y="410"/>
			<point x="127" y="328" type="curve" smooth="yes"/>
			<point x="129" y="309"/>
			<point x="130" y="280"/>
			<point x="138" y="178" type="curve"/>
			<point x="115" y="148"/>
			<point x="105" y="99"/>
			<point x="105" y="19" type="curve"/>
			<point x="121" y="4"/>
			<point x="160" y="-11"/>
			<point x="182" y="-11" type="curve" smooth="yes"/>
			<point x="250" y="-11"/>
			<point x="280" y="41"/>
			<point x="273" y="148" type="curve"/>
			<point x="332" y="312"/>
			<point x="358" y="391"/>
			<point x="400" y="391" type="curve" smooth="yes"/>
			<point x="414" y="391"/>
			<point x="421" y="381"/>
			<point x="421" y="361" type="curve" smooth="yes"/>
			<point x="421" y="301"/>
			<point x="379" y="-5"/>
			<point x="344" y="-197" type="curve"/>
		</contour>
	</outline>
	<anchor name="bottom" x="174" y="-30"/>
	<anchor name="top" x="340" y="550"/>
</glyph>
<glyph name="theta" format="2">
	<unicode hex="03B8"/>
	<advance width="718"/>
	<outline>
		<contour>
			<point x="349" y="-17" type="curve" smooth="yes"/>
			<point x="567" y="-17"/>
			<point x="673" y="138"/>
			<point x="673" y="456" type="curve" smooth="yes"/>
			<point x="673" y="676"/>
			<point x="578" y="782"/>
			<point x="380" y="782" type="curve" smooth="yes"/>
			<point x="223" y="782"/>
			<point x="128" y="703"/>
			<point x="128" y="574" type="curve" smooth="yes"/>
			<point x="128" y="447"/>
			<point x="226" y="372"/>
			<point x="446" y="329" type="curve"/>
			<point x="432" y="148"/>
			<point x="406" y="79"/>
			<point x="351" y="79" type="curve" smooth="yes"/>
			<point x="322" y="79"/>
			<point x="308" y="92"/>
			<point x="308" y="119" type="curve" smooth="yes"/>
			<point x="308" y="152"/>
			<point x="322" y="203"/>
			<point x="322" y="249" type="curve" smooth="yes"/>
			<point x="322" y="313"/>
			<point x="285" y="348"/>
			<point x="217" y="348" type="curve" smooth="yes"/>
			<point x="161" y="348"/>
			<point x="102" y="334"/>
			<point x="57" y="310" type="curve"/>
			<point x="82" y="224" type="line"/>
			<point x="94" y="228"/>
			<point x="115" y="233"/>
			<point x="122" y="233" type="curve" smooth="yes"/>
			<point x="137" y="233"/>
			<point x="140" y="226"/>
			<point x="138" y="199" type="curve" smooth="yes"/>
			<point x="137" y="187"/>
			<point x="132" y="158"/>
			<point x="131" y="129" type="curve" smooth="yes"/>
			<point x="127" y="34"/>
			<point x="204" y="-17"/>
		</contour>
		<contour>
			<point x="454" y="461" type="curve"/>
			<point x="378" y="476"/>
			<point x="329" y="533"/>
			<point x="329" y="606" type="curve" smooth="yes"/>
			<point x="329" y="659"/>
			<point x="348" y="693"/>
			<point x="379" y="693" type="curve" smooth="yes"/>
			<point x="431" y="693"/>
			<point x="455" y="625"/>
			<point x="455" y="478" type="curve" smooth="yes"/>
			<point x="455" y="467"/>
			<point x="455" y="466"/>
		</contour>
	</outline>
</glyph>
<glyph name="kappa" format="2">
	<unicode hex="03BA"/>
	<advance width="727"/>
	<outline>
		<contour>
			<point x="491" y="-14" type="curve" smooth="yes"/>
			<point x="566" y="-14"/>
			<point x="617" y="16"/>
			<point x="650" y="34" type="curve"/>
			<point x="631" y="115" type="line"/>
			<point x="613" y="109"/>
			<point x="605" y="107"/>
			<point x="593" y="107" type="curve" smooth="yes"/>
			<point x="510" y="107"/>
			<point x="467" y="152"/>
			<point x="477" y="230" type="curve" smooth="yes"/>
			<point x="480" y="260"/>
			<point x="483" y="271"/>
			<point x="494" y="297" type="curve"/>
			<point x="521" y="327"/>
			<point x="620" y="354"/>
			<point x="697" y="352" type="curve"/>
			<point x="705" y="372" type="line"/>
			<point x="649" y="535" type="line"/>
			<point x="499" y="538"/>
			<point x="420" y="481"/>
			<point x="302" y="287" type="curve"/>
			<point x="298" y="287" type="line"/>
			<point x="319" y="355"/>
			<point x="335" y="413"/>
			<point x="338" y="436" type="curve" smooth="yes"/>
			<point x="346" y="505"/>
			<point x="306" y="541"/>
			<point x="222" y="541" type="curve" smooth="yes"/>
			<point x="165" y="541"/>
			<point x="94" y="523"/>
			<point x="44" y="495" type="curve"/>
			<point x="65" y="414" type="line"/>
			<point x="79" y="421"/>
			<point x="89" y="424"/>
			<point x="98" y="424" type="curve" smooth="yes"/>
			<point x="123" y="424"/>
			<point x="131" y="408"/>
			<point x="125" y="370" type="curve" smooth="yes"/>
			<point x="120" y="330"/>
			<point x="92" y="181"/>
			<point x="55" y="0" type="curve"/>
			<point x="233" y="0" type="line"/>
			<point x="303" y="146"/>
			<point x="347" y="198"/>
			<point x="404" y="266" type="curve"/>
			<point x="372" y="206"/>
			<point x="362" y="178"/>
			<point x="359" y="141" type="curve" smooth="yes"/>
			<point x="351" y="36"/>
			<point x="394" y="-14"/>
		</contour>
	</outline>
</glyph>
<glyph name="lambda" format="2">
	<unicode hex="03BB"/>
	<advance width="664"/>
	<outline>
		<contour>
			<point x="467" y="-14" type="curve" smooth="yes"/>
			<point x="513" y="-14"/>
			<point x="567" y="3"/>
			<point x="616" y="32" type="curve"/>
			<point x="597" y="112" type="line"/>
			<point x="584" y="106"/>
			<point x="568" y="103"/>
			<point x="553" y="103" type="curve" smooth="yes"/>
			<point x="531" y="103"/>
			<point x="523" y="114"/>
			<point x="519" y="149" type="curve" smooth="yes"/>
			<point x="469" y="560" type="line" smooth="yes"/>
			<point x="452" y="707"/>
			<point x="359" y="782"/>
			<point x="195" y="782" type="curve" smooth="yes"/>
			<point x="73" y="782"/>
			<point x="-7" y="724"/>
			<point x="-7" y="636" type="curve" smooth="yes"/>
			<point x="-7" y="568"/>
			<point x="30" y="530"/>
			<point x="96" y="530" type="curve" smooth="yes"/>
			<point x="140" y="530"/>
			<point x="177" y="548"/>
			<point x="195" y="577" type="curve"/>
			<point x="189" y="587" type="line" smooth="yes"/>
			<point x="176" y="613"/>
			<point x="170" y="635"/>
			<point x="170" y="656" type="curve" smooth="yes"/>
			<point x="170" y="688"/>
			<point x="187" y="708"/>
			<point x="214" y="708" type="curve" smooth="yes"/>
			<point x="254" y="708"/>
			<point x="276" y="667"/>
			<point x="285" y="576" type="curve" smooth="yes"/>
			<point x="291" y="530" type="line"/>
			<point x="-12" y="20" type="line"/>
			<point x="11" y="0" type="line"/>
			<point x="187" y="0" type="line"/>
			<point x="316" y="301" type="line"/>
			<point x="319" y="301" type="line"/>
			<point x="334" y="131" type="line" smooth="yes"/>
			<point x="346" y="30"/>
			<point x="386" y="-14"/>
		</contour>
	</outline>
</glyph>
<glyph name="mu" format="2">
	<unicode hex="03BC"/>
	<advance width="678"/>
	<outline>
		<contour>
			<point x="47" y="-230" type="line"/>
			<point x="265" y="-208" type="line"/>
			<point x="255" y="-164"/>
			<point x="243" y="-41"/>
			<point x="243" y="26" type="curve"/>
			<point x="244" y="26" type="line"/>
			<point x="258" y="13"/>
			<point x="283" y="-11"/>
			<point x="325" y="-11" type="curve" smooth="yes"/>
			<point x="376" y="-11"/>
			<point x="402" y="29"/>
			<point x="402" y="110" type="curve"/>
			<point x="403" y="110" type="line"/>
			<point x="407" y="33"/>
			<point x="455" y="-11"/>
			<point x="536" y="-11" type="curve" smooth="yes"/>
			<point x="564" y="-11"/>
			<point x="625" y="10"/>
			<point x="664" y="34" type="curve"/>
			<point x="643" y="115" type="line"/>
			<point x="625" y="108"/>
			<point x="612" y="105"/>
			<point x="599" y="105" type="curve" smooth="yes"/>
			<point x="569" y="105"/>
			<point x="558" y="126"/>
			<point x="558" y="181" type="curve" smooth="yes"/>
			<point x="558" y="230"/>
			<point x="573" y="354"/>
			<point x="597" y="515" type="curve"/>
			<point x="574" y="537" type="line"/>
			<point x="387" y="519" type="line"/>
			<point x="364" y="253" type="line" smooth="yes"/>
			<point x="356" y="150"/>
			<point x="340" y="114"/>
			<point x="302" y="114" type="curve" smooth="yes"/>
			<point x="279" y="114"/>
			<point x="263" y="128"/>
			<point x="246" y="141" type="curve"/>
			<point x="246" y="208"/>
			<point x="252" y="261"/>
			<point x="287" y="515" type="curve"/>
			<point x="264" y="537" type="line"/>
			<point x="64" y="519" type="line"/>
			<point x="45" y="313"/>
			<point x="32" y="91"/>
			<point x="32" y="-12" type="curve" smooth="yes"/>
			<point x="32" y="-137"/>
			<point x="33" y="-183"/>
			<point x="36" y="-225" type="curve"/>
		</contour>
	</outline>
</glyph>
<glyph name="rho" format="2">
	<unicode hex="03C1"/>
	<advance width="660"/>
	<outline>
		<contour>
			<point x="28" y="-230" type="line"/>
			<point x="266" y="-208" type="line"/>
			<point x="254" y="-160"/>
			<point x="243" y="-48"/>
			<point x="243" y="25" type="curve"/>
			<point x="244" y="25" type="line"/>
			<point x="269" y="3"/>
			<point x="301" y="-11"/>
			<point x="328" y="-11" type="curve" smooth="yes"/>
			<point x="493" y="-11"/>
			<point x="620" y="118"/>
			<point x="620" y="285" type="curve" smooth="yes"/>
			<point x="620" y="446"/>
			<point x="516" y="544"/>
			<point x="348" y="544" type="curve" smooth="yes"/>
			<point x="129" y="544"/>
			<point x="13" y="363"/>
			<point x="13" y="24" type="curve" smooth="yes"/>
			<point x="13" y="-77"/>
			<point x="15" y="-131"/>
			<point x="21" y="-225" type="curve"/>
		</contour>
		<contour>
			<point x="298" y="78" type="curve" smooth="yes"/>
			<point x="282" y="78"/>
			<point x="262" y="86"/>
			<point x="243" y="100" type="curve"/>
			<point x="250" y="334"/>
			<point x="281" y="446"/>
			<point x="339" y="446" type="curve" smooth="yes"/>
			<point x="379" y="446"/>
			<point x="397" y="406"/>
			<point x="397" y="317" type="curve" smooth="yes"/>
			<point x="397" y="169"/>
			<point x="359" y="78"/>
		</contour>
	</outline>
	<anchor name="top" x="336" y="550"/>
</glyph>
<glyph name="sigmafinal" format="2">
	<unicode hex="03C2"/>
	<advance width="601"/>
	<outline>
		<contour>
			<point x="349" y="-238" type="line"/>
			<point x="463" y="-156"/>
			<point x="507" y="-93"/>
			<point x="507" y="-12" type="curve" smooth="yes"/>
			<point x="507" y="63"/>
			<point x="471" y="103"/>
			<point x="350" y="164" type="curve" smooth="yes"/>
			<point x="278" y="200"/>
			<point x="253" y="237"/>
			<point x="253" y="305" type="curve" smooth="yes"/>
			<point x="253" y="387"/>
			<point x="305" y="449"/>
			<point x="374" y="449" type="curve" smooth="yes"/>
			<point x="397" y="449"/>
			<point x="413" y="435"/>
			<point x="413" y="416" type="curve" smooth="yes"/>
			<point x="413" y="405"/>
			<point x="409" y="395"/>
			<point x="401" y="385" type="curve" smooth="yes"/>
			<point x="376" y="350" type="line"/>
			<point x="388" y="319"/>
			<point x="428" y="297"/>
			<point x="470" y="297" type="curve" smooth="yes"/>
			<point x="525" y="297"/>
			<point x="565" y="335"/>
			<point x="565" y="389" type="curve" smooth="yes"/>
			<point x="565" y="481"/>
			<point x="484" y="541"/>
			<point x="360" y="541" type="curve" smooth="yes"/>
			<point x="166" y="541"/>
			<point x="45" y="428"/>
			<point x="45" y="249" type="curve" smooth="yes"/>
			<point x="44" y="118"/>
			<point x="89" y="58"/>
			<point x="245" y="-20" type="curve" smooth="yes"/>
			<point x="343" y="-71"/>
			<point x="349" y="-76"/>
			<point x="349" y="-106" type="curve" smooth="yes"/>
			<point x="349" y="-127"/>
			<point x="340" y="-142"/>
			<point x="299" y="-190" type="curve"/>
		</contour>
	</outline>
</glyph>
<glyph name="upsilon" format="2">
	<unicode hex="03C5"/>
	<advance width="625"/>
	<outline>
		<contour>
			<point x="252" y="-14" type="curve" smooth="yes"/>
			<point x="431" y="-14"/>
			<point x="578" y="164"/>
			<point x="578" y="380" type="curve" smooth="yes"/>
			<point x="578" y="488"/>
			<point x="539" y="542"/>
			<point x="461" y="542" type="curve" smooth="yes"/>
			<point x="399" y="542"/>
			<point x="365" y="495"/>
			<point x="377" y="425" type="curve"/>
			<point x="416" y="410" type="line" smooth="yes"/>
			<point x="471" y="390"/>
			<point x="479" y="380"/>
			<point x="479" y="329" type="curve" smooth="yes"/>
			<point x="479" y="196"/>
			<point x="403" y="79"/>
			<point x="318" y="80" type="curve" smooth="yes"/>
			<point x="282" y="80"/>
			<point x="264" y="101"/>
			<point x="264" y="142" type="curve" smooth="yes"/>
			<point x="264" y="196"/>
			<point x="309" y="390"/>
			<point x="309" y="442" type="curve" smooth="yes"/>
			<point x="309" y="505"/>
			<point x="264" y="542"/>
			<point x="187" y="542" type="curve" smooth="yes"/>
			<point x="141" y="542"/>
			<point x="65" y="523"/>
			<point x="8" y="496" type="curve"/>
			<point x="29" y="415" type="line"/>
			<point x="44" y="420"/>
			<point x="60" y="424"/>
			<point x="68" y="424" type="curve" smooth="yes"/>
			<point x="84" y="424"/>
			<point x="95" y="413"/>
			<point x="95" y="398" type="curve" smooth="yes"/>
			<point x="95" y="356"/>
			<point x="59" y="196"/>
			<point x="59" y="140" type="curve" smooth="yes"/>
			<point x="59" y="40"/>
			<point x="126" y="-14"/>
		</contour>
	</outline>
	<anchor name="top" x="350" y="550"/>
</glyph>
<glyph name="phi" format="2">
	<unicode hex="03C6"/>
	<advance width="876"/>
	<outline>
		<contour>
			<point x="292" y="-230" type="line"/>
			<point x="433" y="-213" type="line"/>
			<point x="471" y="-14" type="line"/>
			<point x="687" y="-7"/>
			<point x="837" y="138"/>
			<point x="837" y="339" type="curve" smooth="yes"/>
			<point x="837" y="479"/>
			<point x="755" y="546"/>
			<point x="582" y="546" type="curve" smooth="yes"/>
			<point x="451" y="546"/>
			<point x="371" y="480"/>
			<point x="352" y="357" type="curve" smooth="yes"/>
			<point x="311" y="83" type="line"/>
			<point x="272" y="97"/>
			<point x="247" y="146"/>
			<point x="247" y="210" type="curve" smooth="yes"/>
			<point x="247" y="326"/>
			<point x="299" y="456"/>
			<point x="360" y="494" type="curve"/>
			<point x="324" y="550" type="line"/>
			<point x="154" y="509"/>
			<point x="44" y="384"/>
			<point x="44" y="230" type="curve" smooth="yes"/>
			<point x="44" y="96"/>
			<point x="135" y="9"/>
			<point x="298" y="-13" type="curve"/>
			<point x="267" y="-210" type="line"/>
		</contour>
		<contour>
			<point x="489" y="83" type="curve"/>
			<point x="548" y="399" type="line" smooth="yes"/>
			<point x="556" y="441"/>
			<point x="570" y="460"/>
			<point x="593" y="460" type="curve" smooth="yes"/>
			<point x="618" y="460"/>
			<point x="632" y="436"/>
			<point x="632" y="393" type="curve" smooth="yes"/>
			<point x="632" y="260"/>
			<point x="559" y="102"/>
		</contour>
	</outline>
</glyph>
<glyph name="psi" format="2">
	<unicode hex="03C8"/>
	<advance width="882"/>
	<outline>
		<contour>
			<point x="339" y="-225" type="line"/>
			<point x="484" y="-203" type="line"/>
			<point x="513" y="-7" type="line"/>
			<point x="723" y="24"/>
			<point x="835" y="161"/>
			<point x="835" y="391" type="curve" smooth="yes"/>
			<point x="835" y="486"/>
			<point x="792" y="542"/>
			<point x="720" y="542" type="curve" smooth="yes"/>
			<point x="655" y="542"/>
			<point x="622" y="498"/>
			<point x="634" y="428" type="curve"/>
			<point x="677" y="413" type="line" smooth="yes"/>
			<point x="733" y="395"/>
			<point x="738" y="389"/>
			<point x="738" y="343" type="curve" smooth="yes"/>
			<point x="738" y="204"/>
			<point x="648" y="93"/>
			<point x="525" y="68" type="curve"/>
			<point x="616" y="677" type="line"/>
			<point x="448" y="677" type="line"/>
			<point x="336" y="76" type="line"/>
			<point x="284" y="89"/>
			<point x="260" y="114"/>
			<point x="260" y="151" type="curve" smooth="yes"/>
			<point x="260" y="214"/>
			<point x="304" y="371"/>
			<point x="304" y="443" type="curve" smooth="yes"/>
			<point x="304" y="510"/>
			<point x="265" y="542"/>
			<point x="182" y="542" type="curve" smooth="yes"/>
			<point x="124" y="542"/>
			<point x="53" y="526"/>
			<point x="8" y="504" type="curve"/>
			<point x="33" y="416" type="line"/>
			<point x="53" y="424"/>
			<point x="62" y="426"/>
			<point x="73" y="426" type="curve" smooth="yes"/>
			<point x="84" y="426"/>
			<point x="91" y="416"/>
			<point x="91" y="402" type="curve" smooth="yes"/>
			<point x="91" y="359"/>
			<point x="56" y="214"/>
			<point x="56" y="167" type="curve" smooth="yes"/>
			<point x="56" y="64"/>
			<point x="143" y="6"/>
			<point x="320" y="-9" type="curve"/>
			<point x="283" y="-208" type="line"/>
		</contour>
	</outline>
</glyph>
<glyph name="omega" format="2">
	<unicode hex="03C9"/>
	<advance width="924"/>
	<outline>
		<contour>
			<point x="268" y="-17" type="curve" smooth="yes"/>
			<point x="357" y="-17"/>
			<point x="430" y="29"/>
			<point x="451" y="98" type="curve"/>
			<point x="455" y="98" type="line"/>
			<point x="483" y="23"/>
			<point x="540" y="-17"/>
			<point x="619" y="-17" type="curve" smooth="yes"/>
			<point x="779" y="-17"/>
			<point x="878" y="95"/>
			<point x="878" y="276" type="curve" smooth="yes"/>
			<point x="878" y="383"/>
			<point x="842" y="482"/>
			<point x="786" y="530" type="curve"/>
			<point x="760" y="541" type="line"/>
			<point x="577" y="493" type="line"/>
			<point x="632" y="420"/>
			<point x="662" y="329"/>
			<point x="662" y="237" type="curve" smooth="yes"/>
			<point x="662" y="135"/>
			<point x="634" y="79"/>
			<point x="582" y="79" type="curve" smooth="yes"/>
			<point x="542" y="79"/>
			<point x="522" y="101"/>
			<point x="505" y="163" type="curve"/>
			<point x="542" y="216"/>
			<point x="558" y="262"/>
			<point x="558" y="314" type="curve" smooth="yes"/>
			<point x="558" y="377"/>
			<point x="519" y="423"/>
			<point x="465" y="423" type="curve" smooth="yes"/>
			<point x="404" y="423"/>
			<point x="365" y="374"/>
			<point x="365" y="297" type="curve" smooth="yes"/>
			<point x="365" y="255"/>
			<point x="377" y="215"/>
			<point x="405" y="163" type="curve"/>
			<point x="375" y="99"/>
			<point x="355" y="79"/>
			<point x="322" y="79" type="curve" smooth="yes"/>
			<point x="282" y="79"/>
			<point x="260" y="121"/>
			<point x="260" y="197" type="curve" smooth="yes"/>
			<point x="260" y="311"/>
			<point x="303" y="432"/>
			<point x="365" y="493" type="curve"/>
			<point x="296" y="543" type="line"/>
			<point x="144" y="494"/>
			<point x="48" y="366"/>
			<point x="48" y="212" type="curve" smooth="yes"/>
			<point x="48" y="69"/>
			<point x="131" y="-17"/>
		</contour>
	</outline>
	<anchor name="bottom" x="456" y="-30"/>
	<anchor name="top" x="484" y="550"/>
</glyph>
<glyph name="kaiSymbol" format="2">
	<unicode hex="03D7"/>
	<advance width="724"/>
	<outline>
		<contour>
			<point x="379" y="-229" type="curve" smooth="yes"/>
			<point x="577" y="-229"/>
			<point x="688" y="-150"/>
			<point x="688" y="-11" type="curve" smooth="yes"/>
			<point x="688" y="49"/>
			<point x="664" y="92"/>
			<point x="576" y="191" type="curve" smooth="yes"/>
			<point x="525" y="248"/>
			<point x="517" y="261"/>
			<point x="517" y="286" type="curve" smooth="yes"/>
			<point x="517" y="296"/>
			<point x="519" y="303"/>
			<point x="526" y="317" type="curve"/>
			<point x="569" y="341"/>
			<point x="634" y="354"/>
			<point x="695" y="352" type="curve"/>
			<point x="701" y="372" type="line"/>
			<point x="661" y="535" type="line"/>
			<point x="506" y="538"/>
			<point x="406" y="468"/>
			<point x="310" y="288" type="curve"/>
			<point x="307" y="288" type="line"/>
			<point x="326" y="376"/>
			<point x="336" y="426"/>
			<point x="336" y="442" type="curve" smooth="yes"/>
			<point x="336" y="510"/>
			<point x="298" y="541"/>
			<point x="216" y="541" type="curve" smooth="yes"/>
			<point x="161" y="541"/>
			<point x="81" y="523"/>
			<point x="44" y="502" type="curve"/>
			<point x="70" y="415" type="line"/>
			<point x="81" y="420"/>
			<point x="98" y="424"/>
			<point x="108" y="424" type="curve" smooth="yes"/>
			<point x="124" y="424"/>
			<point x="130" y="406"/>
			<point x="125" y="370" type="curve" smooth="yes"/>
			<point x="124" y="347"/>
			<point x="110" y="236"/>
			<point x="88" y="0" type="curve"/>
			<point x="264" y="0" type="line"/>
			<point x="307" y="108"/>
			<point x="342" y="174"/>
			<point x="392" y="239" type="curve"/>
			<point x="379" y="204"/>
			<point x="373" y="192"/>
			<point x="370" y="167" type="curve" smooth="yes"/>
			<point x="366" y="129"/>
			<point x="379" y="97"/>
			<point x="413" y="58" type="curve" smooth="yes"/>
			<point x="461" y="1"/>
			<point x="470" y="-14"/>
			<point x="470" y="-37" type="curve" smooth="yes"/>
			<point x="470" y="-102"/>
			<point x="441" y="-113"/>
			<point x="266" y="-113" type="curve"/>
			<point x="255" y="-210" type="line"/>
			<point x="267" y="-219"/>
			<point x="334" y="-229"/>
		</contour>
	</outline>
</glyph>
<glyph name="KoppaArchaic" format="2">
	<unicode hex="03D8"/>
	<advance width="870"/>
	<outline>
		<contour>
			<point x="345" y="-220" type="line"/>
			<point x="498" y="-208" type="line"/>
			<point x="498" y="-60"/>
			<point x="498" y="-29"/>
			<point x="499" y="-11" type="curve"/>
			<point x="709" y="20"/>
			<point x="831" y="168"/>
			<point x="831" y="392" type="curve" smooth="yes"/>
			<point x="831" y="601"/>
			<point x="703" y="717"/>
			<point x="471" y="717" type="curve" smooth="yes"/>
			<point x="210" y="717"/>
			<point x="58" y="570"/>
			<point x="58" y="317" type="curve" smooth="yes"/>
			<point x="58" y="127"/>
			<point x="163" y="9"/>
			<point x="349" y="-12" type="curve"/>
			<point x="344" y="-88"/>
			<point x="334" y="-155"/>
			<point x="327" y="-209" type="curve"/>
		</contour>
		<contour>
			<point x="510" y="119" type="curve"/>
			<point x="519" y="202"/>
			<point x="525" y="235"/>
			<point x="528" y="255" type="curve"/>
			<point x="510" y="266" type="line"/>
			<point x="357" y="254" type="line"/>
			<point x="359" y="223"/>
			<point x="359" y="154"/>
			<point x="357" y="120" type="curve"/>
			<point x="313" y="148"/>
			<point x="293" y="212"/>
			<point x="293" y="323" type="curve" smooth="yes"/>
			<point x="293" y="510"/>
			<point x="348" y="607"/>
			<point x="454" y="607" type="curve" smooth="yes"/>
			<point x="551" y="607"/>
			<point x="593" y="542"/>
			<point x="593" y="392" type="curve" smooth="yes"/>
			<point x="593" y="243"/>
			<point x="566" y="153"/>
		</contour>
	</outline>
</glyph>
<glyph name="stigma" format="2">
	<unicode hex="03DB"/>
	<advance width="629"/>
	<outline>
		<contour>
			<point x="350" y="-238" type="line"/>
			<point x="464" y="-156"/>
			<point x="508" y="-93"/>
			<point x="508" y="-12" type="curve" smooth="yes"/>
			<point x="508" y="63"/>
			<point x="472" y="103"/>
			<point x="351" y="164" type="curve" smooth="yes"/>
			<point x="249" y="216"/>
			<point x="224" y="241"/>
			<point x="224" y="291" type="curve" smooth="yes"/>
			<point x="224" y="359"/>
			<point x="292" y="389"/>
			<point x="443" y="389" type="curve" smooth="yes"/>
			<point x="544" y="389"/>
			<point x="589" y="422"/>
			<point x="597" y="502" type="curve" smooth="yes"/>
			<point x="600" y="535"/>
			<point x="583" y="587"/>
			<point x="559" y="619" type="curve"/>
			<point x="478" y="603" type="line"/>
			<point x="480" y="598"/>
			<point x="481" y="584"/>
			<point x="481" y="569" type="curve" smooth="yes"/>
			<point x="481" y="539"/>
			<point x="471" y="536"/>
			<point x="362" y="534" type="curve" smooth="yes"/>
			<point x="160" y="530"/>
			<point x="46" y="434"/>
			<point x="45" y="268" type="curve" smooth="yes"/>
			<point x="45" y="136"/>
			<point x="106" y="50"/>
			<point x="246" y="-20" type="curve" smooth="yes"/>
			<point x="344" y="-71"/>
			<point x="350" y="-76"/>
			<point x="350" y="-106" type="curve" smooth="yes"/>
			<point x="350" y="-127"/>
			<point x="341" y="-142"/>
			<point x="300" y="-190" type="curve"/>
		</contour>
	</outline>
</glyph>
<glyph name="digamma" format="2">
	<unicode hex="03DD"/>
	<advance width="427"/>
	<outline>
		<contour>
			<point x="54" y="0" type="line"/>
			<point x="241" y="0" type="line"/>
			<point x="257" y="435" type="line"/>
			<point x="394" y="435" type="line"/>
			<point x="399" y="527" type="line"/>
			<point x="258" y="527" type="line"/>
			<point x="263" y="614" type="line" smooth="yes"/>
			<point x="266" y="673"/>
			<point x="290" y="705"/>
			<point x="331" y="705" type="curve" smooth="yes"/>
			<point x="367" y="705"/>
			<point x="376" y="685"/>
			<point x="358" y="646" type="curve" smooth="yes"/>
			<point x="344" y="616" type="line"/>
			<point x="359" y="598"/>
			<point x="396" y="583"/>
			<point x="425" y="583" type="curve" smooth="yes"/>
			<point x="482" y="583"/>
			<point x="521" y="616"/>
			<point x="521" y="666" type="curve" smooth="yes"/>
			<point x="521" y="739"/>
			<point x="445" y="784"/>
			<point x="322" y="784" type="curve" smooth="yes"/>
			<point x="173" y="784"/>
			<point x="64" y="696"/>
			<point x="55" y="570" type="curve" smooth="yes"/>
			<point x="52" y="528" type="line"/>
			<point x="-28" y="520" type="line"/>
			<point x="-37" y="435" type="line"/>
			<point x="49" y="435" type="line"/>
			<point x="31" y="21" type="line"/>
		</contour>
	</outline>
</glyph>
<glyph name="Koppa" format="2">
	<unicode hex="03DE"/>
	<advance width="591"/>
	<outline>
		<contour>
			<point x="320" y="-104" type="curve" smooth="yes"/>
			<point x="369" y="-104"/>
			<point x="424" y="-85"/>
			<point x="461" y="-55" type="curve"/>
			<point x="449" y="25" type="line"/>
			<point x="440" y="22"/>
			<point x="427" y="19"/>
			<point x="419" y="19" type="curve" smooth="yes"/>
			<point x="391" y="19"/>
			<point x="376" y="32"/>
			<point x="376" y="55" type="curve" smooth="yes"/>
			<point x="376" y="88"/>
			<point x="394" y="121"/>
			<point x="442" y="176" type="curve" smooth="yes"/>
			<point x="557" y="312" type="line"/>
			<point x="504" y="408" type="line"/>
			<point x="283" y="292" type="line"/>
			<point x="388" y="384"/>
			<point x="420" y="430"/>
			<point x="420" y="490" type="curve" smooth="yes"/>
			<point x="420" y="558"/>
			<point x="367" y="599"/>
			<point x="281" y="599" type="curve" smooth="yes"/>
			<point x="232" y="599"/>
			<point x="177" y="580"/>
			<point x="140" y="550" type="curve"/>
			<point x="152" y="470" type="line"/>
			<point x="161" y="473"/>
			<point x="174" y="476"/>
			<point x="182" y="476" type="curve" smooth="yes"/>
			<point x="210" y="476"/>
			<point x="225" y="463"/>
			<point x="225" y="440" type="curve" smooth="yes"/>
			<point x="225" y="407"/>
			<point x="207" y="374"/>
			<point x="160" y="320" type="curve" smooth="yes"/>
			<point x="45" y="185" type="line"/>
			<point x="99" y="87" type="line"/>
			<point x="320" y="205" type="line"/>
			<point x="213" y="110"/>
			<point x="180" y="63"/>
			<point x="180" y="6" type="curve" smooth="yes"/>
			<point x="180" y="-61"/>
			<point x="235" y="-104"/>
		</contour>
	</outline>
</glyph>
<glyph name="koppa" format="2">
	<unicode hex="03DF"/>
	<advance width="541"/>
	<outline>
		<contour>
			<point x="290" y="-93" type="curve" smooth="yes"/>
			<point x="339" y="-93"/>
			<point x="403" y="-74"/>
			<point x="448" y="-45" type="curve"/>
			<point x="435" y="35" type="line"/>
			<point x="426" y="31"/>
			<point x="416" y="29"/>
			<point x="406" y="29" type="curve" smooth="yes"/>
			<point x="388" y="29"/>
			<point x="376" y="39"/>
			<point x="376" y="55" type="curve" smooth="yes"/>
			<point x="376" y="74"/>
			<point x="383" y="88"/>
			<point x="411" y="124" type="curve" smooth="yes"/>
			<point x="514" y="255" type="line"/>
			<point x="517" y="321" type="line"/>
			<point x="249" y="320" type="line"/>
			<point x="308" y="372" type="line" smooth="yes"/>
			<point x="357" y="416"/>
			<point x="383" y="464"/>
			<point x="383" y="510" type="curve" smooth="yes"/>
			<point x="383" y="574"/>
			<point x="339" y="611"/>
			<point x="264" y="611" type="curve" smooth="yes"/>
			<point x="214" y="611"/>
			<point x="148" y="591"/>
			<point x="105" y="563" type="curve"/>
			<point x="118" y="483" type="line"/>
			<point x="128" y="487"/>
			<point x="137" y="489"/>
			<point x="147" y="489" type="curve" smooth="yes"/>
			<point x="166" y="489"/>
			<point x="178" y="479"/>
			<point x="178" y="462" type="curve" smooth="yes"/>
			<point x="178" y="443"/>
			<point x="170" y="428"/>
			<point x="142" y="394" type="curve" smooth="yes"/>
			<point x="41" y="269" type="line"/>
			<point x="37" y="203" type="line"/>
			<point x="302" y="203" type="line"/>
			<point x="245" y="146" type="line" smooth="yes"/>
			<point x="193" y="93"/>
			<point x="170" y="50"/>
			<point x="170" y="8" type="curve" smooth="yes"/>
			<point x="170" y="-56"/>
			<point x="214" y="-93"/>
		</contour>
	</outline>
</glyph>
<glyph name="Sampi" format="2">
	<unicode hex="03E0"/>
	<advance width="864"/>
	<outline>
		<contour>
			<point x="291" y="-230" type="line"/>
			<point x="359" y="-185" type="line"/>
			<point x="355" y="-168" type="line" smooth="yes"/>
			<point x="351" y="-147"/>
			<point x="356" y="-138"/>
			<point x="383" y="-119" type="curve" smooth="yes"/>
			<point x="631" y="47" type="line"/>
			<point x="631" y="24"/>
			<point x="630" y="7"/>
			<point x="629" y="-17" type="curve" smooth="yes"/>
			<point x="628" y="-47"/>
			<point x="621" y="-127"/>
			<point x="616" y="-170" type="curve"/>
			<point x="784" y="-172" type="line"/>
			<point x="792" y="-120"/>
			<point x="800" y="-7"/>
			<point x="800" y="51" type="curve" smooth="yes"/>
			<point x="800" y="416"/>
			<point x="626" y="563"/>
			<point x="196" y="563" type="curve"/>
			<point x="184" y="407" type="line"/>
			<point x="259" y="407"/>
			<point x="328" y="399"/>
			<point x="393" y="384" type="curve"/>
			<point x="163" y="229" type="line" smooth="yes"/>
			<point x="138" y="211"/>
			<point x="127" y="210"/>
			<point x="109" y="223" type="curve" smooth="yes"/>
			<point x="95" y="231" type="line"/>
			<point x="29" y="186" type="line"/>
			<point x="153" y="-9" type="line"/>
			<point x="220" y="36" type="line"/>
			<point x="218" y="53" type="line" smooth="yes"/>
			<point x="214" y="78"/>
			<point x="216" y="81"/>
			<point x="246" y="102" type="curve" smooth="yes"/>
			<point x="544" y="303" type="line"/>
			<point x="570" y="277"/>
			<point x="589" y="246"/>
			<point x="602" y="211" type="curve"/>
			<point x="302" y="8" type="line" smooth="yes"/>
			<point x="275" y="-10"/>
			<point x="266" y="-11"/>
			<point x="246" y="2" type="curve" smooth="yes"/>
			<point x="233" y="11" type="line"/>
			<point x="166" y="-35" type="line"/>
		</contour>
	</outline>
</glyph>
<glyph name="sampi" format="2">
	<unicode hex="03E1"/>
	<advance width="600"/>
	<outline>
		<contour>
			<point x="515" y="-255" type="line"/>
			<point x="584" y="-129"/>
			<point x="614" y="-31"/>
			<point x="620" y="90" type="curve" smooth="yes"/>
			<point x="635" y="380"/>
			<point x="460" y="559"/>
			<point x="149" y="573" type="curve"/>
			<point x="118" y="477" type="line"/>
			<point x="223" y="453"/>
			<point x="303" y="415"/>
			<point x="359" y="362" type="curve"/>
			<point x="202" y="305" type="line" smooth="yes"/>
			<point x="138" y="282"/>
			<point x="131" y="283"/>
			<point x="116" y="307" type="curve" smooth="yes"/>
			<point x="110" y="316" type="line"/>
			<point x="40" y="292" type="line"/>
			<point x="99" y="121" type="line"/>
			<point x="169" y="147" type="line"/>
			<point x="168" y="158" type="line"/>
			<point x="164" y="185"/>
			<point x="169" y="189"/>
			<point x="235" y="213" type="curve" smooth="yes"/>
			<point x="423" y="277" type="line"/>
			<point x="443" y="236"/>
			<point x="455" y="190"/>
			<point x="458" y="139" type="curve"/>
			<point x="281" y="75" type="line" smooth="yes"/>
			<point x="218" y="52"/>
			<point x="210" y="53"/>
			<point x="195" y="77" type="curve" smooth="yes"/>
			<point x="189" y="86" type="line"/>
			<point x="119" y="62" type="line"/>
			<point x="178" y="-109" type="line"/>
			<point x="249" y="-84" type="line"/>
			<point x="248" y="-73" type="line"/>
			<point x="243" y="-45"/>
			<point x="249" y="-40"/>
			<point x="315" y="-18" type="curve" smooth="yes"/>
			<point x="453" y="31" type="line"/>
			<point x="441" y="-47"/>
			<point x="416" y="-133"/>
			<point x="377" y="-225" type="curve"/>
		</contour>
	</outline>
</glyph>
<glyph name="Dje-cy" format="2">
	<unicode hex="0402"/>
	<advance width="942"/>
	<outline>
		<contour>
			<point x="185" y="91" type="line"/>
			<point x="180" y="0" type="line"/>
			<point x="571" y="0" type="line"/>
			<point x="576" y="88" type="line"/>
			<point x="501" y="105" type="line"/>
			<point x="512" y="328" type="line"/>
			<point x="535" y="338"/>
			<point x="569" y="345"/>
			<point x="601" y="345" type="curve" smooth="yes"/>
			<point x="665" y="345"/>
			<point x="707" y="313"/>
			<point x="707" y="240" type="curve" smooth="yes"/>
			<point x="707" y="162"/>
			<point x="690" y="72"/>
			<point x="624" y="-42" type="curve"/>
			<point x="677" y="-106" type="line"/>
			<point x="842" y="19"/>
			<point x="932" y="143"/>
			<point x="932" y="273" type="curve" smooth="yes"/>
			<point x="932" y="390"/>
			<point x="857" y="464"/>
			<point x="690" y="464" type="curve" smooth="yes"/>
			<point x="625" y="464"/>
			<point x="567" y="452"/>
			<point x="518" y="434" type="curve"/>
			<point x="527" y="606" type="line"/>
			<point x="585" y="606" type="line" smooth="yes"/>
			<point x="631" y="606"/>
			<point x="653" y="599"/>
			<point x="668" y="537" type="curve" smooth="yes"/>
			<point x="677" y="499" type="line"/>
			<point x="787" y="512" type="line"/>
			<point x="769" y="700" type="line"/>
			<point x="71" y="700" type="line"/>
			<point x="39" y="469" type="line"/>
			<point x="152" y="458" type="line"/>
			<point x="175" y="537" type="line" smooth="yes"/>
			<point x="190" y="590"/>
			<point x="205" y="606"/>
			<point x="255" y="606" type="curve" smooth="yes"/>
			<point x="298" y="606" type="line"/>
			<point x="272" y="105" type="line"/>
		</contour>
	</outline>
</glyph>
<glyph name="Lje-cy" format="2">
	<unicode hex="0409"/>
	<advance width="1072"/>
	<outline>
		<contour>
			<point x="506" y="591" type="line"/>
			<point x="482" y="107" type="line"/>
			<point x="389" y="93" type="line"/>
			<point x="382" y="0" type="line"/>
			<point x="749" y="0" type="line" smooth="yes"/>
			<point x="968" y="0"/>
			<point x="1098" y="86"/>
			<point x="1098" y="243" type="curve" smooth="yes"/>
			<point x="1098" y="359"/>
			<point x="1005" y="429"/>
			<point x="859" y="429" type="curve" smooth="yes"/>
			<point x="809" y="429"/>
			<point x="786" y="426"/>
			<point x="749" y="419" type="curve"/>
			<point x="747" y="328" type="line"/>
			<point x="757" y="329"/>
			<point x="767" y="329"/>
			<point x="786" y="329" type="curve" smooth="yes"/>
			<point x="843" y="329"/>
			<point x="876" y="296"/>
			<point x="876" y="232" type="curve" smooth="yes"/>
			<point x="876" y="141"/>
			<point x="810" y="106"/>
			<point x="728" y="106" type="curve" smooth="yes"/>
			<point x="711" y="106" type="line"/>
			<point x="735" y="595" type="line"/>
			<point x="817" y="609" type="line"/>
			<point x="822" y="700" type="line"/>
			<point x="174" y="700" type="line"/>
			<point x="168" y="614" type="line"/>
			<point x="257" y="597" type="line"/>
			<point x="242" y="360"/>
			<point x="220" y="232"/>
			<point x="162" y="127" type="curve"/>
			<point x="102" y="212" type="line"/>
			<point x="43" y="212"/>
			<point x="-13" y="171"/>
			<point x="-13" y="101" type="curve" smooth="yes"/>
			<point x="-13" y="29"/>
			<point x="42" y="-15"/>
			<point x="115" y="-15" type="curve" smooth="yes"/>
			<point x="296" y="-15"/>
			<point x="339" y="310"/>
			<point x="363" y="591" type="curve"/>
		</contour>
	</outline>
</glyph>
<glyph name="Be-cy" format="2">
	<unicode hex="0411"/>
	<advance width="755"/>
	<outline>
		<contour>
			<point x="35" y="93" type="line"/>
			<point x="28" y="0" type="line"/>
			<point x="395" y="0" type="line" smooth="yes"/>
			<point x="614" y="0"/>
			<point x="744" y="86"/>
			<point x="744" y="243" type="curve" smooth="yes"/>
			<point x="744" y="359"/>
			<point x="651" y="429"/>
			<point x="505" y="429" type="curve" smooth="yes"/>
			<point x="455" y="429"/>
			<point x="432" y="426"/>
			<point x="395" y="419" type="curve"/>
			<point x="393" y="328" type="line"/>
			<point x="403" y="329"/>
			<point x="413" y="329"/>
			<point x="432" y="329" type="curve" smooth="yes"/>
			<point x="489" y="329"/>
			<point x="522" y="296"/>
			<point x="522" y="232" type="curve" smooth="yes"/>
			<point x="522" y="141"/>
			<point x="456" y="106"/>
			<point x="374" y="106" type="curve" smooth="yes"/>
			<point x="357" y="106" type="line"/>
			<point x="381" y="596" type="line"/>
			<point x="479" y="596" type="line" smooth="yes"/>
			<point x="541" y="596"/>
			<point x="560" y="587"/>
			<point x="573" y="532" type="curve" smooth="yes"/>
			<point x="591" y="458" type="line"/>
			<point x="700" y="468" type="line"/>
			<point x="681" y="700" type="line"/>
			<point x="62" y="700" type="line"/>
			<point x="55" y="613" type="line"/>
			<point x="152" y="596" type="line"/>
			<point x="128" y="107" type="line"/>
		</contour>
	</outline>
	<guideline x="333" y="591" angle="0"/>
</glyph>
<glyph name="Ze-cy" format="2">
	<unicode hex="0417"/>
	<advance width="600"/>
	<outline>
		<contour>
			<point x="20" y="556" type="curve"/>
			<point x="102" y="491" type="line"/>
			<point x="151" y="553"/>
			<point x="207" y="586"/>
			<point x="281" y="586" type="curve" smooth="yes"/>
			<point x="345" y="586"/>
			<point x="379" y="561"/>
			<point x="379" y="513" type="curve" smooth="yes"/>
			<point x="379" y="460"/>
			<point x="344" y="428"/>
			<point x="279" y="413" type="curve" smooth="yes"/>
			<point x="253" y="407"/>
			<point x="171" y="401"/>
			<point x="132" y="399" type="curve"/>
			<point x="127" y="304" type="line"/>
			<point x="167" y="308"/>
			<point x="231" y="309"/>
			<point x="271" y="309" type="curve" smooth="yes"/>
			<point x="343" y="309"/>
			<point x="385" y="278"/>
			<point x="385" y="217" type="curve" smooth="yes"/>
			<point x="385" y="137"/>
			<point x="332" y="92"/>
			<point x="250" y="92" type="curve" smooth="yes"/>
			<point x="177" y="92"/>
			<point x="133" y="132"/>
			<point x="161" y="189" type="curve" smooth="yes"/>
			<point x="179" y="225" type="line"/>
			<point x="155" y="252"/>
			<point x="111" y="268"/>
			<point x="74" y="268" type="curve" smooth="yes"/>
			<point x="24" y="268"/>
			<point x="-16" y="226"/>
			<point x="-16" y="171" type="curve" smooth="yes"/>
			<point x="-16" y="61"/>
			<point x="97" y="-16"/>
			<point x="273" y="-16" type="curve" smooth="yes"/>
			<point x="479" y="-16"/>
			<point x="607" y="73"/>
			<point x="607" y="204" type="curve" smooth="yes"/>
			<point x="607" y="302"/>
			<point x="526" y="358"/>
			<point x="393" y="369" type="curve"/>
			<point x="393" y="374" type="line"/>
			<point x="522" y="393"/>
			<point x="590" y="463"/>
			<point x="590" y="549" type="curve" smooth="yes"/>
			<point x="590" y="648"/>
			<point x="498" y="715"/>
			<point x="337" y="715" type="curve" smooth="yes"/>
			<point x="199" y="715"/>
			<point x="97" y="666"/>
		</contour>
	</outline>
	<guideline x="300" y="-14" angle="0"/>
</glyph>
<glyph name="Ii-cy" format="2">
	<unicode hex="0418"/>
	<advance width="910"/>
	<outline>
		<contour>
			<point x="577" y="384" type="line"/>
			<point x="562" y="104" type="line"/>
			<point x="488" y="92" type="line"/>
			<point x="482" y="0" type="line"/>
			<point x="883" y="0" type="line"/>
			<point x="889" y="94" type="line"/>
			<point x="791" y="107" type="line"/>
			<point x="816" y="595" type="line"/>
			<point x="903" y="609" type="line"/>
			<point x="908" y="700" type="line"/>
			<point x="517" y="700" type="line"/>
			<point x="512" y="612" type="line"/>
			<point x="587" y="595" type="line"/>
			<point x="581" y="513" type="line"/>
			<point x="357" y="317" type="line"/>
			<point x="372" y="598" type="line"/>
			<point x="449" y="612" type="line"/>
			<point x="453" y="700" type="line"/>
			<point x="60" y="700" type="line"/>
			<point x="54" y="614" type="line"/>
			<point x="143" y="597" type="line"/>
			<point x="119" y="102" type="line"/>
			<point x="34" y="91" type="line"/>
			<point x="28" y="0" type="line"/>
			<point x="421" y="0" type="line"/>
			<point x="427" y="92" type="line"/>
			<point x="348" y="107" type="line"/>
			<point x="352" y="188" type="line"/>
		</contour>
	</outline>
	<anchor name="top" x="485" y="730"/>
</glyph>
<glyph name="Pe-cy" format="2">
	<unicode hex="041F"/>
	<advance width="905"/>
	<outline>
		<contour>
			<point x="28" y="0" type="line"/>
			<point x="421" y="0" type="line"/>
			<point x="427" y="92" type="line"/>
			<point x="348" y="107" type="line"/>
			<point x="371" y="591" type="line"/>
			<point x="582" y="591" type="line"/>
			<point x="557" y="104" type="line"/>
			<point x="483" y="92" type="line"/>
			<point x="477" y="0" type="line"/>
			<point x="878" y="0" type="line"/>
			<point x="884" y="94" type="line"/>
			<point x="786" y="107" type="line"/>
			<point x="811" y="595" type="line"/>
			<point x="898" y="609" type="line"/>
			<point x="903" y="700" type="line"/>
			<point x="60" y="700" type="line"/>
			<point x="54" y="614" type="line"/>
			<point x="143" y="597" type="line"/>
			<point x="119" y="102" type="line"/>
			<point x="34" y="91" type="line"/>
		</contour>
	</outline>
</glyph>
<glyph name="U-cy" format="2">
	<unicode hex="0423"/>
	<advance width="722"/>
	<outline>
		<contour>
			<point x="454" y="347" type="line"/>
			<point x="316" y="597" type="line"/>
			<point x="404" y="610" type="line"/>
			<point x="404" y="700" type="line"/>
			<point x="15" y="700" type="line"/>
			<point x="8" y="610" type="line"/>
			<point x="74" y="595" type="line"/>
			<point x="341" y="151" type="line"/>
			<point x="327" y="128"/>
			<point x="307" y="106"/>
			<point x="288" y="106" type="curve" smooth="yes"/>
			<point x="281" y="106"/>
			<point x="277" y="106"/>
			<point x="270" y="108" type="curve"/>
			<point x="242" y="207" type="line"/>
			<point x="164" y="207"/>
			<point x="100" y="166"/>
			<point x="100" y="98" type="curve" smooth="yes"/>
			<point x="100" y="31"/>
			<point x="147" y="-14"/>
			<point x="232" y="-14" type="curve" smooth="yes"/>
			<point x="366" y="-14"/>
			<point x="448" y="102"/>
			<point x="525" y="253" type="curve" smooth="yes"/>
			<point x="572" y="345"/>
			<point x="630" y="474"/>
			<point x="675" y="592" type="curve"/>
			<point x="753" y="609" type="line"/>
			<point x="760" y="700" type="line"/>
			<point x="486" y="700" type="line"/>
			<point x="480" y="613" type="line"/>
			<point x="563" y="595" type="line"/>
			<point x="540" y="526"/>
			<point x="504" y="433"/>
			<point x="460" y="347" type="curve"/>
		</contour>
	</outline>
	<anchor name="top" x="411" y="730"/>
</glyph>
<glyph name="Che-cy" format="2">
	<unicode hex="0427"/>
	<advance width="845"/>
	<outline>
		<contour>
			<point x="505" y="266" type="curve"/>
			<point x="497" y="104" type="line"/>
			<point x="403" y="92" type="line"/>
			<point x="397" y="0" type="line"/>
			<point x="818" y="0" type="line"/>
			<point x="824" y="94" type="line"/>
			<point x="726" y="107" type="line"/>
			<point x="751" y="595" type="line"/>
			<point x="838" y="609" type="line"/>
			<point x="843" y="700" type="line"/>
			<point x="452" y="700" type="line"/>
			<point x="447" y="612" type="line"/>
			<point x="522" y="595" type="line"/>
			<point x="511" y="372" type="line"/>
			<point x="488" y="362"/>
			<point x="454" y="355"/>
			<point x="411" y="355" type="curve" smooth="yes"/>
			<point x="340" y="355"/>
			<point x="305" y="392"/>
			<point x="305" y="461" type="curve" smooth="yes"/>
			<point x="305" y="506"/>
			<point x="308" y="547"/>
			<point x="314" y="598" type="curve"/>
			<point x="391" y="612" type="line"/>
			<point x="395" y="700" type="line"/>
			<point x="2" y="700" type="line"/>
			<point x="-4" y="614" type="line"/>
			<point x="85" y="597" type="line"/>
			<point x="80" y="560"/>
			<point x="76" y="523"/>
			<point x="76" y="446" type="curve" smooth="yes"/>
			<point x="76" y="310"/>
			<point x="174" y="236"/>
			<point x="333" y="236" type="curve" smooth="yes"/>
			<point x="398" y="236"/>
			<point x="456" y="244"/>
		</contour>
	</outline>
</glyph>
<glyph name="Shcha-cy" format="2">
	<unicode hex="0429"/>
	<advance width="1280"/>
	<outline>
		<contour>
			<point x="349" y="109" type="line"/>
			<point x="372" y="598" type="line"/>
			<point x="449" y="612" type="line"/>
			<point x="453" y="700" type="line"/>
			<point x="60" y="700" type="line"/>
			<point x="54" y="614" type="line"/>
			<point x="143" y="597" type="line"/>
			<point x="119" y="102" type="line"/>
			<point x="34" y="91" type="line"/>
			<point x="28" y="0" type="line"/>
			<point x="1060" y="0" type="line" smooth="yes"/>
			<point x="1119" y="0"/>
			<point x="1135" y="-16"/>
			<point x="1145" y="-92" type="curve" smooth="yes"/>
			<point x="1152" y="-148" type="line"/>
			<point x="1261" y="-152" type="line"/>
			<point x="1288" y="109" type="line"/>
			<point x="1171" y="109" type="line"/>
			<point x="1196" y="595" type="line"/>
			<point x="1283" y="609" type="line"/>
			<point x="1288" y="700" type="line"/>
			<point x="897" y="700" type="line"/>
			<point x="892" y="612" type="line"/>
			<point x="967" y="595" type="line"/>
			<point x="944" y="109" type="line"/>
			<point x="760" y="109" type="line"/>
			<point x="785" y="595" type="line"/>
			<point x="861" y="609" type="line"/>
			<point x="866" y="700" type="line"/>
			<point x="486" y="700" type="line"/>
			<point x="481" y="612" type="line"/>
			<point x="556" y="595" type="line"/>
			<point x="533" y="109" type="line"/>
		</contour>
	</outline>
</glyph>
<glyph name="Yeru-cy" format="2">
	<unicode hex="042B"/>
	<advance width="1141"/>
	<outline>
		<contour>
			<point x="152" y="597" type="line"/>
			<point x="128" y="107" type="line"/>
			<point x="35" y="93" type="line"/>
			<point x="28" y="0" type="line"/>
			<point x="395" y="0" type="line" smooth="yes"/>
			<point x="614" y="0"/>
			<point x="734" y="86"/>
			<point x="734" y="243" type="curve" smooth="yes"/>
			<point x="734" y="359"/>
			<point x="641" y="429"/>
			<point x="499" y="429" type="curve" smooth="yes"/>
			<point x="459" y="429"/>
			<point x="432" y="426"/>
			<point x="395" y="419" type="curve"/>
			<point x="393" y="328" type="line"/>
			<point x="403" y="329"/>
			<point x="410" y="329"/>
			<point x="421" y="329" type="curve" smooth="yes"/>
			<point x="478" y="329"/>
			<point x="512" y="296"/>
			<point x="512" y="232" type="curve" smooth="yes"/>
			<point x="512" y="141"/>
			<point x="456" y="106"/>
			<point x="374" y="106" type="curve" smooth="yes"/>
			<point x="357" y="106" type="line"/>
			<point x="381" y="598" type="line"/>
			<point x="458" y="612" type="line"/>
			<point x="462" y="700" type="line"/>
			<point x="69" y="700" type="line"/>
			<point x="63" y="614" type="line"/>
		</contour>
		<contour>
			<point x="818" y="595" type="line"/>
			<point x="793" y="104" type="line"/>
			<point x="719" y="92" type="line"/>
			<point x="713" y="0" type="line"/>
			<point x="1114" y="0" type="line"/>
			<point x="1120" y="94" type="line"/>
			<point x="1022" y="107" type="line"/>
			<point x="1047" y="595" type="line"/>
			<point x="1134" y="609" type="line"/>
			<point x="1139" y="700" type="line"/>
			<point x="748" y="700" type="line"/>
			<point x="743" y="612" type="line"/>
		</contour>
	</outline>
	<anchor name="top" x="594" y="730"/>
</glyph>
<glyph name="Iu-cy" format="2">
	<unicode hex="042E"/>
	<advance width="1222"/>
	<outline>
		<contour>
			<point x="358" y="299" type="line"/>
			<point x="440" y="299" type="line"/>
			<point x="448" y="112"/>
			<point x="578" y="-16"/>
			<point x="786" y="-16" type="curve" smooth="yes"/>
			<point x="1031" y="-16"/>
			<point x="1183" y="146"/>
			<point x="1183" y="382" type="curve" smooth="yes"/>
			<point x="1183" y="586"/>
			<point x="1061" y="717"/>
			<point x="833" y="717" type="curve" smooth="yes"/>
			<point x="614" y="717"/>
			<point x="479" y="604"/>
			<point x="447" y="408" type="curve"/>
			<point x="363" y="408" type="line"/>
			<point x="372" y="598" type="line"/>
			<point x="449" y="612" type="line"/>
			<point x="453" y="700" type="line"/>
			<point x="60" y="700" type="line"/>
			<point x="54" y="614" type="line"/>
			<point x="143" y="597" type="line"/>
			<point x="119" y="102" type="line"/>
			<point x="34" y="91" type="line"/>
			<point x="28" y="0" type="line"/>
			<point x="421" y="0" type="line"/>
			<point x="427" y="92" type="line"/>
			<point x="348" y="107" type="line"/>
		</contour>
		<contour>
			<point x="680" y="296" type="curve" smooth="yes"/>
			<point x="680" y="443"/>
			<point x="708" y="607"/>
			<point x="828" y="607" type="curve" smooth="yes"/>
			<point x="910" y="607"/>
			<point x="941" y="526"/>
			<point x="941" y="399" type="curve" smooth="yes"/>
			<point x="941" y="240"/>
			<point x="912" y="100"/>
			<point x="799" y="100" type="curve" smooth="yes"/>
			<point x="716" y="100"/>
			<point x="680" y="174"/>
		</contour>
	</outline>
	<anchor name="top" x="788" y="730"/>
</glyph>
<glyph name="Ia-cy" format="2">
	<unicode hex="042F"/>
	<advance width="840"/>
	<outline>
		<contour>
			<point x="527" y="605" type="line"/>
			<point x="502" y="107" type="line"/>
			<point x="425" y="93" type="line"/>
			<point x="419" y="0" type="line"/>
			<point x="812" y="0" type="line"/>
			<point x="818" y="93" type="line"/>
			<point x="734" y="109" type="line"/>
			<point x="753" y="595" type="line"/>
			<point x="837" y="612" type="line"/>
			<point x="839" y="700" type="line"/>
			<point x="423" y="700" type="line" smooth="yes"/>
			<point x="231" y="700"/>
			<point x="120" y="637"/>
			<point x="111" y="524" type="curve" smooth="yes"/>
			<point x="103" y="425"/>
			<point x="191" y="340"/>
			<point x="346" y="333" type="curve"/>
			<point x="345" y="328" type="line"/>
			<point x="250" y="317"/>
			<point x="195" y="290"/>
			<point x="151" y="208" type="curve" smooth="yes"/>
			<point x="115" y="141"/>
			<point x="99" y="120"/>
			<point x="65" y="120" type="curve" smooth="yes"/>
			<point x="50" y="120"/>
			<point x="38" y="124"/>
			<point x="22" y="131" type="curve"/>
			<point x="-6" y="44" type="line"/>
			<point x="26" y="11"/>
			<point x="92" y="-14"/>
			<point x="146" y="-14" type="curve" smooth="yes"/>
			<point x="246" y="-14"/>
			<point x="295" y="4"/>
			<point x="353" y="151" type="curve" smooth="yes"/>
			<point x="380" y="220"/>
			<point x="407" y="283"/>
			<point x="444" y="286" type="curve" smooth="yes"/>
			<point x="492" y="290" type="line"/>
			<point x="496" y="381" type="line"/>
			<point x="490" y="380"/>
			<point x="464" y="379"/>
			<point x="447" y="379" type="curve" smooth="yes"/>
			<point x="391" y="379"/>
			<point x="343" y="425"/>
			<point x="349" y="499" type="curve" smooth="yes"/>
			<point x="354" y="564"/>
			<point x="400" y="605"/>
			<point x="468" y="605" type="curve" smooth="yes"/>
		</contour>
	</outline>
	<anchor name="top" x="477" y="730"/>
</glyph>
<glyph name="be-cy" format="2">
	<unicode hex="0431"/>
	<advance width="691"/>
	<outline>
		<contour>
			<point x="323" y="-16" type="curve" smooth="yes"/>
			<point x="538" y="-16"/>
			<point x="652" y="148"/>
			<point x="652" y="294" type="curve" smooth="yes"/>
			<point x="652" y="414"/>
			<point x="593" y="477"/>
			<point x="466" y="477" type="curve" smooth="yes"/>
			<point x="367" y="477"/>
			<point x="307" y="428"/>
			<point x="253" y="309" type="curve" smooth="yes"/>
			<point x="230" y="258" type="line"/>
			<point x="221" y="260" type="line"/>
			<point x="225" y="357"/>
			<point x="248" y="465"/>
			<point x="277" y="492" type="curve" smooth="yes"/>
			<point x="297" y="511"/>
			<point x="417" y="531"/>
			<point x="500" y="540" type="curve" smooth="yes"/>
			<point x="580" y="549"/>
			<point x="605" y="607"/>
			<point x="619" y="768" type="curve"/>
			<point x="519" y="781" type="line"/>
			<point x="508" y="749"/>
			<point x="493" y="723"/>
			<point x="460" y="717" type="curve" smooth="yes"/>
			<point x="390" y="704"/>
			<point x="316" y="687"/>
			<point x="248" y="648" type="curve" smooth="yes"/>
			<point x="155" y="595"/>
			<point x="45" y="459"/>
			<point x="45" y="258" type="curve" smooth="yes"/>
			<point x="45" y="92"/>
			<point x="135" y="-16"/>
		</contour>
		<contour>
			<point x="396" y="370" type="curve" smooth="yes"/>
			<point x="426" y="370"/>
			<point x="437" y="343"/>
			<point x="437" y="282" type="curve" smooth="yes"/>
			<point x="437" y="187"/>
			<point x="387" y="75"/>
			<point x="325" y="75" type="curve" smooth="yes"/>
			<point x="296" y="75"/>
			<point x="273" y="98"/>
			<point x="265" y="126" type="curve"/>
			<point x="299" y="249"/>
			<point x="357" y="370"/>
		</contour>
	</outline>
	<guideline x="1037" y="471" angle="0"/>
</glyph>
<glyph name="de-cy" format="2">
	<unicode hex="0434"/>
	<advance width="658"/>
	<outline>
		<contour>
			<point x="128" y="715" type="curve"/>
			<point x="160" y="618" type="line"/>
			<point x="192" y="633"/>
			<point x="253" y="656"/>
			<point x="310" y="656" type="curve" smooth="yes"/>
			<point x="379" y="656"/>
			<point x="415" y="632"/>
			<point x="424" y="579" type="curve" smooth="yes"/>
			<point x="426" y="567"/>
			<point x="426" y="538"/>
			<point x="425" y="525" type="curve"/>
			<point x="400" y="532"/>
			<point x="344" y="541"/>
			<point x="311" y="541" type="curve" smooth="yes"/>
			<point x="116" y="541"/>
			<point x="39" y="390"/>
			<point x="39" y="242" type="curve" smooth="yes"/>
			<point x="39" y="89"/>
			<point x="139" y="-14"/>
			<point x="297" y="-14" type="curve" smooth="yes"/>
			<point x="500" y="-14"/>
			<point x="628" y="174"/>
			<point x="628" y="435" type="curve" smooth="yes"/>
			<point x="628" y="654"/>
			<point x="526" y="774"/>
			<point x="352" y="774" type="curve" smooth="yes"/>
			<point x="273" y="774"/>
			<point x="191" y="748"/>
		</contour>
		<contour>
			<point x="318" y="89" type="curve" smooth="yes"/>
			<point x="285" y="89"/>
			<point x="256" y="116"/>
			<point x="256" y="213" type="curve" smooth="yes"/>
			<point x="256" y="338"/>
			<point x="296" y="446"/>
			<point x="355" y="446" type="curve" smooth="yes"/>
			<point x="373" y="446"/>
			<point x="408" y="442"/>
			<point x="421" y="436" type="curve"/>
			<point x="418" y="369"/>
			<point x="413" y="313"/>
			<point x="405" y="259" type="curve" smooth="yes"/>
			<point x="385" y="120"/>
			<point x="343" y="89"/>
		</contour>
	</outline>
</glyph>
<glyph name="ze-cy" format="2">
	<unicode hex="0437"/>
	<advance width="578"/>
	<outline>
		<contour>
			<point x="257" y="-17" type="curve" smooth="yes"/>
			<point x="446" y="-17"/>
			<point x="545" y="71"/>
			<point x="545" y="171" type="curve" smooth="yes"/>
			<point x="545" y="252"/>
			<point x="454" y="286"/>
			<point x="331" y="274" type="curve"/>
			<point x="331" y="278" type="line"/>
			<point x="430" y="288"/>
			<point x="527" y="325"/>
			<point x="527" y="426" type="curve" smooth="yes"/>
			<point x="527" y="501"/>
			<point x="450" y="544"/>
			<point x="331" y="544" type="curve" smooth="yes"/>
			<point x="170" y="544"/>
			<point x="87" y="456"/>
			<point x="61" y="424" type="curve"/>
			<point x="136" y="365" type="line"/>
			<point x="170" y="403"/>
			<point x="223" y="422"/>
			<point x="264" y="422" type="curve" smooth="yes"/>
			<point x="313" y="422"/>
			<point x="334" y="398"/>
			<point x="334" y="368" type="curve" smooth="yes"/>
			<point x="334" y="320"/>
			<point x="276" y="300"/>
			<point x="235" y="298" type="curve" smooth="yes"/>
			<point x="135" y="292" type="line"/>
			<point x="135" y="219" type="line"/>
			<point x="235" y="219" type="line" smooth="yes"/>
			<point x="283" y="219"/>
			<point x="332" y="202"/>
			<point x="332" y="155" type="curve" smooth="yes"/>
			<point x="332" y="109"/>
			<point x="304" y="70"/>
			<point x="245" y="70" type="curve" smooth="yes"/>
			<point x="186" y="70"/>
			<point x="171" y="97"/>
			<point x="178" y="123" type="curve" smooth="yes"/>
			<point x="186" y="152" type="line"/>
			<point x="166" y="172"/>
			<point x="145" y="185"/>
			<point x="110" y="185" type="curve" smooth="yes"/>
			<point x="66" y="185"/>
			<point x="35" y="153"/>
			<point x="35" y="112" type="curve" smooth="yes"/>
			<point x="35" y="26"/>
			<point x="133" y="-17"/>
		</contour>
	</outline>
	<guideline x="376" y="579" angle="0"/>
</glyph>
<glyph name="el-cy" format="2">
	<unicode hex="043B"/>
	<advance width="697"/>
	<outline>
		<contour>
			<point x="121" y="484" type="curve"/>
			<point x="144" y="404" type="line"/>
			<point x="164" y="413"/>
			<point x="189" y="419"/>
			<point x="208" y="420" type="curve"/>
			<point x="205" y="382"/>
			<point x="199" y="324"/>
			<point x="186" y="262" type="curve" smooth="yes"/>
			<point x="173" y="202"/>
			<point x="161" y="164"/>
			<point x="140" y="127" type="curve"/>
			<point x="64" y="170" type="line"/>
			<point x="35" y="155"/>
			<point x="9" y="117"/>
			<point x="9" y="77" type="curve" smooth="yes"/>
			<point x="9" y="33"/>
			<point x="43" y="-17"/>
			<point x="111" y="-17" type="curve" smooth="yes"/>
			<point x="188" y="-17"/>
			<point x="227" y="53"/>
			<point x="255" y="148" type="curve" smooth="yes"/>
			<point x="267" y="188"/>
			<point x="294" y="316"/>
			<point x="309" y="425" type="curve"/>
			<point x="346" y="425"/>
			<point x="382" y="421"/>
			<point x="399" y="415" type="curve"/>
			<point x="378" y="111" type="line" smooth="yes"/>
			<point x="372" y="28"/>
			<point x="425" y="-17"/>
			<point x="506" y="-17" type="curve" smooth="yes"/>
			<point x="582" y="-17"/>
			<point x="657" y="10"/>
			<point x="679" y="22" type="curve"/>
			<point x="654" y="107" type="line"/>
			<point x="634" y="100"/>
			<point x="622" y="96"/>
			<point x="611" y="96" type="curve" smooth="yes"/>
			<point x="597" y="96"/>
			<point x="591" y="106"/>
			<point x="592" y="126" type="curve" smooth="yes"/>
			<point x="607" y="485" type="line"/>
			<point x="555" y="520"/>
			<point x="466" y="541"/>
			<point x="386" y="541" type="curve" smooth="yes"/>
			<point x="259" y="541"/>
			<point x="181" y="516"/>
		</contour>
	</outline>
</glyph>
<glyph name="ef-cy" format="2">
	<unicode hex="0444"/>
	<advance width="959"/>
	<outline>
		<contour>
			<point x="575" y="428" type="line"/>
			<point x="606" y="746" type="line"/>
			<point x="585" y="767" type="line"/>
			<point x="318" y="767" type="line"/>
			<point x="306" y="679" type="line"/>
			<point x="410" y="658" type="line"/>
			<point x="401" y="517" type="line"/>
			<point x="373" y="534"/>
			<point x="348" y="541"/>
			<point x="308" y="541" type="curve" smooth="yes"/>
			<point x="130" y="541"/>
			<point x="38" y="381"/>
			<point x="38" y="206" type="curve" smooth="yes"/>
			<point x="38" y="52"/>
			<point x="121" y="-17"/>
			<point x="220" y="-17" type="curve" smooth="yes"/>
			<point x="303" y="-17"/>
			<point x="346" y="28"/>
			<point x="378" y="85" type="curve"/>
			<point x="383" y="83" type="line"/>
			<point x="354" y="-199" type="line"/>
			<point x="378" y="-226" type="line"/>
			<point x="651" y="-230" type="line"/>
			<point x="662" y="-153" type="line"/>
			<point x="558" y="-132" type="line"/>
			<point x="566" y="8" type="line"/>
			<point x="585" y="-3"/>
			<point x="611" y="-17"/>
			<point x="680" y="-17" type="curve" smooth="yes"/>
			<point x="825" y="-17"/>
			<point x="926" y="147"/>
			<point x="926" y="325" type="curve" smooth="yes"/>
			<point x="926" y="457"/>
			<point x="854" y="541"/>
			<point x="741" y="541" type="curve" smooth="yes"/>
			<point x="673" y="541"/>
			<point x="619" y="502"/>
			<point x="580" y="427" type="curve"/>
		</contour>
		<contour>
			<point x="293" y="94" type="curve" smooth="yes"/>
			<point x="267" y="94"/>
			<point x="243" y="120"/>
			<point x="243" y="187" type="curve" smooth="yes"/>
			<point x="243" y="294"/>
			<point x="282" y="447"/>
			<point x="360" y="447" type="curve" smooth="yes"/>
			<point x="382" y="447"/>
			<point x="389" y="443"/>
			<point x="396" y="436" type="curve"/>
			<point x="384" y="254" type="line"/>
			<point x="359" y="140"/>
			<point x="330" y="94"/>
		</contour>
		<contour>
			<point x="680" y="436" type="curve" smooth="yes"/>
			<point x="714" y="436"/>
			<point x="727" y="406"/>
			<point x="727" y="357" type="curve" smooth="yes"/>
			<point x="727" y="226"/>
			<point x="680" y="85"/>
			<point x="607" y="85" type="curve" smooth="yes"/>
			<point x="588" y="85"/>
			<point x="579" y="91"/>
			<point x="572" y="97" type="curve"/>
			<point x="581" y="251" type="line"/>
			<point x="601" y="387"/>
			<point x="635" y="436"/>
		</contour>
	</outline>
</glyph>
<glyph name="tse-cy" format="2">
	<unicode hex="0446"/>
	<advance width="779"/>
	<outline>
		<contour>
			<point x="13" y="495" type="curve"/>
			<point x="36" y="418" type="line"/>
			<point x="52" y="424"/>
			<point x="65" y="427"/>
			<point x="78" y="427" type="curve" smooth="yes"/>
			<point x="97" y="427"/>
			<point x="107" y="420"/>
			<point x="105" y="391" type="curve" smooth="yes"/>
			<point x="85" y="129" type="line" smooth="yes"/>
			<point x="79" y="44"/>
			<point x="135" y="-14"/>
			<point x="228" y="-14" type="curve" smooth="yes"/>
			<point x="318" y="-14"/>
			<point x="375" y="25"/>
			<point x="409" y="133" type="curve" smooth="yes"/>
			<point x="490" y="389" type="line"/>
			<point x="502" y="386" type="line"/>
			<point x="460" y="116" type="line" smooth="yes"/>
			<point x="446" y="29"/>
			<point x="482" y="-14"/>
			<point x="547" y="-14" type="curve" smooth="yes"/>
			<point x="586" y="-14"/>
			<point x="616" y="-2"/>
			<point x="643" y="19" type="curve"/>
			<point x="648" y="17" type="line"/>
			<point x="643" y="-45"/>
			<point x="625" y="-116"/>
			<point x="612" y="-166" type="curve"/>
			<point x="678" y="-195" type="line"/>
			<point x="730" y="-146"/>
			<point x="787" y="-25"/>
			<point x="793" y="98" type="curve"/>
			<point x="715" y="124" type="line"/>
			<point x="702" y="111"/>
			<point x="686" y="99"/>
			<point x="669" y="99" type="curve" smooth="yes"/>
			<point x="653" y="99"/>
			<point x="647" y="113"/>
			<point x="648" y="130" type="curve" smooth="yes"/>
			<point x="672" y="527" type="line"/>
			<point x="449" y="527" type="line"/>
			<point x="344" y="204" type="line" smooth="yes"/>
			<point x="327" y="152"/>
			<point x="320" y="133"/>
			<point x="304" y="133" type="curve" smooth="yes"/>
			<point x="287" y="133"/>
			<point x="285" y="142"/>
			<point x="287" y="164" type="curve" smooth="yes"/>
			<point x="315" y="425" type="line" smooth="yes"/>
			<point x="323" y="501"/>
			<point x="281" y="541"/>
			<point x="200" y="541" type="curve" smooth="yes"/>
			<point x="145" y="541"/>
			<point x="53" y="515"/>
		</contour>
	</outline>
</glyph>
<glyph name="che-cy" format="2">
	<unicode hex="0447"/>
	<advance width="708"/>
	<outline>
		<contour>
			<point x="8" y="496" type="curve"/>
			<point x="29" y="419" type="line"/>
			<point x="45" y="425"/>
			<point x="55" y="427"/>
			<point x="65" y="427" type="curve" smooth="yes"/>
			<point x="82" y="427"/>
			<point x="93" y="420"/>
			<point x="90" y="392" type="curve" smooth="yes"/>
			<point x="86" y="359"/>
			<point x="73" y="299"/>
			<point x="73" y="261" type="curve" smooth="yes"/>
			<point x="73" y="198"/>
			<point x="119" y="144"/>
			<point x="210" y="144" type="curve" smooth="yes"/>
			<point x="319" y="144"/>
			<point x="409" y="245"/>
			<point x="456" y="362" type="curve"/>
			<point x="467" y="359" type="line"/>
			<point x="408" y="153" type="line" smooth="yes"/>
			<point x="373" y="31"/>
			<point x="449" y="-14"/>
			<point x="528" y="-14" type="curve" smooth="yes"/>
			<point x="584" y="-14"/>
			<point x="653" y="8"/>
			<point x="690" y="31" type="curve"/>
			<point x="669" y="109" type="line"/>
			<point x="658" y="104"/>
			<point x="641" y="99"/>
			<point x="625" y="99" type="curve" smooth="yes"/>
			<point x="613" y="99"/>
			<point x="605" y="110"/>
			<point x="607" y="129" type="curve" smooth="yes"/>
			<point x="641" y="527" type="line"/>
			<point x="442" y="527" type="line"/>
			<point x="403" y="409"/>
			<point x="344" y="289"/>
			<point x="295" y="289" type="curve" smooth="yes"/>
			<point x="278" y="289"/>
			<point x="270" y="300"/>
			<point x="275" y="319" type="curve" smooth="yes"/>
			<point x="283" y="351"/>
			<point x="292" y="394"/>
			<point x="299" y="426" type="curve" smooth="yes"/>
			<point x="316" y="503"/>
			<point x="269" y="541"/>
			<point x="190" y="541" type="curve" smooth="yes"/>
			<point x="135" y="541"/>
			<point x="46" y="515"/>
		</contour>
	</outline>
</glyph>
